<svg width="1363" height="167" viewBox="0 0 1363 167" fill="none" xmlns="http://www.w3.org/2000/svg">
<rect width="1363" height="167" rx="15" fill="#F0F0F0"/>
<path d="M0 15C0 6.71573 6.71573 0 15 0H37V167H15C6.71573 167 0 160.284 0 152V15Z" fill="#5B2E0F"/>
<path d="M100.906 50.9219L93.3945 48.2383V45.0859L103.602 49.375V51.6367L100.906 50.9219ZM93.3945 53.1719L100.918 50.4297L103.602 49.7852V52.0352L93.3945 56.3242V53.1719ZM115.414 40.9375V58H111.898V40.9375H115.414ZM122.211 48.2266V50.9688H114.453V48.2266H122.211ZM123.031 40.9375V43.6914H114.453V40.9375H123.031ZM124.062 51.7891V51.543C124.062 50.6133 124.195 49.7578 124.461 48.9766C124.727 48.1875 125.113 47.5039 125.621 46.9258C126.129 46.3477 126.754 45.8984 127.496 45.5781C128.238 45.25 129.09 45.0859 130.051 45.0859C131.012 45.0859 131.867 45.25 132.617 45.5781C133.367 45.8984 133.996 46.3477 134.504 46.9258C135.02 47.5039 135.41 48.1875 135.676 48.9766C135.941 49.7578 136.074 50.6133 136.074 51.543V51.7891C136.074 52.7109 135.941 53.5664 135.676 54.3555C135.41 55.1367 135.02 55.8203 134.504 56.4062C133.996 56.9844 133.371 57.4336 132.629 57.7539C131.887 58.0742 131.035 58.2344 130.074 58.2344C129.113 58.2344 128.258 58.0742 127.508 57.7539C126.766 57.4336 126.137 56.9844 125.621 56.4062C125.113 55.8203 124.727 55.1367 124.461 54.3555C124.195 53.5664 124.062 52.7109 124.062 51.7891ZM127.438 51.543V51.7891C127.438 52.3203 127.484 52.8164 127.578 53.2773C127.672 53.7383 127.82 54.1445 128.023 54.4961C128.234 54.8398 128.508 55.1094 128.844 55.3047C129.18 55.5 129.59 55.5977 130.074 55.5977C130.543 55.5977 130.945 55.5 131.281 55.3047C131.617 55.1094 131.887 54.8398 132.09 54.4961C132.293 54.1445 132.441 53.7383 132.535 53.2773C132.637 52.8164 132.688 52.3203 132.688 51.7891V51.543C132.688 51.0273 132.637 50.543 132.535 50.0898C132.441 49.6289 132.289 49.2227 132.078 48.8711C131.875 48.5117 131.605 48.2305 131.27 48.0273C130.934 47.8242 130.527 47.7227 130.051 47.7227C129.574 47.7227 129.168 47.8242 128.832 48.0273C128.504 48.2305 128.234 48.5117 128.023 48.8711C127.82 49.2227 127.672 49.6289 127.578 50.0898C127.484 50.543 127.438 51.0273 127.438 51.543ZM141.523 48.0859V58H138.148V45.3203H141.324L141.523 48.0859ZM145.344 45.2383L145.285 48.3672C145.121 48.3438 144.922 48.3242 144.688 48.3086C144.461 48.2852 144.254 48.2734 144.066 48.2734C143.59 48.2734 143.176 48.3359 142.824 48.4609C142.48 48.5781 142.191 48.7539 141.957 48.9883C141.73 49.2227 141.559 49.5078 141.441 49.8438C141.332 50.1797 141.27 50.5625 141.254 50.9922L140.574 50.7812C140.574 49.9609 140.656 49.207 140.82 48.5195C140.984 47.8242 141.223 47.2188 141.535 46.7031C141.855 46.1875 142.246 45.7891 142.707 45.5078C143.168 45.2266 143.695 45.0859 144.289 45.0859C144.477 45.0859 144.668 45.1016 144.863 45.1328C145.059 45.1562 145.219 45.1914 145.344 45.2383ZM153.734 45.3203V47.7109H146.352V45.3203H153.734ZM148.18 42.1914H151.555V54.1797C151.555 54.5469 151.602 54.8281 151.695 55.0234C151.797 55.2188 151.945 55.3555 152.141 55.4336C152.336 55.5039 152.582 55.5391 152.879 55.5391C153.09 55.5391 153.277 55.5312 153.441 55.5156C153.613 55.4922 153.758 55.4688 153.875 55.4453L153.887 57.9297C153.598 58.0234 153.285 58.0977 152.949 58.1523C152.613 58.207 152.242 58.2344 151.836 58.2344C151.094 58.2344 150.445 58.1133 149.891 57.8711C149.344 57.6211 148.922 57.2227 148.625 56.6758C148.328 56.1289 148.18 55.4102 148.18 54.5195V42.1914ZM163.156 54.9648V45.3203H166.531V58H163.355L163.156 54.9648ZM163.531 52.3633L164.527 52.3398C164.527 53.1836 164.43 53.9688 164.234 54.6953C164.039 55.4141 163.746 56.0391 163.355 56.5703C162.965 57.0938 162.473 57.5039 161.879 57.8008C161.285 58.0898 160.586 58.2344 159.781 58.2344C159.164 58.2344 158.594 58.1484 158.07 57.9766C157.555 57.7969 157.109 57.5195 156.734 57.1445C156.367 56.7617 156.078 56.2734 155.867 55.6797C155.664 55.0781 155.562 54.3555 155.562 53.5117V45.3203H158.938V53.5352C158.938 53.9102 158.98 54.2266 159.066 54.4844C159.16 54.7422 159.289 54.9531 159.453 55.1172C159.617 55.2812 159.809 55.3984 160.027 55.4688C160.254 55.5391 160.504 55.5742 160.777 55.5742C161.473 55.5742 162.02 55.4336 162.418 55.1523C162.824 54.8711 163.109 54.4883 163.273 54.0039C163.445 53.5117 163.531 52.9648 163.531 52.3633ZM172.414 48.0273V58H169.039V45.3203H172.203L172.414 48.0273ZM171.922 51.2148H171.008C171.008 50.2773 171.129 49.4336 171.371 48.6836C171.613 47.9258 171.953 47.2812 172.391 46.75C172.828 46.2109 173.348 45.8008 173.949 45.5195C174.559 45.2305 175.238 45.0859 175.988 45.0859C176.582 45.0859 177.125 45.1719 177.617 45.3438C178.109 45.5156 178.531 45.7891 178.883 46.1641C179.242 46.5391 179.516 47.0352 179.703 47.6523C179.898 48.2695 179.996 49.0234 179.996 49.9141V58H176.598V49.9023C176.598 49.3398 176.52 48.9023 176.363 48.5898C176.207 48.2773 175.977 48.0586 175.672 47.9336C175.375 47.8008 175.008 47.7344 174.57 47.7344C174.117 47.7344 173.723 47.8242 173.387 48.0039C173.059 48.1836 172.785 48.4336 172.566 48.7539C172.355 49.0664 172.195 49.4336 172.086 49.8555C171.977 50.2773 171.922 50.7305 171.922 51.2148ZM190.062 54.9648V45.3203H193.438V58H190.262L190.062 54.9648ZM190.438 52.3633L191.434 52.3398C191.434 53.1836 191.336 53.9688 191.141 54.6953C190.945 55.4141 190.652 56.0391 190.262 56.5703C189.871 57.0938 189.379 57.5039 188.785 57.8008C188.191 58.0898 187.492 58.2344 186.688 58.2344C186.07 58.2344 185.5 58.1484 184.977 57.9766C184.461 57.7969 184.016 57.5195 183.641 57.1445C183.273 56.7617 182.984 56.2734 182.773 55.6797C182.57 55.0781 182.469 54.3555 182.469 53.5117V45.3203H185.844V53.5352C185.844 53.9102 185.887 54.2266 185.973 54.4844C186.066 54.7422 186.195 54.9531 186.359 55.1172C186.523 55.2812 186.715 55.3984 186.934 55.4688C187.16 55.5391 187.41 55.5742 187.684 55.5742C188.379 55.5742 188.926 55.4336 189.324 55.1523C189.73 54.8711 190.016 54.4883 190.18 54.0039C190.352 53.5117 190.438 52.9648 190.438 52.3633ZM202.871 54.4961C202.871 54.2539 202.801 54.0352 202.66 53.8398C202.52 53.6445 202.258 53.4648 201.875 53.3008C201.5 53.1289 200.957 52.9727 200.246 52.832C199.605 52.6914 199.008 52.5156 198.453 52.3047C197.906 52.0859 197.43 51.8242 197.023 51.5195C196.625 51.2148 196.312 50.8555 196.086 50.4414C195.859 50.0195 195.746 49.5391 195.746 49C195.746 48.4688 195.859 47.9688 196.086 47.5C196.32 47.0312 196.652 46.6172 197.082 46.2578C197.52 45.8906 198.051 45.6055 198.676 45.4023C199.309 45.1914 200.02 45.0859 200.809 45.0859C201.91 45.0859 202.855 45.2617 203.645 45.6133C204.441 45.9648 205.051 46.4492 205.473 47.0664C205.902 47.6758 206.117 48.3711 206.117 49.1523H202.742C202.742 48.8242 202.672 48.5312 202.531 48.2734C202.398 48.0078 202.188 47.8008 201.898 47.6523C201.617 47.4961 201.25 47.418 200.797 47.418C200.422 47.418 200.098 47.4844 199.824 47.6172C199.551 47.7422 199.34 47.9141 199.191 48.1328C199.051 48.3438 198.98 48.5781 198.98 48.8359C198.98 49.0312 199.02 49.207 199.098 49.3633C199.184 49.5117 199.32 49.6484 199.508 49.7734C199.695 49.8984 199.938 50.0156 200.234 50.125C200.539 50.2266 200.914 50.3203 201.359 50.4062C202.273 50.5938 203.09 50.8398 203.809 51.1445C204.527 51.4414 205.098 51.8477 205.52 52.3633C205.941 52.8711 206.152 53.5391 206.152 54.3672C206.152 54.9297 206.027 55.4453 205.777 55.9141C205.527 56.3828 205.168 56.793 204.699 57.1445C204.23 57.4883 203.668 57.7578 203.012 57.9531C202.363 58.1406 201.633 58.2344 200.82 58.2344C199.641 58.2344 198.641 58.0234 197.82 57.6016C197.008 57.1797 196.391 56.6445 195.969 55.9961C195.555 55.3398 195.348 54.668 195.348 53.9805H198.547C198.562 54.4414 198.68 54.8125 198.898 55.0938C199.125 55.375 199.41 55.5781 199.754 55.7031C200.105 55.8281 200.484 55.8906 200.891 55.8906C201.328 55.8906 201.691 55.832 201.98 55.7148C202.27 55.5898 202.488 55.4258 202.637 55.2227C202.793 55.0117 202.871 54.7695 202.871 54.4961ZM220.684 54.4375L224.703 40.9375H228.617L222.676 58H220.098L220.684 54.4375ZM216.98 40.9375L220.988 54.4375L221.598 58H218.996L213.09 40.9375H216.98ZM233.562 45.3203V58H230.176V45.3203H233.562ZM229.965 42.0156C229.965 41.5234 230.137 41.1172 230.48 40.7969C230.824 40.4766 231.285 40.3164 231.863 40.3164C232.434 40.3164 232.891 40.4766 233.234 40.7969C233.586 41.1172 233.762 41.5234 233.762 42.0156C233.762 42.5078 233.586 42.9141 233.234 43.2344C232.891 43.5547 232.434 43.7148 231.863 43.7148C231.285 43.7148 230.824 43.5547 230.48 43.2344C230.137 42.9141 229.965 42.5078 229.965 42.0156ZM243.207 54.4961C243.207 54.2539 243.137 54.0352 242.996 53.8398C242.855 53.6445 242.594 53.4648 242.211 53.3008C241.836 53.1289 241.293 52.9727 240.582 52.832C239.941 52.6914 239.344 52.5156 238.789 52.3047C238.242 52.0859 237.766 51.8242 237.359 51.5195C236.961 51.2148 236.648 50.8555 236.422 50.4414C236.195 50.0195 236.082 49.5391 236.082 49C236.082 48.4688 236.195 47.9688 236.422 47.5C236.656 47.0312 236.988 46.6172 237.418 46.2578C237.855 45.8906 238.387 45.6055 239.012 45.4023C239.645 45.1914 240.355 45.0859 241.145 45.0859C242.246 45.0859 243.191 45.2617 243.98 45.6133C244.777 45.9648 245.387 46.4492 245.809 47.0664C246.238 47.6758 246.453 48.3711 246.453 49.1523H243.078C243.078 48.8242 243.008 48.5312 242.867 48.2734C242.734 48.0078 242.523 47.8008 242.234 47.6523C241.953 47.4961 241.586 47.418 241.133 47.418C240.758 47.418 240.434 47.4844 240.16 47.6172C239.887 47.7422 239.676 47.9141 239.527 48.1328C239.387 48.3438 239.316 48.5781 239.316 48.8359C239.316 49.0312 239.355 49.207 239.434 49.3633C239.52 49.5117 239.656 49.6484 239.844 49.7734C240.031 49.8984 240.273 50.0156 240.57 50.125C240.875 50.2266 241.25 50.3203 241.695 50.4062C242.609 50.5938 243.426 50.8398 244.145 51.1445C244.863 51.4414 245.434 51.8477 245.855 52.3633C246.277 52.8711 246.488 53.5391 246.488 54.3672C246.488 54.9297 246.363 55.4453 246.113 55.9141C245.863 56.3828 245.504 56.793 245.035 57.1445C244.566 57.4883 244.004 57.7578 243.348 57.9531C242.699 58.1406 241.969 58.2344 241.156 58.2344C239.977 58.2344 238.977 58.0234 238.156 57.6016C237.344 57.1797 236.727 56.6445 236.305 55.9961C235.891 55.3398 235.684 54.668 235.684 53.9805H238.883C238.898 54.4414 239.016 54.8125 239.234 55.0938C239.461 55.375 239.746 55.5781 240.09 55.7031C240.441 55.8281 240.82 55.8906 241.227 55.8906C241.664 55.8906 242.027 55.832 242.316 55.7148C242.605 55.5898 242.824 55.4258 242.973 55.2227C243.129 55.0117 243.207 54.7695 243.207 54.4961ZM252.242 45.3203V58H248.855V45.3203H252.242ZM248.645 42.0156C248.645 41.5234 248.816 41.1172 249.16 40.7969C249.504 40.4766 249.965 40.3164 250.543 40.3164C251.113 40.3164 251.57 40.4766 251.914 40.7969C252.266 41.1172 252.441 41.5234 252.441 42.0156C252.441 42.5078 252.266 42.9141 251.914 43.2344C251.57 43.5547 251.113 43.7148 250.543 43.7148C249.965 43.7148 249.504 43.5547 249.16 43.2344C248.816 42.9141 248.645 42.5078 248.645 42.0156ZM254.492 51.7891V51.543C254.492 50.6133 254.625 49.7578 254.891 48.9766C255.156 48.1875 255.543 47.5039 256.051 46.9258C256.559 46.3477 257.184 45.8984 257.926 45.5781C258.668 45.25 259.52 45.0859 260.48 45.0859C261.441 45.0859 262.297 45.25 263.047 45.5781C263.797 45.8984 264.426 46.3477 264.934 46.9258C265.449 47.5039 265.84 48.1875 266.105 48.9766C266.371 49.7578 266.504 50.6133 266.504 51.543V51.7891C266.504 52.7109 266.371 53.5664 266.105 54.3555C265.84 55.1367 265.449 55.8203 264.934 56.4062C264.426 56.9844 263.801 57.4336 263.059 57.7539C262.316 58.0742 261.465 58.2344 260.504 58.2344C259.543 58.2344 258.688 58.0742 257.938 57.7539C257.195 57.4336 256.566 56.9844 256.051 56.4062C255.543 55.8203 255.156 55.1367 254.891 54.3555C254.625 53.5664 254.492 52.7109 254.492 51.7891ZM257.867 51.543V51.7891C257.867 52.3203 257.914 52.8164 258.008 53.2773C258.102 53.7383 258.25 54.1445 258.453 54.4961C258.664 54.8398 258.938 55.1094 259.273 55.3047C259.609 55.5 260.02 55.5977 260.504 55.5977C260.973 55.5977 261.375 55.5 261.711 55.3047C262.047 55.1094 262.316 54.8398 262.52 54.4961C262.723 54.1445 262.871 53.7383 262.965 53.2773C263.066 52.8164 263.117 52.3203 263.117 51.7891V51.543C263.117 51.0273 263.066 50.543 262.965 50.0898C262.871 49.6289 262.719 49.2227 262.508 48.8711C262.305 48.5117 262.035 48.2305 261.699 48.0273C261.363 47.8242 260.957 47.7227 260.48 47.7227C260.004 47.7227 259.598 47.8242 259.262 48.0273C258.934 48.2305 258.664 48.5117 258.453 48.8711C258.25 49.2227 258.102 49.6289 258.008 50.0898C257.914 50.543 257.867 51.0273 257.867 51.543ZM271.883 48.0273V58H268.508V45.3203H271.672L271.883 48.0273ZM271.391 51.2148H270.477C270.477 50.2773 270.598 49.4336 270.84 48.6836C271.082 47.9258 271.422 47.2812 271.859 46.75C272.297 46.2109 272.816 45.8008 273.418 45.5195C274.027 45.2305 274.707 45.0859 275.457 45.0859C276.051 45.0859 276.594 45.1719 277.086 45.3438C277.578 45.5156 278 45.7891 278.352 46.1641C278.711 46.5391 278.984 47.0352 279.172 47.6523C279.367 48.2695 279.465 49.0234 279.465 49.9141V58H276.066V49.9023C276.066 49.3398 275.988 48.9023 275.832 48.5898C275.676 48.2773 275.445 48.0586 275.141 47.9336C274.844 47.8008 274.477 47.7344 274.039 47.7344C273.586 47.7344 273.191 47.8242 272.855 48.0039C272.527 48.1836 272.254 48.4336 272.035 48.7539C271.824 49.0664 271.664 49.4336 271.555 49.8555C271.445 50.2773 271.391 50.7305 271.391 51.2148Z" fill="#5B2E0F"/>
<path d="M109.93 86.0078V118H102.217V86.0078H109.93ZM119.554 86.0078V91.9624H92.813V86.0078H119.554ZM132.012 118.439C130.079 118.439 128.35 118.139 126.827 117.539C125.303 116.923 124.014 116.081 122.959 115.012C121.919 113.942 121.121 112.712 120.564 111.32C120.022 109.929 119.751 108.457 119.751 106.904V106.069C119.751 104.326 119.993 102.714 120.477 101.235C120.96 99.7407 121.678 98.437 122.63 97.3237C123.582 96.2104 124.776 95.3462 126.211 94.731C127.647 94.1011 129.317 93.7861 131.221 93.7861C132.906 93.7861 134.415 94.0571 135.748 94.5991C137.081 95.1411 138.208 95.9175 139.131 96.9282C140.069 97.939 140.779 99.1621 141.263 100.598C141.761 102.033 142.01 103.645 142.01 105.432V108.442H122.586V103.806H134.781V103.234C134.795 102.443 134.656 101.77 134.363 101.213C134.085 100.656 133.675 100.231 133.133 99.9385C132.591 99.6455 131.932 99.499 131.155 99.499C130.35 99.499 129.683 99.6748 129.156 100.026C128.643 100.378 128.24 100.861 127.947 101.477C127.669 102.077 127.471 102.773 127.354 103.564C127.237 104.355 127.178 105.19 127.178 106.069V106.904C127.178 107.783 127.295 108.581 127.53 109.299C127.779 110.017 128.13 110.632 128.584 111.145C129.053 111.643 129.61 112.031 130.254 112.309C130.914 112.587 131.661 112.727 132.496 112.727C133.506 112.727 134.502 112.536 135.484 112.155C136.465 111.774 137.308 111.145 138.011 110.266L141.373 114.265C140.889 114.953 140.201 115.62 139.307 116.264C138.428 116.909 137.374 117.436 136.143 117.846C134.913 118.242 133.536 118.439 132.012 118.439ZM155.062 112.727C155.75 112.727 156.336 112.602 156.819 112.353C157.317 112.089 157.691 111.723 157.94 111.254C158.204 110.771 158.328 110.192 158.313 109.519H165.279C165.293 111.306 164.854 112.873 163.96 114.221C163.082 115.554 161.88 116.594 160.357 117.341C158.848 118.073 157.142 118.439 155.237 118.439C153.377 118.439 151.751 118.139 150.359 117.539C148.968 116.923 147.803 116.074 146.866 114.99C145.943 113.891 145.247 112.609 144.778 111.145C144.324 109.68 144.097 108.09 144.097 106.376V105.871C144.097 104.157 144.324 102.568 144.778 101.103C145.247 99.6235 145.943 98.3418 146.866 97.2578C147.803 96.1592 148.96 95.3096 150.337 94.709C151.729 94.0938 153.348 93.7861 155.193 93.7861C157.171 93.7861 158.914 94.1597 160.423 94.9067C161.946 95.6538 163.14 96.7378 164.004 98.1587C164.869 99.5796 165.293 101.301 165.279 103.322H158.313C158.328 102.604 158.218 101.96 157.984 101.389C157.75 100.817 157.383 100.363 156.885 100.026C156.402 99.6748 155.779 99.499 155.018 99.499C154.256 99.499 153.641 99.6675 153.172 100.004C152.703 100.341 152.344 100.81 152.095 101.411C151.861 101.997 151.7 102.67 151.612 103.432C151.539 104.194 151.502 105.007 151.502 105.871V106.376C151.502 107.255 151.539 108.083 151.612 108.859C151.7 109.621 151.868 110.295 152.117 110.881C152.366 111.452 152.725 111.906 153.194 112.243C153.663 112.565 154.285 112.727 155.062 112.727ZM175.694 84.25V118H168.289V84.25H175.694ZM174.815 105.3L173.079 105.344C173.079 103.674 173.284 102.136 173.694 100.729C174.104 99.3232 174.69 98.1001 175.452 97.0601C176.214 96.02 177.129 95.2144 178.199 94.6431C179.268 94.0718 180.455 93.7861 181.758 93.7861C182.93 93.7861 184 93.9546 184.966 94.2915C185.948 94.6284 186.79 95.1704 187.493 95.9175C188.211 96.6646 188.76 97.6387 189.141 98.8398C189.537 100.041 189.734 101.506 189.734 103.234V118H182.286V103.19C182.286 102.224 182.146 101.477 181.868 100.949C181.604 100.407 181.224 100.034 180.726 99.8286C180.228 99.6089 179.62 99.499 178.902 99.499C178.038 99.499 177.334 99.6455 176.792 99.9385C176.25 100.231 175.833 100.642 175.54 101.169C175.262 101.682 175.071 102.29 174.969 102.993C174.866 103.696 174.815 104.465 174.815 105.3ZM221.88 109.497C221.88 108.999 221.807 108.552 221.661 108.156C221.514 107.746 221.243 107.365 220.848 107.014C220.452 106.662 219.881 106.311 219.134 105.959C218.401 105.593 217.435 105.212 216.233 104.816C214.827 104.348 213.472 103.82 212.168 103.234C210.865 102.634 209.7 101.938 208.675 101.147C207.649 100.341 206.836 99.4038 206.236 98.3345C205.635 97.2505 205.335 95.9907 205.335 94.5552C205.335 93.1782 205.643 91.9404 206.258 90.8418C206.873 89.7285 207.73 88.7837 208.829 88.0073C209.942 87.2163 211.246 86.6157 212.74 86.2056C214.234 85.7808 215.867 85.5684 217.64 85.5684C219.983 85.5684 222.049 85.9785 223.836 86.7988C225.638 87.6045 227.044 88.7544 228.055 90.2485C229.08 91.728 229.593 93.4785 229.593 95.5H221.924C221.924 94.6943 221.756 93.9839 221.419 93.3687C221.097 92.7534 220.606 92.27 219.947 91.9185C219.288 91.5669 218.46 91.3911 217.464 91.3911C216.497 91.3911 215.684 91.5376 215.025 91.8306C214.366 92.1235 213.868 92.519 213.531 93.0171C213.194 93.5005 213.025 94.0352 213.025 94.6211C213.025 95.1045 213.157 95.5439 213.421 95.9395C213.699 96.3203 214.087 96.6792 214.585 97.0161C215.098 97.353 215.713 97.6753 216.431 97.9829C217.164 98.2905 217.984 98.5908 218.892 98.8838C220.591 99.4258 222.1 100.034 223.418 100.708C224.751 101.367 225.872 102.121 226.78 102.971C227.703 103.806 228.399 104.758 228.868 105.827C229.351 106.896 229.593 108.105 229.593 109.453C229.593 110.888 229.314 112.163 228.758 113.276C228.201 114.389 227.403 115.334 226.363 116.11C225.323 116.872 224.078 117.451 222.627 117.846C221.177 118.242 219.559 118.439 217.771 118.439C216.131 118.439 214.512 118.234 212.916 117.824C211.333 117.399 209.898 116.755 208.609 115.891C207.32 115.012 206.287 113.891 205.511 112.529C204.749 111.152 204.368 109.519 204.368 107.629H212.103C212.103 108.566 212.227 109.357 212.476 110.002C212.725 110.646 213.091 111.167 213.575 111.562C214.058 111.943 214.651 112.221 215.354 112.397C216.058 112.558 216.863 112.639 217.771 112.639C218.753 112.639 219.544 112.5 220.145 112.221C220.745 111.928 221.185 111.547 221.463 111.079C221.741 110.595 221.88 110.068 221.88 109.497ZM245.743 94.2256V99.3672H231.417V94.2256H245.743ZM234.427 88.3149H241.832V110.244C241.832 110.874 241.905 111.364 242.051 111.716C242.198 112.053 242.447 112.294 242.798 112.441C243.165 112.573 243.648 112.639 244.249 112.639C244.673 112.639 245.025 112.631 245.303 112.617C245.582 112.587 245.845 112.551 246.094 112.507V117.802C245.464 118.007 244.805 118.161 244.117 118.264C243.428 118.381 242.696 118.439 241.919 118.439C240.337 118.439 238.982 118.19 237.854 117.692C236.741 117.194 235.892 116.411 235.306 115.341C234.72 114.272 234.427 112.88 234.427 111.167V88.3149ZM261.036 112.023V102.224C261.036 101.55 260.94 100.971 260.75 100.488C260.56 100.004 260.259 99.6309 259.849 99.3672C259.439 99.0889 258.89 98.9497 258.201 98.9497C257.645 98.9497 257.168 99.0449 256.773 99.2354C256.377 99.4258 256.077 99.7114 255.872 100.092C255.667 100.473 255.564 100.957 255.564 101.542H248.16C248.16 100.444 248.401 99.4258 248.885 98.4883C249.383 97.5361 250.086 96.7085 250.994 96.0054C251.917 95.3022 253.016 94.7603 254.29 94.3794C255.579 93.9839 257.015 93.7861 258.597 93.7861C260.486 93.7861 262.171 94.1011 263.65 94.731C265.145 95.3608 266.324 96.3057 267.188 97.5654C268.052 98.8105 268.484 100.378 268.484 102.268V112.001C268.484 113.554 268.572 114.733 268.748 115.539C268.924 116.33 269.173 117.026 269.495 117.626V118H262.068C261.717 117.268 261.453 116.374 261.277 115.319C261.116 114.25 261.036 113.151 261.036 112.023ZM261.937 103.476L261.98 107.431H258.707C258.018 107.431 257.432 107.526 256.949 107.717C256.48 107.907 256.099 108.171 255.806 108.508C255.528 108.83 255.323 109.196 255.191 109.606C255.074 110.017 255.015 110.449 255.015 110.903C255.015 111.342 255.118 111.738 255.323 112.089C255.542 112.426 255.835 112.69 256.202 112.88C256.568 113.071 256.978 113.166 257.432 113.166C258.252 113.166 258.948 113.012 259.52 112.705C260.105 112.382 260.552 111.994 260.86 111.54C261.167 111.086 261.321 110.661 261.321 110.266L262.947 113.298C262.654 113.884 262.317 114.477 261.937 115.078C261.57 115.678 261.109 116.235 260.552 116.748C260.01 117.246 259.344 117.656 258.553 117.978C257.762 118.286 256.802 118.439 255.674 118.439C254.209 118.439 252.862 118.139 251.631 117.539C250.416 116.938 249.441 116.103 248.709 115.034C247.977 113.95 247.61 112.705 247.61 111.298C247.61 110.068 247.83 108.969 248.27 108.002C248.724 107.036 249.405 106.215 250.313 105.542C251.221 104.868 252.378 104.355 253.785 104.003C255.191 103.652 256.846 103.476 258.75 103.476H261.937ZM282.635 112.727C283.323 112.727 283.909 112.602 284.393 112.353C284.891 112.089 285.264 111.723 285.513 111.254C285.777 110.771 285.901 110.192 285.887 109.519H292.852C292.867 111.306 292.427 112.873 291.534 114.221C290.655 115.554 289.454 116.594 287.93 117.341C286.421 118.073 284.715 118.439 282.811 118.439C280.95 118.439 279.324 118.139 277.933 117.539C276.541 116.923 275.376 116.074 274.439 114.99C273.516 113.891 272.82 112.609 272.352 111.145C271.897 109.68 271.67 108.09 271.67 106.376V105.871C271.67 104.157 271.897 102.568 272.352 101.103C272.82 99.6235 273.516 98.3418 274.439 97.2578C275.376 96.1592 276.534 95.3096 277.911 94.709C279.302 94.0938 280.921 93.7861 282.767 93.7861C284.744 93.7861 286.487 94.1597 287.996 94.9067C289.52 95.6538 290.713 96.7378 291.578 98.1587C292.442 99.5796 292.867 101.301 292.852 103.322H285.887C285.901 102.604 285.792 101.96 285.557 101.389C285.323 100.817 284.957 100.363 284.458 100.026C283.975 99.6748 283.353 99.499 282.591 99.499C281.829 99.499 281.214 99.6675 280.745 100.004C280.276 100.341 279.917 100.81 279.668 101.411C279.434 101.997 279.273 102.67 279.185 103.432C279.112 104.194 279.075 105.007 279.075 105.871V106.376C279.075 107.255 279.112 108.083 279.185 108.859C279.273 109.621 279.441 110.295 279.69 110.881C279.939 111.452 280.298 111.906 280.767 112.243C281.236 112.565 281.858 112.727 282.635 112.727ZM303.487 84.228V118H296.082V84.228H303.487ZM318.692 94.2256L308.365 106.333L302.959 111.738L299.729 107.036L304.234 101.169L309.815 94.2256H318.692ZM310.76 118L304.41 107.167L309.881 103.278L319.241 118H310.76Z" fill="#424241"/>
<path d="M1363 15C1363 6.71573 1356.28 0 1348 0H1134V167H1348C1356.28 167 1363 160.284 1363 152V15Z" fill="#5B2E0F"/>
<path fill-rule="evenodd" clip-rule="evenodd" d="M1218.5 55C1218.37 55 1218.24 55.0527 1218.15 55.1464C1218.05 55.2402 1218 55.3674 1218 55.5V111.5C1218 111.633 1218.05 111.76 1218.15 111.854C1218.24 111.947 1218.37 112 1218.5 112H1278C1278.13 112 1278.26 111.947 1278.35 111.854C1278.45 111.76 1278.5 111.633 1278.5 111.5V66C1278.5 65.8674 1278.45 65.7402 1278.35 65.6464C1278.26 65.5527 1278.13 65.5 1278 65.5H1248.25C1247.36 65.5 1246.52 65.1045 1245.95 64.4206L1238.09 55H1218.5ZM1213.9 50.9038C1215.12 49.6848 1216.78 49 1218.5 49H1239.5C1240.39 49 1241.23 49.3955 1241.8 50.0794L1249.66 59.5H1278C1279.72 59.5 1281.38 60.1848 1282.6 61.4038C1283.82 62.6228 1284.5 64.2761 1284.5 66V111.5C1284.5 113.224 1283.82 114.877 1282.6 116.096C1281.38 117.315 1279.72 118 1278 118H1218.5C1216.78 118 1215.12 117.315 1213.9 116.096C1212.68 114.877 1212 113.224 1212 111.5V55.5C1212 53.7761 1212.68 52.1228 1213.9 50.9038Z" fill="#BA7F56"/>
<path fill-rule="evenodd" clip-rule="evenodd" d="M1243.72 77.5251C1245.09 78.892 1245.09 81.108 1243.72 82.4749L1237.45 88.75L1243.72 95.0251C1245.09 96.392 1245.09 98.608 1243.72 99.9749C1242.36 101.342 1240.14 101.342 1238.78 99.9749L1230.03 91.2249C1228.66 89.858 1228.66 87.642 1230.03 86.2751L1238.78 77.5251C1240.14 76.1583 1242.36 76.1583 1243.72 77.5251Z" fill="#BA7F56"/>
<path fill-rule="evenodd" clip-rule="evenodd" d="M1252.03 99.9749C1250.66 98.608 1250.66 96.392 1252.03 95.0251L1258.3 88.75L1252.03 82.4749C1250.66 81.108 1250.66 78.892 1252.03 77.5251C1253.39 76.1583 1255.61 76.1583 1256.97 77.5251L1265.72 86.2751C1267.09 87.642 1267.09 89.858 1265.72 91.2249L1256.97 99.9749C1255.61 101.342 1253.39 101.342 1252.03 99.9749Z" fill="#BA7F56"/>
</svg>
