<svg width="1363" height="167" viewBox="0 0 1363 167" fill="none" xmlns="http://www.w3.org/2000/svg">
<rect width="1363" height="167" rx="15" fill="#F0F0F0"/>
<path d="M0 15C0 6.71573 6.71573 0 15 0H37V167H15C6.71573 167 0 160.284 0 152V15Z" fill="#5B2E0F"/>
<path d="M100.906 50.9219L93.3945 48.2383V45.0859L103.602 49.375V51.6367L100.906 50.9219ZM93.3945 53.1719L100.918 50.4297L103.602 49.7852V52.0352L93.3945 56.3242V53.1719ZM115.414 40.9375V58H111.898V40.9375H115.414ZM122.211 48.2266V50.9688H114.453V48.2266H122.211ZM123.031 40.9375V43.6914H114.453V40.9375H123.031ZM124.062 51.7891V51.543C124.062 50.6133 124.195 49.7578 124.461 48.9766C124.727 48.1875 125.113 47.5039 125.621 46.9258C126.129 46.3477 126.754 45.8984 127.496 45.5781C128.238 45.25 129.09 45.0859 130.051 45.0859C131.012 45.0859 131.867 45.25 132.617 45.5781C133.367 45.8984 133.996 46.3477 134.504 46.9258C135.02 47.5039 135.41 48.1875 135.676 48.9766C135.941 49.7578 136.074 50.6133 136.074 51.543V51.7891C136.074 52.7109 135.941 53.5664 135.676 54.3555C135.41 55.1367 135.02 55.8203 134.504 56.4062C133.996 56.9844 133.371 57.4336 132.629 57.7539C131.887 58.0742 131.035 58.2344 130.074 58.2344C129.113 58.2344 128.258 58.0742 127.508 57.7539C126.766 57.4336 126.137 56.9844 125.621 56.4062C125.113 55.8203 124.727 55.1367 124.461 54.3555C124.195 53.5664 124.062 52.7109 124.062 51.7891ZM127.438 51.543V51.7891C127.438 52.3203 127.484 52.8164 127.578 53.2773C127.672 53.7383 127.82 54.1445 128.023 54.4961C128.234 54.8398 128.508 55.1094 128.844 55.3047C129.18 55.5 129.59 55.5977 130.074 55.5977C130.543 55.5977 130.945 55.5 131.281 55.3047C131.617 55.1094 131.887 54.8398 132.09 54.4961C132.293 54.1445 132.441 53.7383 132.535 53.2773C132.637 52.8164 132.688 52.3203 132.688 51.7891V51.543C132.688 51.0273 132.637 50.543 132.535 50.0898C132.441 49.6289 132.289 49.2227 132.078 48.8711C131.875 48.5117 131.605 48.2305 131.27 48.0273C130.934 47.8242 130.527 47.7227 130.051 47.7227C129.574 47.7227 129.168 47.8242 128.832 48.0273C128.504 48.2305 128.234 48.5117 128.023 48.8711C127.82 49.2227 127.672 49.6289 127.578 50.0898C127.484 50.543 127.438 51.0273 127.438 51.543ZM141.523 48.0859V58H138.148V45.3203H141.324L141.523 48.0859ZM145.344 45.2383L145.285 48.3672C145.121 48.3438 144.922 48.3242 144.688 48.3086C144.461 48.2852 144.254 48.2734 144.066 48.2734C143.59 48.2734 143.176 48.3359 142.824 48.4609C142.48 48.5781 142.191 48.7539 141.957 48.9883C141.73 49.2227 141.559 49.5078 141.441 49.8438C141.332 50.1797 141.27 50.5625 141.254 50.9922L140.574 50.7812C140.574 49.9609 140.656 49.207 140.82 48.5195C140.984 47.8242 141.223 47.2188 141.535 46.7031C141.855 46.1875 142.246 45.7891 142.707 45.5078C143.168 45.2266 143.695 45.0859 144.289 45.0859C144.477 45.0859 144.668 45.1016 144.863 45.1328C145.059 45.1562 145.219 45.1914 145.344 45.2383ZM153.734 45.3203V47.7109H146.352V45.3203H153.734ZM148.18 42.1914H151.555V54.1797C151.555 54.5469 151.602 54.8281 151.695 55.0234C151.797 55.2188 151.945 55.3555 152.141 55.4336C152.336 55.5039 152.582 55.5391 152.879 55.5391C153.09 55.5391 153.277 55.5312 153.441 55.5156C153.613 55.4922 153.758 55.4688 153.875 55.4453L153.887 57.9297C153.598 58.0234 153.285 58.0977 152.949 58.1523C152.613 58.207 152.242 58.2344 151.836 58.2344C151.094 58.2344 150.445 58.1133 149.891 57.8711C149.344 57.6211 148.922 57.2227 148.625 56.6758C148.328 56.1289 148.18 55.4102 148.18 54.5195V42.1914ZM163.156 54.9648V45.3203H166.531V58H163.355L163.156 54.9648ZM163.531 52.3633L164.527 52.3398C164.527 53.1836 164.43 53.9688 164.234 54.6953C164.039 55.4141 163.746 56.0391 163.355 56.5703C162.965 57.0938 162.473 57.5039 161.879 57.8008C161.285 58.0898 160.586 58.2344 159.781 58.2344C159.164 58.2344 158.594 58.1484 158.07 57.9766C157.555 57.7969 157.109 57.5195 156.734 57.1445C156.367 56.7617 156.078 56.2734 155.867 55.6797C155.664 55.0781 155.562 54.3555 155.562 53.5117V45.3203H158.938V53.5352C158.938 53.9102 158.98 54.2266 159.066 54.4844C159.16 54.7422 159.289 54.9531 159.453 55.1172C159.617 55.2812 159.809 55.3984 160.027 55.4688C160.254 55.5391 160.504 55.5742 160.777 55.5742C161.473 55.5742 162.02 55.4336 162.418 55.1523C162.824 54.8711 163.109 54.4883 163.273 54.0039C163.445 53.5117 163.531 52.9648 163.531 52.3633ZM172.414 48.0273V58H169.039V45.3203H172.203L172.414 48.0273ZM171.922 51.2148H171.008C171.008 50.2773 171.129 49.4336 171.371 48.6836C171.613 47.9258 171.953 47.2812 172.391 46.75C172.828 46.2109 173.348 45.8008 173.949 45.5195C174.559 45.2305 175.238 45.0859 175.988 45.0859C176.582 45.0859 177.125 45.1719 177.617 45.3438C178.109 45.5156 178.531 45.7891 178.883 46.1641C179.242 46.5391 179.516 47.0352 179.703 47.6523C179.898 48.2695 179.996 49.0234 179.996 49.9141V58H176.598V49.9023C176.598 49.3398 176.52 48.9023 176.363 48.5898C176.207 48.2773 175.977 48.0586 175.672 47.9336C175.375 47.8008 175.008 47.7344 174.57 47.7344C174.117 47.7344 173.723 47.8242 173.387 48.0039C173.059 48.1836 172.785 48.4336 172.566 48.7539C172.355 49.0664 172.195 49.4336 172.086 49.8555C171.977 50.2773 171.922 50.7305 171.922 51.2148ZM190.062 54.9648V45.3203H193.438V58H190.262L190.062 54.9648ZM190.438 52.3633L191.434 52.3398C191.434 53.1836 191.336 53.9688 191.141 54.6953C190.945 55.4141 190.652 56.0391 190.262 56.5703C189.871 57.0938 189.379 57.5039 188.785 57.8008C188.191 58.0898 187.492 58.2344 186.688 58.2344C186.07 58.2344 185.5 58.1484 184.977 57.9766C184.461 57.7969 184.016 57.5195 183.641 57.1445C183.273 56.7617 182.984 56.2734 182.773 55.6797C182.57 55.0781 182.469 54.3555 182.469 53.5117V45.3203H185.844V53.5352C185.844 53.9102 185.887 54.2266 185.973 54.4844C186.066 54.7422 186.195 54.9531 186.359 55.1172C186.523 55.2812 186.715 55.3984 186.934 55.4688C187.16 55.5391 187.41 55.5742 187.684 55.5742C188.379 55.5742 188.926 55.4336 189.324 55.1523C189.73 54.8711 190.016 54.4883 190.18 54.0039C190.352 53.5117 190.438 52.9648 190.438 52.3633ZM202.871 54.4961C202.871 54.2539 202.801 54.0352 202.66 53.8398C202.52 53.6445 202.258 53.4648 201.875 53.3008C201.5 53.1289 200.957 52.9727 200.246 52.832C199.605 52.6914 199.008 52.5156 198.453 52.3047C197.906 52.0859 197.43 51.8242 197.023 51.5195C196.625 51.2148 196.312 50.8555 196.086 50.4414C195.859 50.0195 195.746 49.5391 195.746 49C195.746 48.4688 195.859 47.9688 196.086 47.5C196.32 47.0312 196.652 46.6172 197.082 46.2578C197.52 45.8906 198.051 45.6055 198.676 45.4023C199.309 45.1914 200.02 45.0859 200.809 45.0859C201.91 45.0859 202.855 45.2617 203.645 45.6133C204.441 45.9648 205.051 46.4492 205.473 47.0664C205.902 47.6758 206.117 48.3711 206.117 49.1523H202.742C202.742 48.8242 202.672 48.5312 202.531 48.2734C202.398 48.0078 202.188 47.8008 201.898 47.6523C201.617 47.4961 201.25 47.418 200.797 47.418C200.422 47.418 200.098 47.4844 199.824 47.6172C199.551 47.7422 199.34 47.9141 199.191 48.1328C199.051 48.3438 198.98 48.5781 198.98 48.8359C198.98 49.0312 199.02 49.207 199.098 49.3633C199.184 49.5117 199.32 49.6484 199.508 49.7734C199.695 49.8984 199.938 50.0156 200.234 50.125C200.539 50.2266 200.914 50.3203 201.359 50.4062C202.273 50.5938 203.09 50.8398 203.809 51.1445C204.527 51.4414 205.098 51.8477 205.52 52.3633C205.941 52.8711 206.152 53.5391 206.152 54.3672C206.152 54.9297 206.027 55.4453 205.777 55.9141C205.527 56.3828 205.168 56.793 204.699 57.1445C204.23 57.4883 203.668 57.7578 203.012 57.9531C202.363 58.1406 201.633 58.2344 200.82 58.2344C199.641 58.2344 198.641 58.0234 197.82 57.6016C197.008 57.1797 196.391 56.6445 195.969 55.9961C195.555 55.3398 195.348 54.668 195.348 53.9805H198.547C198.562 54.4414 198.68 54.8125 198.898 55.0938C199.125 55.375 199.41 55.5781 199.754 55.7031C200.105 55.8281 200.484 55.8906 200.891 55.8906C201.328 55.8906 201.691 55.832 201.98 55.7148C202.27 55.5898 202.488 55.4258 202.637 55.2227C202.793 55.0117 202.871 54.7695 202.871 54.4961ZM220.684 54.4375L224.703 40.9375H228.617L222.676 58H220.098L220.684 54.4375ZM216.98 40.9375L220.988 54.4375L221.598 58H218.996L213.09 40.9375H216.98ZM233.562 45.3203V58H230.176V45.3203H233.562ZM229.965 42.0156C229.965 41.5234 230.137 41.1172 230.48 40.7969C230.824 40.4766 231.285 40.3164 231.863 40.3164C232.434 40.3164 232.891 40.4766 233.234 40.7969C233.586 41.1172 233.762 41.5234 233.762 42.0156C233.762 42.5078 233.586 42.9141 233.234 43.2344C232.891 43.5547 232.434 43.7148 231.863 43.7148C231.285 43.7148 230.824 43.5547 230.48 43.2344C230.137 42.9141 229.965 42.5078 229.965 42.0156ZM243.207 54.4961C243.207 54.2539 243.137 54.0352 242.996 53.8398C242.855 53.6445 242.594 53.4648 242.211 53.3008C241.836 53.1289 241.293 52.9727 240.582 52.832C239.941 52.6914 239.344 52.5156 238.789 52.3047C238.242 52.0859 237.766 51.8242 237.359 51.5195C236.961 51.2148 236.648 50.8555 236.422 50.4414C236.195 50.0195 236.082 49.5391 236.082 49C236.082 48.4688 236.195 47.9688 236.422 47.5C236.656 47.0312 236.988 46.6172 237.418 46.2578C237.855 45.8906 238.387 45.6055 239.012 45.4023C239.645 45.1914 240.355 45.0859 241.145 45.0859C242.246 45.0859 243.191 45.2617 243.98 45.6133C244.777 45.9648 245.387 46.4492 245.809 47.0664C246.238 47.6758 246.453 48.3711 246.453 49.1523H243.078C243.078 48.8242 243.008 48.5312 242.867 48.2734C242.734 48.0078 242.523 47.8008 242.234 47.6523C241.953 47.4961 241.586 47.418 241.133 47.418C240.758 47.418 240.434 47.4844 240.16 47.6172C239.887 47.7422 239.676 47.9141 239.527 48.1328C239.387 48.3438 239.316 48.5781 239.316 48.8359C239.316 49.0312 239.355 49.207 239.434 49.3633C239.52 49.5117 239.656 49.6484 239.844 49.7734C240.031 49.8984 240.273 50.0156 240.57 50.125C240.875 50.2266 241.25 50.3203 241.695 50.4062C242.609 50.5938 243.426 50.8398 244.145 51.1445C244.863 51.4414 245.434 51.8477 245.855 52.3633C246.277 52.8711 246.488 53.5391 246.488 54.3672C246.488 54.9297 246.363 55.4453 246.113 55.9141C245.863 56.3828 245.504 56.793 245.035 57.1445C244.566 57.4883 244.004 57.7578 243.348 57.9531C242.699 58.1406 241.969 58.2344 241.156 58.2344C239.977 58.2344 238.977 58.0234 238.156 57.6016C237.344 57.1797 236.727 56.6445 236.305 55.9961C235.891 55.3398 235.684 54.668 235.684 53.9805H238.883C238.898 54.4414 239.016 54.8125 239.234 55.0938C239.461 55.375 239.746 55.5781 240.09 55.7031C240.441 55.8281 240.82 55.8906 241.227 55.8906C241.664 55.8906 242.027 55.832 242.316 55.7148C242.605 55.5898 242.824 55.4258 242.973 55.2227C243.129 55.0117 243.207 54.7695 243.207 54.4961ZM252.242 45.3203V58H248.855V45.3203H252.242ZM248.645 42.0156C248.645 41.5234 248.816 41.1172 249.16 40.7969C249.504 40.4766 249.965 40.3164 250.543 40.3164C251.113 40.3164 251.57 40.4766 251.914 40.7969C252.266 41.1172 252.441 41.5234 252.441 42.0156C252.441 42.5078 252.266 42.9141 251.914 43.2344C251.57 43.5547 251.113 43.7148 250.543 43.7148C249.965 43.7148 249.504 43.5547 249.16 43.2344C248.816 42.9141 248.645 42.5078 248.645 42.0156ZM254.492 51.7891V51.543C254.492 50.6133 254.625 49.7578 254.891 48.9766C255.156 48.1875 255.543 47.5039 256.051 46.9258C256.559 46.3477 257.184 45.8984 257.926 45.5781C258.668 45.25 259.52 45.0859 260.48 45.0859C261.441 45.0859 262.297 45.25 263.047 45.5781C263.797 45.8984 264.426 46.3477 264.934 46.9258C265.449 47.5039 265.84 48.1875 266.105 48.9766C266.371 49.7578 266.504 50.6133 266.504 51.543V51.7891C266.504 52.7109 266.371 53.5664 266.105 54.3555C265.84 55.1367 265.449 55.8203 264.934 56.4062C264.426 56.9844 263.801 57.4336 263.059 57.7539C262.316 58.0742 261.465 58.2344 260.504 58.2344C259.543 58.2344 258.688 58.0742 257.938 57.7539C257.195 57.4336 256.566 56.9844 256.051 56.4062C255.543 55.8203 255.156 55.1367 254.891 54.3555C254.625 53.5664 254.492 52.7109 254.492 51.7891ZM257.867 51.543V51.7891C257.867 52.3203 257.914 52.8164 258.008 53.2773C258.102 53.7383 258.25 54.1445 258.453 54.4961C258.664 54.8398 258.938 55.1094 259.273 55.3047C259.609 55.5 260.02 55.5977 260.504 55.5977C260.973 55.5977 261.375 55.5 261.711 55.3047C262.047 55.1094 262.316 54.8398 262.52 54.4961C262.723 54.1445 262.871 53.7383 262.965 53.2773C263.066 52.8164 263.117 52.3203 263.117 51.7891V51.543C263.117 51.0273 263.066 50.543 262.965 50.0898C262.871 49.6289 262.719 49.2227 262.508 48.8711C262.305 48.5117 262.035 48.2305 261.699 48.0273C261.363 47.8242 260.957 47.7227 260.48 47.7227C260.004 47.7227 259.598 47.8242 259.262 48.0273C258.934 48.2305 258.664 48.5117 258.453 48.8711C258.25 49.2227 258.102 49.6289 258.008 50.0898C257.914 50.543 257.867 51.0273 257.867 51.543ZM271.883 48.0273V58H268.508V45.3203H271.672L271.883 48.0273ZM271.391 51.2148H270.477C270.477 50.2773 270.598 49.4336 270.84 48.6836C271.082 47.9258 271.422 47.2812 271.859 46.75C272.297 46.2109 272.816 45.8008 273.418 45.5195C274.027 45.2305 274.707 45.0859 275.457 45.0859C276.051 45.0859 276.594 45.1719 277.086 45.3438C277.578 45.5156 278 45.7891 278.352 46.1641C278.711 46.5391 278.984 47.0352 279.172 47.6523C279.367 48.2695 279.465 49.0234 279.465 49.9141V58H276.066V49.9023C276.066 49.3398 275.988 48.9023 275.832 48.5898C275.676 48.2773 275.445 48.0586 275.141 47.9336C274.844 47.8008 274.477 47.7344 274.039 47.7344C273.586 47.7344 273.191 47.8242 272.855 48.0039C272.527 48.1836 272.254 48.4336 272.035 48.7539C271.824 49.0664 271.664 49.4336 271.555 49.8555C271.445 50.2773 271.391 50.7305 271.391 51.2148Z" fill="#5B2E0F"/>
<path d="M115.994 98.708V104.641H99.5806V98.708H115.994ZM102.151 86.0078V118H94.439V86.0078H102.151ZM121.18 86.0078V118H113.489V86.0078H121.18ZM124.805 106.354V105.893C124.805 104.15 125.054 102.546 125.552 101.081C126.05 99.6016 126.783 98.3198 127.75 97.2358C128.716 96.1519 129.91 95.3096 131.331 94.709C132.752 94.0938 134.393 93.7861 136.253 93.7861C138.128 93.7861 139.776 94.0938 141.197 94.709C142.632 95.3096 143.833 96.1519 144.8 97.2358C145.767 98.3198 146.5 99.6016 146.998 101.081C147.496 102.546 147.745 104.15 147.745 105.893V106.354C147.745 108.083 147.496 109.687 146.998 111.167C146.5 112.631 145.767 113.913 144.8 115.012C143.833 116.096 142.64 116.938 141.219 117.539C139.798 118.139 138.157 118.439 136.297 118.439C134.437 118.439 132.789 118.139 131.353 117.539C129.917 116.938 128.716 116.096 127.75 115.012C126.783 113.913 126.05 112.631 125.552 111.167C125.054 109.687 124.805 108.083 124.805 106.354ZM132.21 105.893V106.354C132.21 107.248 132.276 108.083 132.408 108.859C132.54 109.636 132.759 110.317 133.067 110.903C133.375 111.474 133.792 111.921 134.319 112.243C134.847 112.565 135.506 112.727 136.297 112.727C137.073 112.727 137.718 112.565 138.23 112.243C138.758 111.921 139.175 111.474 139.483 110.903C139.791 110.317 140.01 109.636 140.142 108.859C140.274 108.083 140.34 107.248 140.34 106.354V105.893C140.34 105.029 140.274 104.216 140.142 103.454C140.01 102.678 139.791 101.997 139.483 101.411C139.175 100.81 138.758 100.341 138.23 100.004C137.703 99.6675 137.044 99.499 136.253 99.499C135.477 99.499 134.825 99.6675 134.297 100.004C133.785 100.341 133.375 100.81 133.067 101.411C132.759 101.997 132.54 102.678 132.408 103.454C132.276 104.216 132.21 105.029 132.21 105.893ZM158.27 110.925L162.664 94.2256H167.3L165.652 102.597L161.302 118H157.588L158.27 110.925ZM156.534 94.2256L159.258 110.793L159.566 118H155.062L149.437 94.2256H156.534ZM171.211 110.441L173.958 94.2256H181.055L175.474 118H170.97L171.211 110.441ZM167.828 94.2256L172.266 110.881L172.947 118H169.19L164.927 102.641L163.345 94.2256H167.828ZM209.466 86.0078V118H201.753V86.0078H209.466ZM219.09 86.0078V91.9624H192.349V86.0078H219.09ZM216.475 106.354V105.893C216.475 104.15 216.724 102.546 217.222 101.081C217.72 99.6016 218.453 98.3198 219.419 97.2358C220.386 96.1519 221.58 95.3096 223.001 94.709C224.422 94.0938 226.062 93.7861 227.923 93.7861C229.798 93.7861 231.446 94.0938 232.867 94.709C234.302 95.3096 235.503 96.1519 236.47 97.2358C237.437 98.3198 238.169 99.6016 238.667 101.081C239.166 102.546 239.415 104.15 239.415 105.893V106.354C239.415 108.083 239.166 109.687 238.667 111.167C238.169 112.631 237.437 113.913 236.47 115.012C235.503 116.096 234.31 116.938 232.889 117.539C231.468 118.139 229.827 118.439 227.967 118.439C226.106 118.439 224.458 118.139 223.023 117.539C221.587 116.938 220.386 116.096 219.419 115.012C218.453 113.913 217.72 112.631 217.222 111.167C216.724 109.687 216.475 108.083 216.475 106.354ZM223.88 105.893V106.354C223.88 107.248 223.946 108.083 224.078 108.859C224.209 109.636 224.429 110.317 224.737 110.903C225.044 111.474 225.462 111.921 225.989 112.243C226.517 112.565 227.176 112.727 227.967 112.727C228.743 112.727 229.388 112.565 229.9 112.243C230.428 111.921 230.845 111.474 231.153 110.903C231.46 110.317 231.68 109.636 231.812 108.859C231.944 108.083 232.01 107.248 232.01 106.354V105.893C232.01 105.029 231.944 104.216 231.812 103.454C231.68 102.678 231.46 101.997 231.153 101.411C230.845 100.81 230.428 100.341 229.9 100.004C229.373 99.6675 228.714 99.499 227.923 99.499C227.146 99.499 226.495 99.6675 225.967 100.004C225.455 100.341 225.044 100.81 224.737 101.411C224.429 101.997 224.209 102.678 224.078 103.454C223.946 104.216 223.88 105.029 223.88 105.893ZM254.268 86.0078H266.858C269.319 86.0078 271.458 86.374 273.274 87.1064C275.091 87.8389 276.49 88.9229 277.471 90.3584C278.467 91.7939 278.965 93.5664 278.965 95.6758C278.965 97.5068 278.68 99.0376 278.108 100.268C277.537 101.499 276.739 102.517 275.713 103.322C274.703 104.113 273.523 104.765 272.176 105.278L269.649 106.706H259.08L259.036 100.751H266.858C267.84 100.751 268.653 100.576 269.297 100.224C269.942 99.8726 270.425 99.3745 270.748 98.73C271.084 98.0708 271.253 97.2871 271.253 96.3789C271.253 95.4561 271.084 94.665 270.748 94.0059C270.411 93.3467 269.913 92.8413 269.253 92.4897C268.609 92.1382 267.811 91.9624 266.858 91.9624H261.98V118H254.268V86.0078ZM271.78 118L264.705 103.85L272.879 103.806L280.042 117.67V118H271.78ZM297.159 112.221V94.2256H304.585V118H297.642L297.159 112.221ZM297.862 107.387L299.795 107.343C299.795 108.94 299.605 110.419 299.224 111.782C298.843 113.129 298.279 114.301 297.532 115.297C296.8 116.293 295.892 117.07 294.808 117.626C293.738 118.168 292.5 118.439 291.094 118.439C289.922 118.439 288.846 118.278 287.864 117.956C286.897 117.619 286.062 117.099 285.359 116.396C284.656 115.678 284.107 114.763 283.711 113.649C283.331 112.521 283.14 111.174 283.14 109.606V94.2256H290.545V109.65C290.545 110.178 290.611 110.632 290.743 111.013C290.875 111.394 291.065 111.716 291.314 111.979C291.563 112.229 291.871 112.419 292.237 112.551C292.618 112.668 293.05 112.727 293.533 112.727C294.646 112.727 295.518 112.492 296.148 112.023C296.778 111.555 297.217 110.917 297.466 110.112C297.73 109.306 297.862 108.398 297.862 107.387ZM315.945 99.3013V118H308.541V94.2256H315.484L315.945 99.3013ZM315.066 105.3L313.331 105.344C313.331 103.527 313.55 101.909 313.99 100.488C314.429 99.0522 315.052 97.8364 315.857 96.8403C316.663 95.8442 317.623 95.0898 318.736 94.5771C319.864 94.0498 321.116 93.7861 322.493 93.7861C323.592 93.7861 324.595 93.9473 325.503 94.2695C326.426 94.5918 327.217 95.1118 327.876 95.8296C328.55 96.5474 329.063 97.4995 329.415 98.686C329.781 99.8579 329.964 101.308 329.964 103.037V118H322.515V103.015C322.515 102.062 322.383 101.337 322.12 100.839C321.856 100.327 321.475 99.9751 320.977 99.7847C320.479 99.5942 319.871 99.499 319.153 99.499C318.392 99.499 317.747 99.6455 317.22 99.9385C316.692 100.231 316.268 100.642 315.945 101.169C315.638 101.682 315.411 102.29 315.264 102.993C315.132 103.696 315.066 104.465 315.066 105.3ZM345.85 107.871H339.544C339.544 106.582 339.632 105.446 339.808 104.465C339.998 103.469 340.32 102.575 340.774 101.784C341.229 100.993 341.844 100.261 342.62 99.5869C343.309 99.0156 343.902 98.4663 344.4 97.939C344.898 97.4116 345.279 96.877 345.542 96.335C345.806 95.793 345.938 95.2144 345.938 94.5991C345.938 93.8374 345.828 93.2148 345.608 92.7314C345.403 92.248 345.088 91.8892 344.664 91.6548C344.253 91.4058 343.733 91.2812 343.104 91.2812C342.591 91.2812 342.107 91.4058 341.653 91.6548C341.214 91.9038 340.855 92.292 340.577 92.8193C340.298 93.332 340.145 94.0132 340.115 94.8628H332.667C332.71 92.6802 333.194 90.9077 334.117 89.5454C335.054 88.1685 336.299 87.165 337.852 86.5352C339.419 85.8906 341.17 85.5684 343.104 85.5684C345.242 85.5684 347.081 85.8979 348.619 86.5571C350.157 87.2163 351.336 88.1978 352.156 89.5015C352.977 90.7905 353.387 92.3799 353.387 94.2695C353.387 95.5293 353.145 96.6279 352.662 97.5654C352.193 98.4883 351.556 99.3525 350.75 100.158C349.959 100.949 349.073 101.799 348.091 102.707C347.242 103.454 346.663 104.216 346.355 104.992C346.048 105.754 345.879 106.713 345.85 107.871ZM338.643 114.55C338.643 113.496 339.024 112.617 339.786 111.914C340.547 111.196 341.536 110.837 342.752 110.837C343.968 110.837 344.957 111.196 345.718 111.914C346.48 112.617 346.861 113.496 346.861 114.55C346.861 115.605 346.48 116.491 345.718 117.209C344.957 117.912 343.968 118.264 342.752 118.264C341.536 118.264 340.547 117.912 339.786 117.209C339.024 116.491 338.643 115.605 338.643 114.55Z" fill="#424241"/>
<path d="M1363 15C1363 6.71573 1356.28 0 1348 0H1134V167H1348C1356.28 167 1363 160.284 1363 152V15Z" fill="#5B2E0F"/>
<path d="M1260.77 81.3079C1263.96 81.3079 1267.09 82.2553 1269.74 84.0303C1272.4 85.8053 1274.47 88.3282 1275.69 91.2799C1276.92 94.2316 1277.24 97.4796 1276.61 100.613C1275.99 103.747 1274.45 106.625 1272.19 108.884C1269.93 111.143 1267.05 112.682 1263.92 113.305C1260.79 113.928 1257.54 113.608 1254.59 112.386C1251.64 111.163 1249.11 109.093 1247.34 106.436C1245.56 103.78 1244.62 100.657 1244.62 97.4617C1244.62 93.1774 1246.32 89.0686 1249.35 86.0392C1252.38 83.0098 1256.48 81.3079 1260.77 81.3079ZM1260.77 75.9233C1256.51 75.9233 1252.35 77.1865 1248.8 79.5532C1245.26 81.9198 1242.5 85.2837 1240.87 89.2193C1239.24 93.1549 1238.81 97.4856 1239.64 101.664C1240.48 105.842 1242.53 109.679 1245.54 112.692C1248.55 115.704 1252.39 117.755 1256.57 118.586C1260.75 119.417 1265.08 118.991 1269.01 117.361C1272.95 115.73 1276.31 112.97 1278.68 109.428C1281.04 105.886 1282.31 101.722 1282.31 97.4617C1282.31 91.7493 1280.04 86.271 1276 82.2317C1271.96 78.1925 1266.48 75.9233 1260.77 75.9233Z" fill="#BA7F56"/>
<path d="M1274.23 49H1220.38C1218.96 49 1217.59 49.5673 1216.58 50.5771C1215.57 51.5869 1215 52.9565 1215 54.3846V108.231C1215 109.659 1215.57 111.028 1216.58 112.038C1217.59 113.048 1218.96 113.615 1220.38 113.615H1231.15V108.231H1220.38V70.5384H1279.62V54.3846C1279.62 52.9565 1279.05 51.5869 1278.04 50.5771C1277.03 49.5673 1275.66 49 1274.23 49ZM1220.38 65.1538V54.3846H1274.23V65.1538H1220.38Z" fill="#BA7F56"/>
<path d="M1255.38 89.3849V105.539L1268.85 97.4618L1255.38 89.3849Z" fill="#BA7F56"/>
</svg>
