<svg width="1363" height="301" viewBox="0 0 1363 301" fill="none" xmlns="http://www.w3.org/2000/svg">
<rect width="1363" height="301" rx="15" fill="#F0F0F0"/>
<path d="M0 15C0 6.71573 6.71573 0 15 0H37V301H15C6.71573 301 0 294.284 0 286V15Z" fill="#5B2E0F"/>
<path d="M104.407 104.898V144H94.981V104.898H104.407ZM119.607 121.173V128.424H101.722V121.173H119.607ZM121.138 104.898V112.176H101.722V104.898H121.138ZM122.911 129.767V129.203C122.911 127.072 123.215 125.112 123.824 123.321C124.432 121.513 125.328 119.946 126.509 118.622C127.691 117.297 129.15 116.267 130.887 115.533C132.623 114.781 134.629 114.405 136.902 114.405C139.194 114.405 141.208 114.781 142.945 115.533C144.699 116.267 146.167 117.297 147.349 118.622C148.531 119.946 149.426 121.513 150.035 123.321C150.643 125.112 150.948 127.072 150.948 129.203V129.767C150.948 131.879 150.643 133.84 150.035 135.648C149.426 137.438 148.531 139.005 147.349 140.348C146.167 141.673 144.708 142.702 142.972 143.436C141.235 144.17 139.23 144.537 136.956 144.537C134.682 144.537 132.668 144.17 130.914 143.436C129.159 142.702 127.691 141.673 126.509 140.348C125.328 139.005 124.432 137.438 123.824 135.648C123.215 133.84 122.911 131.879 122.911 129.767ZM131.961 129.203V129.767C131.961 130.859 132.042 131.879 132.203 132.828C132.364 133.777 132.632 134.61 133.008 135.326C133.384 136.024 133.895 136.57 134.539 136.964C135.184 137.358 135.989 137.555 136.956 137.555C137.905 137.555 138.693 137.358 139.319 136.964C139.964 136.57 140.474 136.024 140.85 135.326C141.226 134.61 141.495 133.777 141.656 132.828C141.817 131.879 141.897 130.859 141.897 129.767V129.203C141.897 128.146 141.817 127.153 141.656 126.222C141.495 125.273 141.226 124.44 140.85 123.724C140.474 122.99 139.964 122.417 139.319 122.005C138.675 121.594 137.869 121.388 136.902 121.388C135.953 121.388 135.157 121.594 134.512 122.005C133.886 122.417 133.384 122.99 133.008 123.724C132.632 124.44 132.364 125.273 132.203 126.222C132.042 127.153 131.961 128.146 131.961 129.203ZM164.107 122.14V144H155.057V114.942H163.516L164.107 122.14ZM172.701 114.728L172.54 123.133C172.181 123.097 171.698 123.053 171.089 122.999C170.481 122.945 169.97 122.918 169.559 122.918C168.502 122.918 167.589 123.044 166.819 123.294C166.067 123.527 165.441 123.885 164.939 124.369C164.456 124.834 164.098 125.425 163.865 126.141C163.65 126.857 163.552 127.69 163.57 128.639L161.932 127.564C161.932 125.613 162.12 123.84 162.496 122.247C162.889 120.636 163.444 119.248 164.161 118.084C164.877 116.903 165.745 115.999 166.766 115.372C167.786 114.728 168.932 114.405 170.203 114.405C170.651 114.405 171.089 114.432 171.519 114.486C171.967 114.54 172.361 114.62 172.701 114.728ZM192.466 114.942V121.227H174.957V114.942H192.466ZM178.636 107.718H187.686V134.52C187.686 135.29 187.776 135.89 187.955 136.319C188.134 136.731 188.438 137.027 188.868 137.206C189.315 137.367 189.906 137.447 190.64 137.447C191.159 137.447 191.589 137.438 191.929 137.42C192.269 137.385 192.592 137.34 192.896 137.286V143.758C192.126 144.009 191.32 144.197 190.479 144.322C189.638 144.465 188.742 144.537 187.793 144.537C185.86 144.537 184.204 144.233 182.825 143.624C181.465 143.015 180.426 142.057 179.71 140.75C178.994 139.444 178.636 137.743 178.636 135.648V107.718ZM213.038 136.937V114.942H222.115V144H213.628L213.038 136.937ZM213.897 131.029L216.26 130.975C216.26 132.927 216.028 134.735 215.562 136.4C215.097 138.047 214.407 139.479 213.494 140.697C212.599 141.914 211.489 142.863 210.164 143.543C208.857 144.206 207.344 144.537 205.625 144.537C204.193 144.537 202.877 144.34 201.678 143.946C200.496 143.535 199.476 142.899 198.616 142.04C197.757 141.162 197.085 140.043 196.602 138.683C196.137 137.304 195.904 135.657 195.904 133.741V114.942H204.954V133.795C204.954 134.439 205.035 134.994 205.196 135.46C205.357 135.925 205.59 136.319 205.894 136.642C206.198 136.946 206.574 137.179 207.022 137.34C207.487 137.483 208.016 137.555 208.606 137.555C209.967 137.555 211.032 137.268 211.802 136.695C212.572 136.122 213.109 135.344 213.414 134.359C213.736 133.374 213.897 132.264 213.897 131.029ZM235.999 121.146V144H226.949V114.942H235.435L235.999 121.146ZM234.925 128.478L232.803 128.531C232.803 126.311 233.072 124.333 233.609 122.596C234.146 120.842 234.907 119.356 235.892 118.138C236.876 116.921 238.049 115.999 239.41 115.372C240.788 114.728 242.319 114.405 244.002 114.405C245.345 114.405 246.571 114.602 247.681 114.996C248.809 115.39 249.776 116.026 250.582 116.903C251.405 117.78 252.032 118.944 252.461 120.394C252.909 121.826 253.133 123.599 253.133 125.711V144H244.029V125.685C244.029 124.521 243.868 123.635 243.545 123.026C243.223 122.399 242.758 121.97 242.149 121.737C241.54 121.504 240.797 121.388 239.92 121.388C238.989 121.388 238.201 121.567 237.557 121.925C236.912 122.283 236.393 122.784 235.999 123.429C235.623 124.055 235.346 124.798 235.167 125.658C235.005 126.517 234.925 127.457 234.925 128.478ZM275.127 136.937V114.942H284.205V144H275.718L275.127 136.937ZM275.987 131.029L278.35 130.975C278.35 132.927 278.117 134.735 277.652 136.4C277.186 138.047 276.497 139.479 275.584 140.697C274.689 141.914 273.579 142.863 272.254 143.543C270.947 144.206 269.434 144.537 267.715 144.537C266.283 144.537 264.967 144.34 263.768 143.946C262.586 143.535 261.565 142.899 260.706 142.04C259.847 141.162 259.175 140.043 258.692 138.683C258.226 137.304 257.994 135.657 257.994 133.741V114.942H267.044V133.795C267.044 134.439 267.125 134.994 267.286 135.46C267.447 135.925 267.68 136.319 267.984 136.642C268.288 136.946 268.664 137.179 269.112 137.34C269.577 137.483 270.105 137.555 270.696 137.555C272.057 137.555 273.122 137.268 273.892 136.695C274.662 136.122 275.199 135.344 275.503 134.359C275.826 133.374 275.987 132.264 275.987 131.029ZM304.427 135.836C304.427 135.335 304.257 134.905 303.917 134.547C303.594 134.171 303.021 133.831 302.198 133.526C301.374 133.204 300.219 132.882 298.733 132.56C297.319 132.255 295.985 131.852 294.732 131.351C293.497 130.85 292.413 130.241 291.482 129.525C290.551 128.809 289.817 127.958 289.28 126.974C288.761 125.989 288.501 124.861 288.501 123.59C288.501 122.354 288.761 121.191 289.28 120.099C289.817 118.989 290.596 118.013 291.617 117.171C292.655 116.312 293.917 115.641 295.403 115.157C296.889 114.656 298.581 114.405 300.479 114.405C303.093 114.405 305.349 114.808 307.247 115.614C309.144 116.402 310.604 117.512 311.624 118.944C312.662 120.358 313.182 121.996 313.182 123.858H304.131C304.131 123.124 304.006 122.498 303.755 121.979C303.523 121.459 303.138 121.065 302.601 120.797C302.063 120.51 301.347 120.367 300.452 120.367C299.826 120.367 299.253 120.484 298.733 120.716C298.232 120.949 297.829 121.271 297.525 121.683C297.221 122.095 297.068 122.578 297.068 123.133C297.068 123.527 297.158 123.885 297.337 124.208C297.534 124.512 297.829 124.798 298.223 125.067C298.617 125.318 299.118 125.55 299.727 125.765C300.336 125.962 301.07 126.141 301.929 126.302C303.881 126.66 305.707 127.171 307.408 127.833C309.109 128.495 310.487 129.435 311.543 130.653C312.618 131.87 313.155 133.508 313.155 135.567C313.155 136.856 312.859 138.047 312.269 139.139C311.678 140.213 310.827 141.162 309.717 141.986C308.607 142.792 307.273 143.418 305.716 143.866C304.158 144.313 302.404 144.537 300.452 144.537C297.677 144.537 295.332 144.045 293.416 143.06C291.5 142.057 290.05 140.804 289.065 139.3C288.099 137.778 287.615 136.239 287.615 134.681H296.048C296.084 135.576 296.299 136.31 296.692 136.883C297.104 137.456 297.65 137.877 298.331 138.146C299.011 138.414 299.799 138.548 300.694 138.548C301.517 138.548 302.198 138.432 302.735 138.199C303.29 137.966 303.711 137.653 303.997 137.259C304.284 136.847 304.427 136.373 304.427 135.836ZM346.321 134.789L354.458 104.898H365.013L351.827 144H345.005L346.321 134.789ZM338.936 104.898L347.073 134.789L348.443 144H341.541L328.436 104.898H338.936ZM377.017 114.942V144H367.94V114.942H377.017ZM367.403 107.45C367.403 106.161 367.868 105.104 368.799 104.281C369.73 103.457 370.939 103.045 372.425 103.045C373.911 103.045 375.119 103.457 376.05 104.281C376.981 105.104 377.447 106.161 377.447 107.45C377.447 108.739 376.981 109.795 376.05 110.619C375.119 111.442 373.911 111.854 372.425 111.854C370.939 111.854 369.73 111.442 368.799 110.619C367.868 109.795 367.403 108.739 367.403 107.45ZM397.83 135.836C397.83 135.335 397.66 134.905 397.32 134.547C396.998 134.171 396.425 133.831 395.601 133.526C394.778 133.204 393.623 132.882 392.137 132.56C390.722 132.255 389.389 131.852 388.135 131.351C386.9 130.85 385.817 130.241 384.886 129.525C383.955 128.809 383.221 127.958 382.684 126.974C382.164 125.989 381.905 124.861 381.905 123.59C381.905 122.354 382.164 121.191 382.684 120.099C383.221 118.989 384 118.013 385.02 117.171C386.058 116.312 387.321 115.641 388.807 115.157C390.293 114.656 391.985 114.405 393.882 114.405C396.496 114.405 398.752 114.808 400.65 115.614C402.548 116.402 404.007 117.512 405.027 118.944C406.066 120.358 406.585 121.996 406.585 123.858H397.535C397.535 123.124 397.409 122.498 397.159 121.979C396.926 121.459 396.541 121.065 396.004 120.797C395.467 120.51 394.751 120.367 393.855 120.367C393.229 120.367 392.656 120.484 392.137 120.716C391.635 120.949 391.233 121.271 390.928 121.683C390.624 122.095 390.472 122.578 390.472 123.133C390.472 123.527 390.561 123.885 390.74 124.208C390.937 124.512 391.233 124.798 391.626 125.067C392.02 125.318 392.522 125.55 393.13 125.765C393.739 125.962 394.473 126.141 395.333 126.302C397.284 126.66 399.11 127.171 400.811 127.833C402.512 128.495 403.89 129.435 404.947 130.653C406.021 131.87 406.558 133.508 406.558 135.567C406.558 136.856 406.263 138.047 405.672 139.139C405.081 140.213 404.231 141.162 403.121 141.986C402.011 142.792 400.677 143.418 399.119 143.866C397.562 144.313 395.807 144.537 393.855 144.537C391.08 144.537 388.735 144.045 386.819 143.06C384.904 142.057 383.453 140.804 382.469 139.3C381.502 137.778 381.019 136.239 381.019 134.681H389.451C389.487 135.576 389.702 136.31 390.096 136.883C390.507 137.456 391.054 137.877 391.734 138.146C392.414 138.414 393.202 138.548 394.097 138.548C394.921 138.548 395.601 138.432 396.138 138.199C396.693 137.966 397.114 137.653 397.4 137.259C397.687 136.847 397.83 136.373 397.83 135.836ZM420.362 114.942V144H411.285V114.942H420.362ZM410.748 107.45C410.748 106.161 411.213 105.104 412.144 104.281C413.075 103.457 414.284 103.045 415.77 103.045C417.256 103.045 418.464 103.457 419.395 104.281C420.326 105.104 420.792 106.161 420.792 107.45C420.792 108.739 420.326 109.795 419.395 110.619C418.464 111.442 417.256 111.854 415.77 111.854C414.284 111.854 413.075 111.442 412.144 110.619C411.213 109.795 410.748 108.739 410.748 107.45ZM424.82 129.767V129.203C424.82 127.072 425.124 125.112 425.733 123.321C426.342 121.513 427.237 119.946 428.418 118.622C429.6 117.297 431.059 116.267 432.796 115.533C434.533 114.781 436.538 114.405 438.812 114.405C441.103 114.405 443.117 114.781 444.854 115.533C446.609 116.267 448.077 117.297 449.258 118.622C450.44 119.946 451.335 121.513 451.944 123.321C452.553 125.112 452.857 127.072 452.857 129.203V129.767C452.857 131.879 452.553 133.84 451.944 135.648C451.335 137.438 450.44 139.005 449.258 140.348C448.077 141.673 446.618 142.702 444.881 143.436C443.144 144.17 441.139 144.537 438.865 144.537C436.591 144.537 434.577 144.17 432.823 143.436C431.068 142.702 429.6 141.673 428.418 140.348C427.237 139.005 426.342 137.438 425.733 135.648C425.124 133.84 424.82 131.879 424.82 129.767ZM433.87 129.203V129.767C433.87 130.859 433.951 131.879 434.112 132.828C434.273 133.777 434.542 134.61 434.917 135.326C435.293 136.024 435.804 136.57 436.448 136.964C437.093 137.358 437.898 137.555 438.865 137.555C439.814 137.555 440.602 137.358 441.229 136.964C441.873 136.57 442.383 136.024 442.759 135.326C443.135 134.61 443.404 133.777 443.565 132.828C443.726 131.879 443.807 130.859 443.807 129.767V129.203C443.807 128.146 443.726 127.153 443.565 126.222C443.404 125.273 443.135 124.44 442.759 123.724C442.383 122.99 441.873 122.417 441.229 122.005C440.584 121.594 439.778 121.388 438.812 121.388C437.863 121.388 437.066 121.594 436.421 122.005C435.795 122.417 435.293 122.99 434.917 123.724C434.542 124.44 434.273 125.273 434.112 126.222C433.951 127.153 433.87 128.146 433.87 129.203ZM465.774 121.146V144H456.724V114.942H465.21L465.774 121.146ZM464.7 128.478L462.579 128.531C462.579 126.311 462.847 124.333 463.384 122.596C463.921 120.842 464.682 119.356 465.667 118.138C466.652 116.921 467.824 115.999 469.185 115.372C470.564 114.728 472.094 114.405 473.777 114.405C475.12 114.405 476.347 114.602 477.457 114.996C478.584 115.39 479.551 116.026 480.357 116.903C481.181 117.78 481.807 118.944 482.237 120.394C482.684 121.826 482.908 123.599 482.908 125.711V144H473.804V125.685C473.804 124.521 473.643 123.635 473.321 123.026C472.999 122.399 472.533 121.97 471.924 121.737C471.316 121.504 470.573 121.388 469.695 121.388C468.764 121.388 467.977 121.567 467.332 121.925C466.688 122.283 466.168 122.784 465.774 123.429C465.398 124.055 465.121 124.798 464.942 125.658C464.781 126.517 464.7 127.457 464.7 128.478Z" fill="black"/>
<path d="M104.288 72.3608V55.1172H109.397V72.3608C109.397 74.0243 109.033 75.4541 108.304 76.6504C107.575 77.8353 106.578 78.7467 105.313 79.3848C104.06 80.0228 102.647 80.3418 101.075 80.3418C99.4455 80.3418 98.0042 80.0684 96.751 79.5215C95.4977 78.9746 94.5122 78.1372 93.7944 77.0093C93.0767 75.87 92.7178 74.4287 92.7178 72.6855H97.8618C97.8618 73.597 97.9871 74.3205 98.2378 74.856C98.4998 75.3914 98.8701 75.7731 99.3486 76.001C99.8271 76.2288 100.403 76.3428 101.075 76.3428C101.724 76.3428 102.288 76.189 102.767 75.8813C103.245 75.5737 103.615 75.1237 103.877 74.5312C104.151 73.9388 104.288 73.2153 104.288 72.3608ZM112.679 70.9424V70.5835C112.679 69.2277 112.872 67.9801 113.26 66.8408C113.647 65.6901 114.211 64.6932 114.952 63.8501C115.692 63.007 116.604 62.3519 117.686 61.8848C118.768 61.4062 120.01 61.167 121.412 61.167C122.813 61.167 124.061 61.4062 125.154 61.8848C126.248 62.3519 127.165 63.007 127.906 63.8501C128.658 64.6932 129.227 65.6901 129.615 66.8408C130.002 67.9801 130.196 69.2277 130.196 70.5835V70.9424C130.196 72.2868 130.002 73.5343 129.615 74.6851C129.227 75.8244 128.658 76.8213 127.906 77.6758C127.165 78.5189 126.254 79.174 125.171 79.6411C124.089 80.1082 122.847 80.3418 121.446 80.3418C120.044 80.3418 118.797 80.1082 117.703 79.6411C116.621 79.174 115.704 78.5189 114.952 77.6758C114.211 76.8213 113.647 75.8244 113.26 74.6851C112.872 73.5343 112.679 72.2868 112.679 70.9424ZM117.601 70.5835V70.9424C117.601 71.7171 117.669 72.4406 117.806 73.1128C117.942 73.785 118.159 74.3774 118.455 74.8901C118.763 75.3914 119.161 75.7845 119.651 76.0693C120.141 76.3542 120.739 76.4966 121.446 76.4966C122.129 76.4966 122.716 76.3542 123.206 76.0693C123.696 75.7845 124.089 75.3914 124.385 74.8901C124.681 74.3774 124.898 73.785 125.035 73.1128C125.183 72.4406 125.257 71.7171 125.257 70.9424V70.5835C125.257 69.8315 125.183 69.1252 125.035 68.4644C124.898 67.7922 124.676 67.1997 124.368 66.687C124.072 66.1629 123.679 65.7528 123.189 65.4565C122.699 65.1603 122.107 65.0122 121.412 65.0122C120.717 65.0122 120.124 65.1603 119.634 65.4565C119.156 65.7528 118.763 66.1629 118.455 66.687C118.159 67.1997 117.942 67.7922 117.806 68.4644C117.669 69.1252 117.601 69.8315 117.601 70.5835ZM143.218 74.8901C143.218 74.5369 143.116 74.2179 142.911 73.9331C142.706 73.6483 142.324 73.3862 141.766 73.147C141.219 72.8963 140.427 72.6685 139.39 72.4634C138.456 72.2583 137.584 72.002 136.775 71.6943C135.978 71.3753 135.283 70.9937 134.69 70.5493C134.109 70.105 133.654 69.5809 133.323 68.9771C132.993 68.3618 132.828 67.6611 132.828 66.875C132.828 66.1003 132.993 65.3711 133.323 64.6875C133.665 64.0039 134.149 63.4001 134.776 62.876C135.414 62.3405 136.189 61.9246 137.1 61.6284C138.023 61.3208 139.06 61.167 140.21 61.167C141.817 61.167 143.195 61.4233 144.346 61.936C145.508 62.4487 146.397 63.1551 147.012 64.0552C147.639 64.9438 147.952 65.9578 147.952 67.0972H143.03C143.03 66.6187 142.928 66.1914 142.723 65.8154C142.529 65.4281 142.221 65.1261 141.8 64.9097C141.39 64.6818 140.854 64.5679 140.193 64.5679C139.646 64.5679 139.174 64.6647 138.775 64.8584C138.376 65.0407 138.069 65.2913 137.852 65.6104C137.647 65.918 137.544 66.2598 137.544 66.6357C137.544 66.9206 137.601 67.1769 137.715 67.4048C137.841 67.6213 138.04 67.8206 138.313 68.0029C138.587 68.1852 138.94 68.3561 139.373 68.5156C139.817 68.6637 140.364 68.8005 141.014 68.9258C142.347 69.1992 143.537 69.5581 144.585 70.0024C145.634 70.4354 146.465 71.0278 147.081 71.7798C147.696 72.5203 148.003 73.4945 148.003 74.7021C148.003 75.5225 147.821 76.2744 147.457 76.958C147.092 77.6416 146.568 78.2397 145.884 78.7524C145.201 79.2537 144.38 79.6468 143.423 79.9316C142.478 80.2051 141.412 80.3418 140.228 80.3418C138.507 80.3418 137.049 80.0342 135.853 79.4189C134.668 78.8037 133.768 78.0233 133.152 77.0776C132.549 76.1206 132.247 75.1408 132.247 74.1382H136.912C136.935 74.8104 137.106 75.3516 137.425 75.7617C137.755 76.1719 138.171 76.4681 138.672 76.6504C139.185 76.8327 139.738 76.9238 140.33 76.9238C140.968 76.9238 141.498 76.8384 141.919 76.6675C142.341 76.4852 142.66 76.2459 142.876 75.9497C143.104 75.6421 143.218 75.2889 143.218 74.8901ZM159.71 80.3418C158.274 80.3418 156.987 80.1139 155.848 79.6582C154.708 79.1911 153.74 78.5474 152.942 77.7271C152.156 76.9067 151.552 75.9554 151.131 74.873C150.709 73.7793 150.499 72.6172 150.499 71.3867V70.7031C150.499 69.3018 150.698 68.02 151.097 66.8579C151.495 65.6958 152.065 64.6875 152.806 63.833C153.558 62.9785 154.469 62.3234 155.54 61.8677C156.611 61.4006 157.819 61.167 159.163 61.167C160.473 61.167 161.635 61.3835 162.649 61.8164C163.663 62.2493 164.512 62.8646 165.196 63.6621C165.891 64.4596 166.415 65.4167 166.768 66.5332C167.121 67.6383 167.298 68.8688 167.298 70.2246V72.2754H152.601V68.9941H162.461V68.6182C162.461 67.9346 162.336 67.325 162.085 66.7896C161.846 66.2427 161.482 65.8097 160.992 65.4907C160.502 65.1717 159.875 65.0122 159.112 65.0122C158.462 65.0122 157.904 65.1546 157.437 65.4395C156.97 65.7243 156.588 66.123 156.292 66.6357C156.007 67.1484 155.791 67.7523 155.643 68.4473C155.506 69.1309 155.438 69.8828 155.438 70.7031V71.3867C155.438 72.1273 155.54 72.8109 155.745 73.4375C155.962 74.0641 156.264 74.6053 156.651 75.061C157.05 75.5168 157.528 75.87 158.086 76.1206C158.656 76.3713 159.3 76.4966 160.018 76.4966C160.906 76.4966 161.732 76.3257 162.496 75.9839C163.27 75.6307 163.937 75.1009 164.495 74.3945L166.888 76.9922C166.5 77.5505 165.971 78.0859 165.298 78.5986C164.638 79.1113 163.84 79.5329 162.906 79.8633C161.972 80.1823 160.906 80.3418 159.71 80.3418ZM175.022 65.0635V87.1094H170.101V61.5088H174.664L175.022 65.0635ZM186.729 70.5493V70.9082C186.729 72.2526 186.569 73.5002 186.25 74.6509C185.943 75.8016 185.487 76.8042 184.883 77.6587C184.279 78.5018 183.528 79.1626 182.627 79.6411C181.739 80.1082 180.713 80.3418 179.551 80.3418C178.423 80.3418 177.444 80.1139 176.612 79.6582C175.78 79.2025 175.079 78.5645 174.51 77.7441C173.951 76.9124 173.501 75.9497 173.16 74.856C172.818 73.7622 172.556 72.5887 172.374 71.3354V70.3955C172.556 69.0511 172.818 67.8206 173.16 66.7041C173.501 65.5762 173.951 64.6021 174.51 63.7817C175.079 62.95 175.774 62.3063 176.595 61.8506C177.426 61.3949 178.401 61.167 179.517 61.167C180.691 61.167 181.722 61.3892 182.61 61.8335C183.51 62.2778 184.262 62.9159 184.866 63.7476C185.481 64.5793 185.943 65.5705 186.25 66.7212C186.569 67.8719 186.729 69.1479 186.729 70.5493ZM181.79 70.9082V70.5493C181.79 69.7632 181.722 69.0397 181.585 68.3789C181.46 67.7067 181.255 67.12 180.97 66.6187C180.696 66.1174 180.332 65.73 179.876 65.4565C179.432 65.1717 178.89 65.0293 178.252 65.0293C177.58 65.0293 177.005 65.1375 176.526 65.354C176.059 65.5705 175.678 65.8838 175.381 66.2939C175.085 66.7041 174.863 67.194 174.715 67.7637C174.567 68.3333 174.476 68.9771 174.441 69.6948V72.0703C174.498 72.9134 174.658 73.6711 174.92 74.3433C175.182 75.0041 175.586 75.5282 176.133 75.9155C176.68 76.3029 177.398 76.4966 178.287 76.4966C178.936 76.4966 179.483 76.3542 179.927 76.0693C180.372 75.7731 180.73 75.3687 181.004 74.856C181.289 74.3433 181.488 73.7508 181.602 73.0786C181.727 72.4064 181.79 71.6829 181.79 70.9082ZM194.59 53.75V80H189.668V53.75H194.59ZM193.89 70.105H192.54C192.551 68.8175 192.722 67.6326 193.052 66.5503C193.383 65.4565 193.855 64.5109 194.471 63.7134C195.086 62.9045 195.821 62.2778 196.675 61.8335C197.541 61.3892 198.498 61.167 199.546 61.167C200.458 61.167 201.284 61.298 202.024 61.5601C202.776 61.8107 203.42 62.2209 203.956 62.7905C204.502 63.3488 204.924 64.0837 205.22 64.9951C205.516 65.9066 205.665 67.0117 205.665 68.3105V80H200.708V68.2764C200.708 67.4561 200.589 66.8123 200.35 66.3452C200.122 65.8667 199.786 65.5306 199.341 65.3369C198.908 65.1318 198.373 65.0293 197.735 65.0293C197.028 65.0293 196.425 65.1603 195.923 65.4224C195.433 65.6844 195.04 66.049 194.744 66.5161C194.448 66.9718 194.231 67.5073 194.095 68.1226C193.958 68.7378 193.89 69.3986 193.89 70.105ZM228.633 55.1172V80H223.523V55.1172H228.633ZM236.29 55.1172V59.1333H215.987V55.1172H236.29ZM246.287 75.8301V67.5928C246.287 67.0003 246.19 66.4933 245.997 66.0718C245.803 65.6388 245.501 65.3027 245.091 65.0635C244.692 64.8242 244.174 64.7046 243.536 64.7046C242.989 64.7046 242.516 64.8014 242.117 64.9951C241.718 65.1774 241.411 65.4451 241.194 65.7983C240.978 66.1401 240.87 66.5446 240.87 67.0117H235.948C235.948 66.2256 236.13 65.4793 236.495 64.7729C236.859 64.0666 237.389 63.4456 238.084 62.9102C238.779 62.3633 239.605 61.936 240.562 61.6284C241.53 61.3208 242.613 61.167 243.809 61.167C245.245 61.167 246.521 61.4062 247.637 61.8848C248.754 62.3633 249.631 63.0811 250.269 64.0381C250.918 64.9951 251.243 66.1914 251.243 67.627V75.5396C251.243 76.5535 251.306 77.3853 251.431 78.0347C251.556 78.6727 251.739 79.231 251.978 79.7095V80H247.005C246.766 79.4987 246.583 78.8721 246.458 78.1201C246.344 77.3568 246.287 76.5934 246.287 75.8301ZM246.937 68.7378L246.971 71.5234H244.219C243.57 71.5234 243.006 71.5975 242.527 71.7456C242.049 71.8937 241.656 72.1045 241.348 72.3779C241.041 72.64 240.813 72.9476 240.665 73.3008C240.528 73.654 240.459 74.0413 240.459 74.4629C240.459 74.8844 240.556 75.2661 240.75 75.6079C240.944 75.9383 241.223 76.2004 241.587 76.394C241.952 76.5763 242.379 76.6675 242.869 76.6675C243.61 76.6675 244.253 76.5194 244.8 76.2231C245.347 75.9269 245.769 75.5623 246.065 75.1294C246.373 74.6965 246.532 74.2863 246.543 73.8989L247.842 75.9839C247.66 76.451 247.409 76.9352 247.09 77.4365C246.783 77.9378 246.39 78.4106 245.911 78.855C245.433 79.2879 244.857 79.6468 244.185 79.9316C243.513 80.2051 242.715 80.3418 241.792 80.3418C240.619 80.3418 239.554 80.1082 238.597 79.6411C237.651 79.1626 236.899 78.5075 236.341 77.6758C235.794 76.8327 235.521 75.8757 235.521 74.8047C235.521 73.8363 235.703 72.9761 236.067 72.2241C236.432 71.4722 236.967 70.8398 237.674 70.3271C238.392 69.8031 239.286 69.41 240.357 69.1479C241.428 68.8745 242.67 68.7378 244.083 68.7378H246.937ZM259.856 65.4565V80H254.935V61.5088H259.549L259.856 65.4565ZM259.139 70.105H257.806C257.806 68.7378 257.982 67.5073 258.335 66.4136C258.689 65.3084 259.184 64.3685 259.822 63.5938C260.46 62.8076 261.218 62.2095 262.095 61.7993C262.984 61.3778 263.975 61.167 265.069 61.167C265.935 61.167 266.727 61.2923 267.444 61.543C268.162 61.7936 268.777 62.1924 269.29 62.7393C269.814 63.2861 270.213 64.0096 270.486 64.9097C270.771 65.8097 270.914 66.9092 270.914 68.208V80H265.958V68.1909C265.958 67.3706 265.844 66.7326 265.616 66.2769C265.388 65.8211 265.052 65.5021 264.607 65.3198C264.174 65.1261 263.639 65.0293 263.001 65.0293C262.34 65.0293 261.765 65.1603 261.275 65.4224C260.796 65.6844 260.398 66.049 260.079 66.5161C259.771 66.9718 259.537 67.5073 259.378 68.1226C259.218 68.7378 259.139 69.3986 259.139 70.105ZM279.476 65.4565V80H274.554V61.5088H279.168L279.476 65.4565ZM278.758 70.105H277.425C277.425 68.7378 277.601 67.5073 277.955 66.4136C278.308 65.3084 278.803 64.3685 279.441 63.5938C280.079 62.8076 280.837 62.2095 281.714 61.7993C282.603 61.3778 283.594 61.167 284.688 61.167C285.554 61.167 286.346 61.2923 287.063 61.543C287.781 61.7936 288.396 62.1924 288.909 62.7393C289.433 63.2861 289.832 64.0096 290.105 64.9097C290.39 65.8097 290.533 66.9092 290.533 68.208V80H285.577V68.1909C285.577 67.3706 285.463 66.7326 285.235 66.2769C285.007 65.8211 284.671 65.5021 284.227 65.3198C283.794 65.1261 283.258 65.0293 282.62 65.0293C281.959 65.0293 281.384 65.1603 280.894 65.4224C280.416 65.6844 280.017 66.049 279.698 66.5161C279.39 66.9718 279.157 67.5073 278.997 68.1226C278.838 68.7378 278.758 69.3986 278.758 70.105ZM293.489 70.9424V70.5835C293.489 69.2277 293.683 67.9801 294.07 66.8408C294.458 65.6901 295.022 64.6932 295.762 63.8501C296.503 63.007 297.414 62.3519 298.497 61.8848C299.579 61.4062 300.821 61.167 302.222 61.167C303.624 61.167 304.871 61.4062 305.965 61.8848C307.059 62.3519 307.976 63.007 308.716 63.8501C309.468 64.6932 310.038 65.6901 310.425 66.8408C310.813 67.9801 311.006 69.2277 311.006 70.5835V70.9424C311.006 72.2868 310.813 73.5343 310.425 74.6851C310.038 75.8244 309.468 76.8213 308.716 77.6758C307.976 78.5189 307.064 79.174 305.982 79.6411C304.9 80.1082 303.658 80.3418 302.256 80.3418C300.855 80.3418 299.607 80.1082 298.514 79.6411C297.431 79.174 296.514 78.5189 295.762 77.6758C295.022 76.8213 294.458 75.8244 294.07 74.6851C293.683 73.5343 293.489 72.2868 293.489 70.9424ZM298.411 70.5835V70.9424C298.411 71.7171 298.479 72.4406 298.616 73.1128C298.753 73.785 298.969 74.3774 299.266 74.8901C299.573 75.3914 299.972 75.7845 300.462 76.0693C300.952 76.3542 301.55 76.4966 302.256 76.4966C302.94 76.4966 303.527 76.3542 304.017 76.0693C304.507 75.7845 304.9 75.3914 305.196 74.8901C305.492 74.3774 305.708 73.785 305.845 73.1128C305.993 72.4406 306.067 71.7171 306.067 70.9424V70.5835C306.067 69.8315 305.993 69.1252 305.845 68.4644C305.708 67.7922 305.486 67.1997 305.179 66.687C304.882 66.1629 304.489 65.7528 304 65.4565C303.51 65.1603 302.917 65.0122 302.222 65.0122C301.527 65.0122 300.935 65.1603 300.445 65.4565C299.966 65.7528 299.573 66.1629 299.266 66.687C298.969 67.1997 298.753 67.7922 298.616 68.4644C298.479 69.1252 298.411 69.8315 298.411 70.5835ZM324.969 75.5737V61.5088H329.891V80H325.259L324.969 75.5737ZM325.516 71.7798L326.968 71.7456C326.968 72.9761 326.826 74.1211 326.541 75.1807C326.256 76.2288 325.829 77.1403 325.259 77.915C324.69 78.6784 323.972 79.2765 323.106 79.7095C322.24 80.131 321.22 80.3418 320.047 80.3418C319.147 80.3418 318.315 80.2165 317.552 79.9658C316.8 79.7038 316.15 79.2993 315.604 78.7524C315.068 78.1942 314.646 77.4821 314.339 76.6162C314.043 75.7389 313.895 74.6851 313.895 73.4546V61.5088H318.816V73.4888C318.816 74.0356 318.879 74.4971 319.004 74.873C319.141 75.249 319.329 75.5566 319.568 75.7959C319.808 76.0352 320.087 76.2061 320.406 76.3086C320.736 76.4111 321.101 76.4624 321.5 76.4624C322.514 76.4624 323.311 76.2573 323.892 75.8472C324.485 75.437 324.9 74.8787 325.14 74.1724C325.39 73.4546 325.516 72.6571 325.516 71.7798ZM338.572 65.542V80H333.65V61.5088H338.282L338.572 65.542ZM344.144 61.3892L344.058 65.9521C343.819 65.918 343.528 65.8895 343.187 65.8667C342.856 65.8325 342.554 65.8154 342.281 65.8154C341.586 65.8154 340.982 65.9066 340.469 66.0889C339.968 66.2598 339.546 66.5161 339.205 66.8579C338.874 67.1997 338.624 67.6156 338.453 68.1055C338.293 68.5954 338.202 69.1536 338.179 69.7803L337.188 69.4727C337.188 68.2764 337.308 67.1769 337.547 66.1743C337.786 65.1603 338.134 64.2773 338.589 63.5254C339.056 62.7734 339.626 62.1924 340.298 61.7822C340.971 61.3721 341.74 61.167 342.605 61.167C342.879 61.167 343.158 61.1898 343.443 61.2354C343.728 61.2695 343.961 61.3208 344.144 61.3892ZM352.261 77.915L357.166 61.5088H362.447L355.013 82.7856C354.853 83.2528 354.637 83.7541 354.363 84.2896C354.101 84.825 353.742 85.332 353.287 85.8105C352.842 86.3005 352.278 86.6992 351.595 87.0068C350.923 87.3145 350.097 87.4683 349.117 87.4683C348.65 87.4683 348.268 87.4398 347.972 87.3828C347.675 87.3258 347.322 87.2461 346.912 87.1436V83.5376C347.037 83.5376 347.168 83.5376 347.305 83.5376C347.442 83.549 347.573 83.5547 347.698 83.5547C348.348 83.5547 348.877 83.4806 349.288 83.3325C349.698 83.1844 350.028 82.9565 350.279 82.6489C350.529 82.3527 350.729 81.9653 350.877 81.4868L352.261 77.915ZM350.21 61.5088L354.227 74.9072L354.927 80.1196L351.578 80.4785L344.93 61.5088H350.21Z" fill="#888888"/>
<rect x="92" y="181" width="1179" height="80" rx="13.3333" fill="#CCCCCC"/>
<rect x="107" y="196.333" width="208" height="49.3333" rx="4.66667" fill="#888888" stroke="#888888" stroke-width="4"/>
<path d="M171.823 213.167H177.792C178.958 213.167 179.972 213.34 180.833 213.687C181.694 214.035 182.358 214.549 182.823 215.229C183.295 215.91 183.531 216.75 183.531 217.75C183.531 218.618 183.396 219.344 183.125 219.927C182.854 220.51 182.476 220.993 181.99 221.375C181.51 221.75 180.951 222.059 180.312 222.302L179.115 222.979H174.104L174.083 220.156H177.792C178.257 220.156 178.642 220.073 178.948 219.906C179.253 219.74 179.483 219.503 179.635 219.198C179.795 218.885 179.875 218.514 179.875 218.083C179.875 217.646 179.795 217.271 179.635 216.958C179.476 216.646 179.24 216.406 178.927 216.24C178.622 216.073 178.243 215.99 177.792 215.99H175.479V228.333H171.823V213.167ZM180.125 228.333L176.771 221.625L180.646 221.604L184.042 228.177V228.333H180.125ZM191.031 228.542C190.115 228.542 189.295 228.399 188.573 228.115C187.851 227.823 187.24 227.424 186.74 226.917C186.247 226.41 185.868 225.826 185.604 225.167C185.347 224.507 185.219 223.809 185.219 223.073V222.677C185.219 221.851 185.333 221.087 185.562 220.385C185.792 219.677 186.132 219.059 186.583 218.531C187.035 218.003 187.601 217.594 188.281 217.302C188.962 217.003 189.753 216.854 190.656 216.854C191.455 216.854 192.17 216.983 192.802 217.24C193.434 217.497 193.969 217.865 194.406 218.344C194.851 218.823 195.187 219.403 195.417 220.083C195.653 220.764 195.771 221.528 195.771 222.375V223.802H186.562V221.604H192.344V221.333C192.351 220.958 192.285 220.639 192.146 220.375C192.014 220.111 191.819 219.91 191.562 219.771C191.306 219.632 190.993 219.562 190.625 219.562C190.243 219.562 189.927 219.646 189.677 219.812C189.434 219.979 189.243 220.208 189.104 220.5C188.972 220.785 188.878 221.115 188.823 221.49C188.767 221.865 188.74 222.26 188.74 222.677V223.073C188.74 223.49 188.795 223.868 188.906 224.208C189.024 224.549 189.191 224.84 189.406 225.083C189.628 225.319 189.892 225.503 190.198 225.635C190.51 225.767 190.865 225.833 191.26 225.833C191.74 225.833 192.212 225.743 192.677 225.562C193.142 225.382 193.542 225.083 193.875 224.667L195.469 226.562C195.24 226.889 194.913 227.205 194.49 227.51C194.073 227.816 193.573 228.066 192.99 228.26C192.406 228.448 191.753 228.542 191.031 228.542ZM203.052 225.5V220.854C203.052 220.535 203.007 220.26 202.917 220.031C202.826 219.802 202.684 219.625 202.49 219.5C202.295 219.368 202.035 219.302 201.708 219.302C201.444 219.302 201.219 219.347 201.031 219.437C200.844 219.528 200.701 219.663 200.604 219.844C200.507 220.024 200.458 220.253 200.458 220.531H196.948C196.948 220.01 197.062 219.528 197.292 219.083C197.528 218.632 197.861 218.24 198.292 217.906C198.729 217.573 199.25 217.316 199.854 217.135C200.465 216.948 201.146 216.854 201.896 216.854C202.792 216.854 203.59 217.003 204.292 217.302C205 217.601 205.559 218.049 205.969 218.646C206.378 219.236 206.583 219.979 206.583 220.875V225.49C206.583 226.226 206.625 226.785 206.708 227.167C206.792 227.542 206.91 227.872 207.062 228.156V228.333H203.542C203.375 227.986 203.25 227.562 203.167 227.062C203.09 226.556 203.052 226.035 203.052 225.5ZM203.479 221.448L203.5 223.323H201.948C201.622 223.323 201.344 223.368 201.115 223.458C200.892 223.549 200.712 223.674 200.573 223.833C200.441 223.986 200.344 224.16 200.281 224.354C200.226 224.549 200.198 224.753 200.198 224.969C200.198 225.177 200.247 225.365 200.344 225.531C200.448 225.691 200.587 225.816 200.76 225.906C200.934 225.997 201.128 226.042 201.344 226.042C201.733 226.042 202.062 225.969 202.333 225.823C202.611 225.67 202.823 225.486 202.969 225.271C203.115 225.056 203.187 224.854 203.187 224.667L203.958 226.104C203.819 226.382 203.66 226.663 203.479 226.948C203.306 227.233 203.087 227.497 202.823 227.74C202.566 227.976 202.25 228.17 201.875 228.323C201.5 228.469 201.045 228.542 200.51 228.542C199.816 228.542 199.177 228.399 198.594 228.115C198.017 227.83 197.556 227.434 197.208 226.927C196.861 226.413 196.687 225.823 196.687 225.156C196.687 224.573 196.792 224.052 197 223.594C197.215 223.135 197.538 222.747 197.969 222.427C198.399 222.108 198.948 221.865 199.615 221.698C200.281 221.531 201.066 221.448 201.969 221.448H203.479ZM213.292 225.833C213.618 225.833 213.896 225.774 214.125 225.656C214.361 225.531 214.538 225.358 214.656 225.135C214.781 224.906 214.84 224.632 214.833 224.312H218.135C218.142 225.16 217.934 225.903 217.51 226.542C217.094 227.174 216.524 227.667 215.802 228.021C215.087 228.368 214.278 228.542 213.375 228.542C212.493 228.542 211.722 228.399 211.062 228.115C210.403 227.823 209.851 227.42 209.406 226.906C208.969 226.385 208.639 225.778 208.417 225.083C208.201 224.389 208.094 223.635 208.094 222.823V222.583C208.094 221.771 208.201 221.017 208.417 220.323C208.639 219.622 208.969 219.014 209.406 218.5C209.851 217.979 210.399 217.576 211.052 217.292C211.712 217 212.479 216.854 213.354 216.854C214.292 216.854 215.118 217.031 215.833 217.385C216.556 217.74 217.122 218.253 217.531 218.927C217.941 219.601 218.142 220.417 218.135 221.375H214.833C214.84 221.035 214.788 220.729 214.677 220.458C214.566 220.187 214.392 219.972 214.156 219.812C213.927 219.646 213.632 219.562 213.271 219.562C212.91 219.562 212.618 219.642 212.396 219.802C212.174 219.962 212.003 220.184 211.885 220.469C211.774 220.747 211.698 221.066 211.656 221.427C211.622 221.788 211.604 222.174 211.604 222.583V222.823C211.604 223.24 211.622 223.632 211.656 224C211.698 224.361 211.778 224.681 211.896 224.958C212.014 225.229 212.184 225.444 212.406 225.604C212.628 225.757 212.924 225.833 213.292 225.833ZM225.573 217.062V219.5H218.781V217.062H225.573ZM220.208 214.26H223.719V224.656C223.719 224.955 223.753 225.187 223.823 225.354C223.892 225.514 224.01 225.628 224.177 225.698C224.351 225.76 224.58 225.792 224.865 225.792C225.066 225.792 225.233 225.788 225.365 225.781C225.497 225.767 225.622 225.75 225.74 225.729V228.24C225.441 228.337 225.128 228.41 224.802 228.458C224.476 228.514 224.128 228.542 223.76 228.542C223.01 228.542 222.368 228.424 221.833 228.187C221.306 227.951 220.903 227.58 220.625 227.073C220.347 226.566 220.208 225.906 220.208 225.094V214.26ZM233.167 223.573V213.167H236.812V223.573C236.812 224.587 236.58 225.465 236.115 226.208C235.656 226.951 235.031 227.528 234.24 227.937C233.455 228.34 232.573 228.542 231.594 228.542C230.58 228.542 229.677 228.372 228.885 228.031C228.101 227.691 227.483 227.167 227.031 226.458C226.587 225.75 226.365 224.847 226.365 223.75H230.031C230.031 224.264 230.09 224.667 230.208 224.958C230.326 225.243 230.5 225.444 230.729 225.562C230.965 225.674 231.253 225.729 231.594 225.729C231.927 225.729 232.208 225.646 232.437 225.479C232.674 225.306 232.854 225.059 232.979 224.74C233.104 224.413 233.167 224.024 233.167 223.573ZM246.948 224.302C246.948 224.066 246.913 223.854 246.844 223.667C246.774 223.472 246.646 223.292 246.458 223.125C246.271 222.958 246 222.792 245.646 222.625C245.299 222.451 244.84 222.271 244.271 222.083C243.604 221.861 242.962 221.611 242.344 221.333C241.726 221.049 241.174 220.719 240.687 220.344C240.201 219.962 239.816 219.517 239.531 219.01C239.247 218.497 239.104 217.899 239.104 217.219C239.104 216.566 239.25 215.979 239.542 215.458C239.833 214.931 240.24 214.483 240.76 214.115C241.288 213.74 241.906 213.455 242.615 213.26C243.323 213.059 244.097 212.958 244.937 212.958C246.049 212.958 247.028 213.153 247.875 213.542C248.729 213.924 249.396 214.469 249.875 215.177C250.361 215.878 250.604 216.708 250.604 217.667H246.969C246.969 217.285 246.889 216.948 246.729 216.656C246.576 216.365 246.344 216.135 246.031 215.969C245.719 215.802 245.326 215.719 244.854 215.719C244.396 215.719 244.01 215.788 243.698 215.927C243.385 216.066 243.149 216.253 242.99 216.49C242.83 216.719 242.75 216.972 242.75 217.25C242.75 217.479 242.812 217.687 242.937 217.875C243.069 218.056 243.253 218.226 243.49 218.385C243.733 218.545 244.024 218.698 244.365 218.844C244.712 218.99 245.101 219.132 245.531 219.271C246.337 219.528 247.052 219.816 247.677 220.135C248.309 220.448 248.84 220.806 249.271 221.208C249.708 221.604 250.038 222.056 250.26 222.562C250.49 223.069 250.604 223.642 250.604 224.281C250.604 224.962 250.472 225.566 250.208 226.094C249.944 226.622 249.566 227.069 249.073 227.437C248.58 227.799 247.99 228.073 247.302 228.26C246.615 228.448 245.847 228.542 245 228.542C244.222 228.542 243.455 228.444 242.698 228.25C241.948 228.049 241.267 227.743 240.656 227.333C240.045 226.917 239.556 226.385 239.187 225.74C238.826 225.087 238.646 224.312 238.646 223.417H242.312C242.312 223.861 242.372 224.236 242.49 224.542C242.608 224.847 242.781 225.094 243.01 225.281C243.24 225.462 243.521 225.594 243.854 225.677C244.187 225.753 244.569 225.792 245 225.792C245.465 225.792 245.84 225.726 246.125 225.594C246.41 225.455 246.618 225.274 246.75 225.052C246.882 224.823 246.948 224.573 246.948 224.302Z" fill="white"/>
<rect x="339" y="196.333" width="208" height="49.3333" rx="4.66667" fill="#888888" stroke="#888888" stroke-width="4"/>
<path d="M418.844 213.167V228.333H415.198L409.833 218.896V228.333H406.177V213.167H409.833L415.198 222.604V213.167H418.844ZM420.552 222.812V222.594C420.552 221.767 420.67 221.007 420.906 220.312C421.142 219.611 421.49 219.003 421.948 218.49C422.406 217.976 422.972 217.576 423.646 217.292C424.319 217 425.097 216.854 425.979 216.854C426.868 216.854 427.649 217 428.323 217.292C429.003 217.576 429.573 217.976 430.031 218.49C430.49 219.003 430.837 219.611 431.073 220.312C431.309 221.007 431.427 221.767 431.427 222.594V222.812C431.427 223.632 431.309 224.392 431.073 225.094C430.837 225.788 430.49 226.396 430.031 226.917C429.573 227.431 429.007 227.83 428.333 228.115C427.66 228.399 426.882 228.542 426 228.542C425.118 228.542 424.337 228.399 423.656 228.115C422.976 227.83 422.406 227.431 421.948 226.917C421.49 226.396 421.142 225.788 420.906 225.094C420.67 224.392 420.552 223.632 420.552 222.812ZM424.062 222.594V222.812C424.062 223.236 424.094 223.632 424.156 224C424.219 224.368 424.323 224.691 424.469 224.969C424.615 225.24 424.812 225.451 425.062 225.604C425.312 225.757 425.625 225.833 426 225.833C426.368 225.833 426.674 225.757 426.917 225.604C427.167 225.451 427.365 225.24 427.51 224.969C427.656 224.691 427.76 224.368 427.823 224C427.885 223.632 427.917 223.236 427.917 222.812V222.594C427.917 222.184 427.885 221.799 427.823 221.437C427.76 221.069 427.656 220.747 427.51 220.469C427.365 220.184 427.167 219.962 426.917 219.802C426.667 219.642 426.354 219.562 425.979 219.562C425.611 219.562 425.302 219.642 425.052 219.802C424.809 219.962 424.615 220.184 424.469 220.469C424.323 220.747 424.219 221.069 424.156 221.437C424.094 221.799 424.062 222.184 424.062 222.594ZM439.469 225.75V212.333H443V228.333H439.833L439.469 225.75ZM432.552 222.833V222.615C432.552 221.76 432.646 220.983 432.833 220.281C433.021 219.573 433.299 218.965 433.667 218.458C434.035 217.944 434.493 217.549 435.042 217.271C435.59 216.993 436.222 216.854 436.938 216.854C437.576 216.854 438.135 217.003 438.615 217.302C439.094 217.594 439.503 218.003 439.844 218.531C440.184 219.059 440.462 219.677 440.677 220.385C440.892 221.087 441.056 221.844 441.167 222.656V222.917C441.056 223.681 440.892 224.403 440.677 225.083C440.462 225.757 440.184 226.354 439.844 226.875C439.503 227.396 439.09 227.806 438.604 228.104C438.125 228.396 437.563 228.542 436.917 228.542C436.201 228.542 435.569 228.399 435.021 228.115C434.479 227.83 434.024 227.431 433.656 226.917C433.295 226.403 433.021 225.799 432.833 225.104C432.646 224.41 432.552 223.653 432.552 222.833ZM436.063 222.615V222.833C436.063 223.257 436.09 223.649 436.146 224.01C436.201 224.372 436.295 224.691 436.427 224.969C436.566 225.24 436.747 225.451 436.969 225.604C437.198 225.757 437.479 225.833 437.813 225.833C438.264 225.833 438.635 225.726 438.927 225.51C439.226 225.295 439.444 224.99 439.583 224.594C439.729 224.198 439.792 223.733 439.771 223.198V222.375C439.785 221.917 439.753 221.514 439.677 221.167C439.601 220.812 439.479 220.517 439.313 220.281C439.153 220.045 438.948 219.868 438.698 219.75C438.455 219.625 438.167 219.562 437.833 219.562C437.507 219.562 437.229 219.639 437 219.792C436.778 219.944 436.597 220.16 436.458 220.437C436.319 220.708 436.219 221.031 436.156 221.406C436.094 221.774 436.063 222.177 436.063 222.615ZM450.448 228.542C449.531 228.542 448.712 228.399 447.99 228.115C447.267 227.823 446.656 227.424 446.156 226.917C445.663 226.41 445.285 225.826 445.021 225.167C444.764 224.507 444.635 223.809 444.635 223.073V222.677C444.635 221.851 444.75 221.087 444.979 220.385C445.208 219.677 445.549 219.059 446 218.531C446.451 218.003 447.017 217.594 447.698 217.302C448.378 217.003 449.17 216.854 450.073 216.854C450.872 216.854 451.587 216.983 452.219 217.24C452.851 217.497 453.385 217.865 453.823 218.344C454.267 218.823 454.604 219.403 454.833 220.083C455.069 220.764 455.188 221.528 455.188 222.375V223.802H445.979V221.604H451.76V221.333C451.767 220.958 451.701 220.639 451.563 220.375C451.431 220.111 451.236 219.91 450.979 219.771C450.722 219.632 450.41 219.562 450.042 219.562C449.66 219.562 449.344 219.646 449.094 219.812C448.851 219.979 448.66 220.208 448.521 220.5C448.389 220.785 448.295 221.115 448.24 221.49C448.184 221.865 448.156 222.26 448.156 222.677V223.073C448.156 223.49 448.212 223.868 448.323 224.208C448.441 224.549 448.608 224.84 448.823 225.083C449.045 225.319 449.309 225.503 449.615 225.635C449.927 225.767 450.281 225.833 450.677 225.833C451.156 225.833 451.628 225.743 452.094 225.562C452.559 225.382 452.958 225.083 453.292 224.667L454.885 226.562C454.656 226.889 454.33 227.205 453.906 227.51C453.49 227.816 452.99 228.066 452.406 228.26C451.823 228.448 451.17 228.542 450.448 228.542ZM462.813 223.573V213.167H466.458V223.573C466.458 224.587 466.226 225.465 465.76 226.208C465.302 226.951 464.677 227.528 463.885 227.937C463.101 228.34 462.219 228.542 461.24 228.542C460.226 228.542 459.323 228.372 458.531 228.031C457.747 227.691 457.128 227.167 456.677 226.458C456.233 225.75 456.01 224.847 456.01 223.75H459.677C459.677 224.264 459.736 224.667 459.854 224.958C459.972 225.243 460.146 225.444 460.375 225.562C460.611 225.674 460.899 225.729 461.24 225.729C461.573 225.729 461.854 225.646 462.083 225.479C462.319 225.306 462.5 225.059 462.625 224.74C462.75 224.413 462.813 224.024 462.813 223.573ZM476.594 224.302C476.594 224.066 476.559 223.854 476.49 223.667C476.42 223.472 476.292 223.292 476.104 223.125C475.917 222.958 475.646 222.792 475.292 222.625C474.944 222.451 474.486 222.271 473.917 222.083C473.25 221.861 472.608 221.611 471.99 221.333C471.372 221.049 470.819 220.719 470.333 220.344C469.847 219.962 469.462 219.517 469.177 219.01C468.892 218.497 468.75 217.899 468.75 217.219C468.75 216.566 468.896 215.979 469.188 215.458C469.479 214.931 469.885 214.483 470.406 214.115C470.934 213.74 471.552 213.455 472.26 213.26C472.969 213.059 473.743 212.958 474.583 212.958C475.694 212.958 476.674 213.153 477.521 213.542C478.375 213.924 479.042 214.469 479.521 215.177C480.007 215.878 480.25 216.708 480.25 217.667H476.615C476.615 217.285 476.535 216.948 476.375 216.656C476.222 216.365 475.99 216.135 475.677 215.969C475.365 215.802 474.972 215.719 474.5 215.719C474.042 215.719 473.656 215.788 473.344 215.927C473.031 216.066 472.795 216.253 472.635 216.49C472.476 216.719 472.396 216.972 472.396 217.25C472.396 217.479 472.458 217.687 472.583 217.875C472.715 218.056 472.899 218.226 473.135 218.385C473.378 218.545 473.67 218.698 474.01 218.844C474.358 218.99 474.747 219.132 475.177 219.271C475.983 219.528 476.698 219.816 477.323 220.135C477.955 220.448 478.486 220.806 478.917 221.208C479.354 221.604 479.684 222.056 479.906 222.562C480.135 223.069 480.25 223.642 480.25 224.281C480.25 224.962 480.118 225.566 479.854 226.094C479.59 226.622 479.212 227.069 478.719 227.437C478.226 227.799 477.635 228.073 476.948 228.26C476.26 228.448 475.493 228.542 474.646 228.542C473.868 228.542 473.101 228.444 472.344 228.25C471.594 228.049 470.913 227.743 470.302 227.333C469.691 226.917 469.201 226.385 468.833 225.74C468.472 225.087 468.292 224.312 468.292 223.417H471.958C471.958 223.861 472.017 224.236 472.135 224.542C472.253 224.847 472.427 225.094 472.656 225.281C472.885 225.462 473.167 225.594 473.5 225.677C473.833 225.753 474.215 225.792 474.646 225.792C475.111 225.792 475.486 225.726 475.771 225.594C476.056 225.455 476.264 225.274 476.396 225.052C476.528 224.823 476.594 224.573 476.594 224.302Z" fill="white"/>
<rect x="571" y="196.333" width="208" height="49.3333" rx="4.66667" fill="#888888" stroke="#888888" stroke-width="4"/>
<path d="M614.833 213.167H620.802C621.969 213.167 622.983 213.34 623.844 213.687C624.705 214.035 625.368 214.549 625.833 215.229C626.306 215.91 626.542 216.75 626.542 217.75C626.542 218.618 626.406 219.344 626.135 219.927C625.865 220.51 625.486 220.993 625 221.375C624.521 221.75 623.962 222.059 623.323 222.302L622.125 222.979H617.115L617.094 220.156H620.802C621.267 220.156 621.653 220.073 621.958 219.906C622.264 219.74 622.493 219.503 622.646 219.198C622.806 218.885 622.885 218.514 622.885 218.083C622.885 217.646 622.806 217.271 622.646 216.958C622.486 216.646 622.25 216.406 621.937 216.24C621.632 216.073 621.253 215.99 620.802 215.99H618.49V228.333H614.833V213.167ZM623.135 228.333L619.781 221.625L623.656 221.604L627.052 228.177V228.333H623.135ZM634.042 228.542C633.125 228.542 632.306 228.399 631.583 228.115C630.861 227.823 630.25 227.424 629.75 226.917C629.257 226.41 628.878 225.826 628.615 225.167C628.358 224.507 628.229 223.809 628.229 223.073V222.677C628.229 221.851 628.344 221.087 628.573 220.385C628.802 219.677 629.142 219.059 629.594 218.531C630.045 218.003 630.611 217.594 631.292 217.302C631.972 217.003 632.764 216.854 633.667 216.854C634.465 216.854 635.181 216.983 635.813 217.24C636.444 217.497 636.979 217.865 637.417 218.344C637.861 218.823 638.198 219.403 638.427 220.083C638.663 220.764 638.781 221.528 638.781 222.375V223.802H629.573V221.604H635.354V221.333C635.361 220.958 635.295 220.639 635.156 220.375C635.024 220.111 634.83 219.91 634.573 219.771C634.316 219.632 634.003 219.562 633.635 219.562C633.253 219.562 632.938 219.646 632.688 219.812C632.444 219.979 632.253 220.208 632.115 220.5C631.983 220.785 631.889 221.115 631.833 221.49C631.778 221.865 631.75 222.26 631.75 222.677V223.073C631.75 223.49 631.806 223.868 631.917 224.208C632.035 224.549 632.201 224.84 632.417 225.083C632.639 225.319 632.903 225.503 633.208 225.635C633.521 225.767 633.875 225.833 634.271 225.833C634.75 225.833 635.222 225.743 635.688 225.562C636.153 225.382 636.552 225.083 636.885 224.667L638.479 226.562C638.25 226.889 637.924 227.205 637.5 227.51C637.083 227.816 636.583 228.066 636 228.26C635.417 228.448 634.764 228.542 634.042 228.542ZM646.063 225.5V220.854C646.063 220.535 646.017 220.26 645.927 220.031C645.837 219.802 645.694 219.625 645.5 219.5C645.306 219.368 645.045 219.302 644.719 219.302C644.455 219.302 644.229 219.347 644.042 219.437C643.854 219.528 643.712 219.663 643.615 219.844C643.517 220.024 643.469 220.253 643.469 220.531H639.958C639.958 220.01 640.073 219.528 640.302 219.083C640.538 218.632 640.872 218.24 641.302 217.906C641.74 217.573 642.26 217.316 642.865 217.135C643.476 216.948 644.156 216.854 644.906 216.854C645.802 216.854 646.601 217.003 647.302 217.302C648.01 217.601 648.569 218.049 648.979 218.646C649.389 219.236 649.594 219.979 649.594 220.875V225.49C649.594 226.226 649.635 226.785 649.719 227.167C649.802 227.542 649.92 227.872 650.073 228.156V228.333H646.552C646.385 227.986 646.26 227.562 646.177 227.062C646.101 226.556 646.063 226.035 646.063 225.5ZM646.49 221.448L646.51 223.323H644.958C644.632 223.323 644.354 223.368 644.125 223.458C643.903 223.549 643.722 223.674 643.583 223.833C643.451 223.986 643.354 224.16 643.292 224.354C643.236 224.549 643.208 224.753 643.208 224.969C643.208 225.177 643.257 225.365 643.354 225.531C643.458 225.691 643.597 225.816 643.771 225.906C643.944 225.997 644.139 226.042 644.354 226.042C644.743 226.042 645.073 225.969 645.344 225.823C645.622 225.67 645.833 225.486 645.979 225.271C646.125 225.056 646.198 224.854 646.198 224.667L646.969 226.104C646.83 226.382 646.67 226.663 646.49 226.948C646.316 227.233 646.097 227.497 645.833 227.74C645.576 227.976 645.26 228.17 644.885 228.323C644.51 228.469 644.056 228.542 643.521 228.542C642.826 228.542 642.188 228.399 641.604 228.115C641.028 227.83 640.566 227.434 640.219 226.927C639.872 226.413 639.698 225.823 639.698 225.156C639.698 224.573 639.802 224.052 640.01 223.594C640.226 223.135 640.549 222.747 640.979 222.427C641.41 222.108 641.958 221.865 642.625 221.698C643.292 221.531 644.076 221.448 644.979 221.448H646.49ZM656.302 225.833C656.628 225.833 656.906 225.774 657.135 225.656C657.372 225.531 657.549 225.358 657.667 225.135C657.792 224.906 657.851 224.632 657.844 224.312H661.146C661.153 225.16 660.944 225.903 660.521 226.542C660.104 227.174 659.535 227.667 658.812 228.021C658.097 228.368 657.288 228.542 656.385 228.542C655.503 228.542 654.733 228.399 654.073 228.115C653.413 227.823 652.861 227.42 652.417 226.906C651.979 226.385 651.649 225.778 651.427 225.083C651.212 224.389 651.104 223.635 651.104 222.823V222.583C651.104 221.771 651.212 221.017 651.427 220.323C651.649 219.622 651.979 219.014 652.417 218.5C652.861 217.979 653.41 217.576 654.062 217.292C654.722 217 655.49 216.854 656.365 216.854C657.302 216.854 658.128 217.031 658.844 217.385C659.566 217.74 660.132 218.253 660.542 218.927C660.951 219.601 661.153 220.417 661.146 221.375H657.844C657.851 221.035 657.799 220.729 657.687 220.458C657.576 220.187 657.403 219.972 657.167 219.812C656.937 219.646 656.642 219.562 656.281 219.562C655.92 219.562 655.628 219.642 655.406 219.802C655.184 219.962 655.014 220.184 654.896 220.469C654.785 220.747 654.708 221.066 654.667 221.427C654.632 221.788 654.615 222.174 654.615 222.583V222.823C654.615 223.24 654.632 223.632 654.667 224C654.708 224.361 654.788 224.681 654.906 224.958C655.024 225.229 655.194 225.444 655.417 225.604C655.639 225.757 655.934 225.833 656.302 225.833ZM668.583 217.062V219.5H661.792V217.062H668.583ZM663.219 214.26H666.729V224.656C666.729 224.955 666.764 225.187 666.833 225.354C666.903 225.514 667.021 225.628 667.188 225.698C667.361 225.76 667.59 225.792 667.875 225.792C668.076 225.792 668.243 225.788 668.375 225.781C668.507 225.767 668.632 225.75 668.75 225.729V228.24C668.451 228.337 668.139 228.41 667.813 228.458C667.486 228.514 667.139 228.542 666.771 228.542C666.021 228.542 665.378 228.424 664.844 228.187C664.316 227.951 663.913 227.58 663.635 227.073C663.358 226.566 663.219 225.906 663.219 225.094V214.26ZM688.125 213.167V228.333H684.479L679.115 218.896V228.333H675.458V213.167H679.115L684.479 222.604V213.167H688.125ZM696.125 225.5V220.854C696.125 220.535 696.08 220.26 695.99 220.031C695.899 219.802 695.757 219.625 695.563 219.5C695.368 219.368 695.108 219.302 694.781 219.302C694.517 219.302 694.292 219.347 694.104 219.437C693.917 219.528 693.774 219.663 693.677 219.844C693.58 220.024 693.531 220.253 693.531 220.531H690.021C690.021 220.01 690.135 219.528 690.365 219.083C690.601 218.632 690.934 218.24 691.365 217.906C691.802 217.573 692.323 217.316 692.927 217.135C693.538 216.948 694.219 216.854 694.969 216.854C695.865 216.854 696.663 217.003 697.365 217.302C698.073 217.601 698.632 218.049 699.042 218.646C699.451 219.236 699.656 219.979 699.656 220.875V225.49C699.656 226.226 699.698 226.785 699.781 227.167C699.865 227.542 699.983 227.872 700.135 228.156V228.333H696.615C696.448 227.986 696.323 227.562 696.24 227.062C696.163 226.556 696.125 226.035 696.125 225.5ZM696.552 221.448L696.573 223.323H695.021C694.694 223.323 694.417 223.368 694.188 223.458C693.965 223.549 693.785 223.674 693.646 223.833C693.514 223.986 693.417 224.16 693.354 224.354C693.299 224.549 693.271 224.753 693.271 224.969C693.271 225.177 693.319 225.365 693.417 225.531C693.521 225.691 693.66 225.816 693.833 225.906C694.007 225.997 694.201 226.042 694.417 226.042C694.806 226.042 695.135 225.969 695.406 225.823C695.684 225.67 695.896 225.486 696.042 225.271C696.188 225.056 696.26 224.854 696.26 224.667L697.031 226.104C696.892 226.382 696.733 226.663 696.552 226.948C696.378 227.233 696.16 227.497 695.896 227.74C695.639 227.976 695.323 228.17 694.948 228.323C694.573 228.469 694.118 228.542 693.583 228.542C692.889 228.542 692.25 228.399 691.667 228.115C691.09 227.83 690.628 227.434 690.281 226.927C689.934 226.413 689.76 225.823 689.76 225.156C689.76 224.573 689.865 224.052 690.073 223.594C690.288 223.135 690.611 222.747 691.042 222.427C691.472 222.108 692.021 221.865 692.688 221.698C693.354 221.531 694.139 221.448 695.042 221.448H696.552ZM707.542 217.062V219.5H700.75V217.062H707.542ZM702.177 214.26H705.687V224.656C705.687 224.955 705.722 225.187 705.792 225.354C705.861 225.514 705.979 225.628 706.146 225.698C706.319 225.76 706.549 225.792 706.833 225.792C707.035 225.792 707.201 225.788 707.333 225.781C707.465 225.767 707.59 225.75 707.708 225.729V228.24C707.41 228.337 707.097 228.41 706.771 228.458C706.444 228.514 706.097 228.542 705.729 228.542C704.979 228.542 704.337 228.424 703.802 228.187C703.274 227.951 702.872 227.58 702.594 227.073C702.316 226.566 702.177 225.906 702.177 225.094V214.26ZM712.646 217.062V228.333H709.125V217.062H712.646ZM708.917 214.156C708.917 213.656 709.097 213.247 709.458 212.927C709.819 212.608 710.288 212.448 710.865 212.448C711.441 212.448 711.91 212.608 712.271 212.927C712.632 213.247 712.813 213.656 712.813 214.156C712.813 214.656 712.632 215.066 712.271 215.385C711.91 215.705 711.441 215.865 710.865 215.865C710.288 215.865 709.819 215.705 709.458 215.385C709.097 215.066 708.917 214.656 708.917 214.156ZM718.875 225.927L721.094 217.062H724.792L721.104 228.333H718.917L718.875 225.927ZM717.563 217.062L719.75 225.927L719.729 228.333H717.531L713.854 217.062H717.563ZM731.146 228.542C730.229 228.542 729.41 228.399 728.688 228.115C727.965 227.823 727.354 227.424 726.854 226.917C726.361 226.41 725.983 225.826 725.719 225.167C725.462 224.507 725.333 223.809 725.333 223.073V222.677C725.333 221.851 725.448 221.087 725.677 220.385C725.906 219.677 726.247 219.059 726.698 218.531C727.149 218.003 727.715 217.594 728.396 217.302C729.076 217.003 729.868 216.854 730.771 216.854C731.569 216.854 732.285 216.983 732.917 217.24C733.549 217.497 734.083 217.865 734.521 218.344C734.965 218.823 735.302 219.403 735.531 220.083C735.767 220.764 735.885 221.528 735.885 222.375V223.802H726.677V221.604H732.458V221.333C732.465 220.958 732.399 220.639 732.26 220.375C732.128 220.111 731.934 219.91 731.677 219.771C731.42 219.632 731.108 219.562 730.74 219.562C730.358 219.562 730.042 219.646 729.792 219.812C729.549 219.979 729.358 220.208 729.219 220.5C729.087 220.785 728.993 221.115 728.938 221.49C728.882 221.865 728.854 222.26 728.854 222.677V223.073C728.854 223.49 728.91 223.868 729.021 224.208C729.139 224.549 729.306 224.84 729.521 225.083C729.743 225.319 730.007 225.503 730.313 225.635C730.625 225.767 730.979 225.833 731.375 225.833C731.854 225.833 732.326 225.743 732.792 225.562C733.257 225.382 733.656 225.083 733.99 224.667L735.583 226.562C735.354 226.889 735.028 227.205 734.604 227.51C734.188 227.816 733.688 228.066 733.104 228.26C732.521 228.448 731.868 228.542 731.146 228.542Z" fill="white"/>
</svg>
