<svg width="1363" height="301" viewBox="0 0 1363 301" fill="none" xmlns="http://www.w3.org/2000/svg">
<rect width="1363" height="301" rx="15" fill="#F0F0F0"/>
<path d="M0 15C0 6.71573 6.71573 0 15 0H37V301H15C6.71573 301 0 294.284 0 286V15Z" fill="#5B2E0F"/>
<path d="M104.407 104.898V144H94.981V104.898H104.407ZM119.607 121.173V128.424H101.722V121.173H119.607ZM121.138 104.898V112.176H101.722V104.898H121.138ZM122.911 129.767V129.203C122.911 127.072 123.215 125.112 123.824 123.321C124.432 121.513 125.328 119.946 126.509 118.622C127.691 117.297 129.15 116.267 130.887 115.533C132.623 114.781 134.629 114.405 136.902 114.405C139.194 114.405 141.208 114.781 142.945 115.533C144.699 116.267 146.167 117.297 147.349 118.622C148.531 119.946 149.426 121.513 150.035 123.321C150.643 125.112 150.948 127.072 150.948 129.203V129.767C150.948 131.879 150.643 133.84 150.035 135.648C149.426 137.438 148.531 139.005 147.349 140.348C146.167 141.673 144.708 142.702 142.972 143.436C141.235 144.17 139.23 144.537 136.956 144.537C134.682 144.537 132.668 144.17 130.914 143.436C129.159 142.702 127.691 141.673 126.509 140.348C125.328 139.005 124.432 137.438 123.824 135.648C123.215 133.84 122.911 131.879 122.911 129.767ZM131.961 129.203V129.767C131.961 130.859 132.042 131.879 132.203 132.828C132.364 133.777 132.632 134.61 133.008 135.326C133.384 136.024 133.895 136.57 134.539 136.964C135.184 137.358 135.989 137.555 136.956 137.555C137.905 137.555 138.693 137.358 139.319 136.964C139.964 136.57 140.474 136.024 140.85 135.326C141.226 134.61 141.495 133.777 141.656 132.828C141.817 131.879 141.897 130.859 141.897 129.767V129.203C141.897 128.146 141.817 127.153 141.656 126.222C141.495 125.273 141.226 124.44 140.85 123.724C140.474 122.99 139.964 122.417 139.319 122.005C138.675 121.594 137.869 121.388 136.902 121.388C135.953 121.388 135.157 121.594 134.512 122.005C133.886 122.417 133.384 122.99 133.008 123.724C132.632 124.44 132.364 125.273 132.203 126.222C132.042 127.153 131.961 128.146 131.961 129.203ZM164.107 122.14V144H155.057V114.942H163.516L164.107 122.14ZM172.701 114.728L172.54 123.133C172.181 123.097 171.698 123.053 171.089 122.999C170.481 122.945 169.97 122.918 169.559 122.918C168.502 122.918 167.589 123.044 166.819 123.294C166.067 123.527 165.441 123.885 164.939 124.369C164.456 124.834 164.098 125.425 163.865 126.141C163.65 126.857 163.552 127.69 163.57 128.639L161.932 127.564C161.932 125.613 162.12 123.84 162.496 122.247C162.889 120.636 163.444 119.248 164.161 118.084C164.877 116.903 165.745 115.999 166.766 115.372C167.786 114.728 168.932 114.405 170.203 114.405C170.651 114.405 171.089 114.432 171.519 114.486C171.967 114.54 172.361 114.62 172.701 114.728ZM192.466 114.942V121.227H174.957V114.942H192.466ZM178.636 107.718H187.686V134.52C187.686 135.29 187.776 135.89 187.955 136.319C188.134 136.731 188.438 137.027 188.868 137.206C189.315 137.367 189.906 137.447 190.64 137.447C191.159 137.447 191.589 137.438 191.929 137.42C192.269 137.385 192.592 137.34 192.896 137.286V143.758C192.126 144.009 191.32 144.197 190.479 144.322C189.638 144.465 188.742 144.537 187.793 144.537C185.86 144.537 184.204 144.233 182.825 143.624C181.465 143.015 180.426 142.057 179.71 140.75C178.994 139.444 178.636 137.743 178.636 135.648V107.718ZM213.038 136.937V114.942H222.115V144H213.628L213.038 136.937ZM213.897 131.029L216.26 130.975C216.26 132.927 216.028 134.735 215.562 136.4C215.097 138.047 214.407 139.479 213.494 140.697C212.599 141.914 211.489 142.863 210.164 143.543C208.857 144.206 207.344 144.537 205.625 144.537C204.193 144.537 202.877 144.34 201.678 143.946C200.496 143.535 199.476 142.899 198.616 142.04C197.757 141.162 197.085 140.043 196.602 138.683C196.137 137.304 195.904 135.657 195.904 133.741V114.942H204.954V133.795C204.954 134.439 205.035 134.994 205.196 135.46C205.357 135.925 205.59 136.319 205.894 136.642C206.198 136.946 206.574 137.179 207.022 137.34C207.487 137.483 208.016 137.555 208.606 137.555C209.967 137.555 211.032 137.268 211.802 136.695C212.572 136.122 213.109 135.344 213.414 134.359C213.736 133.374 213.897 132.264 213.897 131.029ZM235.999 121.146V144H226.949V114.942H235.435L235.999 121.146ZM234.925 128.478L232.803 128.531C232.803 126.311 233.072 124.333 233.609 122.596C234.146 120.842 234.907 119.356 235.892 118.138C236.876 116.921 238.049 115.999 239.41 115.372C240.788 114.728 242.319 114.405 244.002 114.405C245.345 114.405 246.571 114.602 247.681 114.996C248.809 115.39 249.776 116.026 250.582 116.903C251.405 117.78 252.032 118.944 252.461 120.394C252.909 121.826 253.133 123.599 253.133 125.711V144H244.029V125.685C244.029 124.521 243.868 123.635 243.545 123.026C243.223 122.399 242.758 121.97 242.149 121.737C241.54 121.504 240.797 121.388 239.92 121.388C238.989 121.388 238.201 121.567 237.557 121.925C236.912 122.283 236.393 122.784 235.999 123.429C235.623 124.055 235.346 124.798 235.167 125.658C235.005 126.517 234.925 127.457 234.925 128.478ZM275.127 136.937V114.942H284.205V144H275.718L275.127 136.937ZM275.987 131.029L278.35 130.975C278.35 132.927 278.117 134.735 277.652 136.4C277.186 138.047 276.497 139.479 275.584 140.697C274.689 141.914 273.579 142.863 272.254 143.543C270.947 144.206 269.434 144.537 267.715 144.537C266.283 144.537 264.967 144.34 263.768 143.946C262.586 143.535 261.565 142.899 260.706 142.04C259.847 141.162 259.175 140.043 258.692 138.683C258.226 137.304 257.994 135.657 257.994 133.741V114.942H267.044V133.795C267.044 134.439 267.125 134.994 267.286 135.46C267.447 135.925 267.68 136.319 267.984 136.642C268.288 136.946 268.664 137.179 269.112 137.34C269.577 137.483 270.105 137.555 270.696 137.555C272.057 137.555 273.122 137.268 273.892 136.695C274.662 136.122 275.199 135.344 275.503 134.359C275.826 133.374 275.987 132.264 275.987 131.029ZM304.427 135.836C304.427 135.335 304.257 134.905 303.917 134.547C303.594 134.171 303.021 133.831 302.198 133.526C301.374 133.204 300.219 132.882 298.733 132.56C297.319 132.255 295.985 131.852 294.732 131.351C293.497 130.85 292.413 130.241 291.482 129.525C290.551 128.809 289.817 127.958 289.28 126.974C288.761 125.989 288.501 124.861 288.501 123.59C288.501 122.354 288.761 121.191 289.28 120.099C289.817 118.989 290.596 118.013 291.617 117.171C292.655 116.312 293.917 115.641 295.403 115.157C296.889 114.656 298.581 114.405 300.479 114.405C303.093 114.405 305.349 114.808 307.247 115.614C309.144 116.402 310.604 117.512 311.624 118.944C312.662 120.358 313.182 121.996 313.182 123.858H304.131C304.131 123.124 304.006 122.498 303.755 121.979C303.523 121.459 303.138 121.065 302.601 120.797C302.063 120.51 301.347 120.367 300.452 120.367C299.826 120.367 299.253 120.484 298.733 120.716C298.232 120.949 297.829 121.271 297.525 121.683C297.221 122.095 297.068 122.578 297.068 123.133C297.068 123.527 297.158 123.885 297.337 124.208C297.534 124.512 297.829 124.798 298.223 125.067C298.617 125.318 299.118 125.55 299.727 125.765C300.336 125.962 301.07 126.141 301.929 126.302C303.881 126.66 305.707 127.171 307.408 127.833C309.109 128.495 310.487 129.435 311.543 130.653C312.618 131.87 313.155 133.508 313.155 135.567C313.155 136.856 312.859 138.047 312.269 139.139C311.678 140.213 310.827 141.162 309.717 141.986C308.607 142.792 307.273 143.418 305.716 143.866C304.158 144.313 302.404 144.537 300.452 144.537C297.677 144.537 295.332 144.045 293.416 143.06C291.5 142.057 290.05 140.804 289.065 139.3C288.099 137.778 287.615 136.239 287.615 134.681H296.048C296.084 135.576 296.299 136.31 296.692 136.883C297.104 137.456 297.65 137.877 298.331 138.146C299.011 138.414 299.799 138.548 300.694 138.548C301.517 138.548 302.198 138.432 302.735 138.199C303.29 137.966 303.711 137.653 303.997 137.259C304.284 136.847 304.427 136.373 304.427 135.836ZM346.321 134.789L354.458 104.898H365.013L351.827 144H345.005L346.321 134.789ZM338.936 104.898L347.073 134.789L348.443 144H341.541L328.436 104.898H338.936ZM377.017 114.942V144H367.94V114.942H377.017ZM367.403 107.45C367.403 106.161 367.868 105.104 368.799 104.281C369.73 103.457 370.939 103.045 372.425 103.045C373.911 103.045 375.119 103.457 376.05 104.281C376.981 105.104 377.447 106.161 377.447 107.45C377.447 108.739 376.981 109.795 376.05 110.619C375.119 111.442 373.911 111.854 372.425 111.854C370.939 111.854 369.73 111.442 368.799 110.619C367.868 109.795 367.403 108.739 367.403 107.45ZM397.83 135.836C397.83 135.335 397.66 134.905 397.32 134.547C396.998 134.171 396.425 133.831 395.601 133.526C394.778 133.204 393.623 132.882 392.137 132.56C390.722 132.255 389.389 131.852 388.135 131.351C386.9 130.85 385.817 130.241 384.886 129.525C383.955 128.809 383.221 127.958 382.684 126.974C382.164 125.989 381.905 124.861 381.905 123.59C381.905 122.354 382.164 121.191 382.684 120.099C383.221 118.989 384 118.013 385.02 117.171C386.058 116.312 387.321 115.641 388.807 115.157C390.293 114.656 391.985 114.405 393.882 114.405C396.496 114.405 398.752 114.808 400.65 115.614C402.548 116.402 404.007 117.512 405.027 118.944C406.066 120.358 406.585 121.996 406.585 123.858H397.535C397.535 123.124 397.409 122.498 397.159 121.979C396.926 121.459 396.541 121.065 396.004 120.797C395.467 120.51 394.751 120.367 393.855 120.367C393.229 120.367 392.656 120.484 392.137 120.716C391.635 120.949 391.233 121.271 390.928 121.683C390.624 122.095 390.472 122.578 390.472 123.133C390.472 123.527 390.561 123.885 390.74 124.208C390.937 124.512 391.233 124.798 391.626 125.067C392.02 125.318 392.522 125.55 393.13 125.765C393.739 125.962 394.473 126.141 395.333 126.302C397.284 126.66 399.11 127.171 400.811 127.833C402.512 128.495 403.89 129.435 404.947 130.653C406.021 131.87 406.558 133.508 406.558 135.567C406.558 136.856 406.263 138.047 405.672 139.139C405.081 140.213 404.231 141.162 403.121 141.986C402.011 142.792 400.677 143.418 399.119 143.866C397.562 144.313 395.807 144.537 393.855 144.537C391.08 144.537 388.735 144.045 386.819 143.06C384.904 142.057 383.453 140.804 382.469 139.3C381.502 137.778 381.019 136.239 381.019 134.681H389.451C389.487 135.576 389.702 136.31 390.096 136.883C390.507 137.456 391.054 137.877 391.734 138.146C392.414 138.414 393.202 138.548 394.097 138.548C394.921 138.548 395.601 138.432 396.138 138.199C396.693 137.966 397.114 137.653 397.4 137.259C397.687 136.847 397.83 136.373 397.83 135.836ZM420.362 114.942V144H411.285V114.942H420.362ZM410.748 107.45C410.748 106.161 411.213 105.104 412.144 104.281C413.075 103.457 414.284 103.045 415.77 103.045C417.256 103.045 418.464 103.457 419.395 104.281C420.326 105.104 420.792 106.161 420.792 107.45C420.792 108.739 420.326 109.795 419.395 110.619C418.464 111.442 417.256 111.854 415.77 111.854C414.284 111.854 413.075 111.442 412.144 110.619C411.213 109.795 410.748 108.739 410.748 107.45ZM424.82 129.767V129.203C424.82 127.072 425.124 125.112 425.733 123.321C426.342 121.513 427.237 119.946 428.418 118.622C429.6 117.297 431.059 116.267 432.796 115.533C434.533 114.781 436.538 114.405 438.812 114.405C441.103 114.405 443.117 114.781 444.854 115.533C446.609 116.267 448.077 117.297 449.258 118.622C450.44 119.946 451.335 121.513 451.944 123.321C452.553 125.112 452.857 127.072 452.857 129.203V129.767C452.857 131.879 452.553 133.84 451.944 135.648C451.335 137.438 450.44 139.005 449.258 140.348C448.077 141.673 446.618 142.702 444.881 143.436C443.144 144.17 441.139 144.537 438.865 144.537C436.591 144.537 434.577 144.17 432.823 143.436C431.068 142.702 429.6 141.673 428.418 140.348C427.237 139.005 426.342 137.438 425.733 135.648C425.124 133.84 424.82 131.879 424.82 129.767ZM433.87 129.203V129.767C433.87 130.859 433.951 131.879 434.112 132.828C434.273 133.777 434.542 134.61 434.917 135.326C435.293 136.024 435.804 136.57 436.448 136.964C437.093 137.358 437.898 137.555 438.865 137.555C439.814 137.555 440.602 137.358 441.229 136.964C441.873 136.57 442.383 136.024 442.759 135.326C443.135 134.61 443.404 133.777 443.565 132.828C443.726 131.879 443.807 130.859 443.807 129.767V129.203C443.807 128.146 443.726 127.153 443.565 126.222C443.404 125.273 443.135 124.44 442.759 123.724C442.383 122.99 441.873 122.417 441.229 122.005C440.584 121.594 439.778 121.388 438.812 121.388C437.863 121.388 437.066 121.594 436.421 122.005C435.795 122.417 435.293 122.99 434.917 123.724C434.542 124.44 434.273 125.273 434.112 126.222C433.951 127.153 433.87 128.146 433.87 129.203ZM465.774 121.146V144H456.724V114.942H465.21L465.774 121.146ZM464.7 128.478L462.579 128.531C462.579 126.311 462.847 124.333 463.384 122.596C463.921 120.842 464.682 119.356 465.667 118.138C466.652 116.921 467.824 115.999 469.185 115.372C470.564 114.728 472.094 114.405 473.777 114.405C475.12 114.405 476.347 114.602 477.457 114.996C478.584 115.39 479.551 116.026 480.357 116.903C481.181 117.78 481.807 118.944 482.237 120.394C482.684 121.826 482.908 123.599 482.908 125.711V144H473.804V125.685C473.804 124.521 473.643 123.635 473.321 123.026C472.999 122.399 472.533 121.97 471.924 121.737C471.316 121.504 470.573 121.388 469.695 121.388C468.764 121.388 467.977 121.567 467.332 121.925C466.688 122.283 466.168 122.784 465.774 123.429C465.398 124.055 465.121 124.798 464.942 125.658C464.781 126.517 464.7 127.457 464.7 128.478Z" fill="#5B2E0F"/>
<path d="M104.288 72.3608V55.1172H109.397V72.3608C109.397 74.0243 109.033 75.4541 108.304 76.6504C107.575 77.8353 106.578 78.7467 105.313 79.3848C104.06 80.0228 102.647 80.3418 101.075 80.3418C99.4455 80.3418 98.0042 80.0684 96.751 79.5215C95.4977 78.9746 94.5122 78.1372 93.7944 77.0093C93.0767 75.87 92.7178 74.4287 92.7178 72.6855H97.8618C97.8618 73.597 97.9871 74.3205 98.2378 74.856C98.4998 75.3914 98.8701 75.7731 99.3486 76.001C99.8271 76.2288 100.403 76.3428 101.075 76.3428C101.724 76.3428 102.288 76.189 102.767 75.8813C103.245 75.5737 103.615 75.1237 103.877 74.5312C104.151 73.9388 104.288 73.2153 104.288 72.3608ZM112.679 70.9424V70.5835C112.679 69.2277 112.872 67.9801 113.26 66.8408C113.647 65.6901 114.211 64.6932 114.952 63.8501C115.692 63.007 116.604 62.3519 117.686 61.8848C118.768 61.4062 120.01 61.167 121.412 61.167C122.813 61.167 124.061 61.4062 125.154 61.8848C126.248 62.3519 127.165 63.007 127.906 63.8501C128.658 64.6932 129.227 65.6901 129.615 66.8408C130.002 67.9801 130.196 69.2277 130.196 70.5835V70.9424C130.196 72.2868 130.002 73.5343 129.615 74.6851C129.227 75.8244 128.658 76.8213 127.906 77.6758C127.165 78.5189 126.254 79.174 125.171 79.6411C124.089 80.1082 122.847 80.3418 121.446 80.3418C120.044 80.3418 118.797 80.1082 117.703 79.6411C116.621 79.174 115.704 78.5189 114.952 77.6758C114.211 76.8213 113.647 75.8244 113.26 74.6851C112.872 73.5343 112.679 72.2868 112.679 70.9424ZM117.601 70.5835V70.9424C117.601 71.7171 117.669 72.4406 117.806 73.1128C117.942 73.785 118.159 74.3774 118.455 74.8901C118.763 75.3914 119.161 75.7845 119.651 76.0693C120.141 76.3542 120.739 76.4966 121.446 76.4966C122.129 76.4966 122.716 76.3542 123.206 76.0693C123.696 75.7845 124.089 75.3914 124.385 74.8901C124.681 74.3774 124.898 73.785 125.035 73.1128C125.183 72.4406 125.257 71.7171 125.257 70.9424V70.5835C125.257 69.8315 125.183 69.1252 125.035 68.4644C124.898 67.7922 124.676 67.1997 124.368 66.687C124.072 66.1629 123.679 65.7528 123.189 65.4565C122.699 65.1603 122.107 65.0122 121.412 65.0122C120.717 65.0122 120.124 65.1603 119.634 65.4565C119.156 65.7528 118.763 66.1629 118.455 66.687C118.159 67.1997 117.942 67.7922 117.806 68.4644C117.669 69.1252 117.601 69.8315 117.601 70.5835ZM143.218 74.8901C143.218 74.5369 143.116 74.2179 142.911 73.9331C142.706 73.6483 142.324 73.3862 141.766 73.147C141.219 72.8963 140.427 72.6685 139.39 72.4634C138.456 72.2583 137.584 72.002 136.775 71.6943C135.978 71.3753 135.283 70.9937 134.69 70.5493C134.109 70.105 133.654 69.5809 133.323 68.9771C132.993 68.3618 132.828 67.6611 132.828 66.875C132.828 66.1003 132.993 65.3711 133.323 64.6875C133.665 64.0039 134.149 63.4001 134.776 62.876C135.414 62.3405 136.189 61.9246 137.1 61.6284C138.023 61.3208 139.06 61.167 140.21 61.167C141.817 61.167 143.195 61.4233 144.346 61.936C145.508 62.4487 146.397 63.1551 147.012 64.0552C147.639 64.9438 147.952 65.9578 147.952 67.0972H143.03C143.03 66.6187 142.928 66.1914 142.723 65.8154C142.529 65.4281 142.221 65.1261 141.8 64.9097C141.39 64.6818 140.854 64.5679 140.193 64.5679C139.646 64.5679 139.174 64.6647 138.775 64.8584C138.376 65.0407 138.069 65.2913 137.852 65.6104C137.647 65.918 137.544 66.2598 137.544 66.6357C137.544 66.9206 137.601 67.1769 137.715 67.4048C137.841 67.6213 138.04 67.8206 138.313 68.0029C138.587 68.1852 138.94 68.3561 139.373 68.5156C139.817 68.6637 140.364 68.8005 141.014 68.9258C142.347 69.1992 143.537 69.5581 144.585 70.0024C145.634 70.4354 146.465 71.0278 147.081 71.7798C147.696 72.5203 148.003 73.4945 148.003 74.7021C148.003 75.5225 147.821 76.2744 147.457 76.958C147.092 77.6416 146.568 78.2397 145.884 78.7524C145.201 79.2537 144.38 79.6468 143.423 79.9316C142.478 80.2051 141.412 80.3418 140.228 80.3418C138.507 80.3418 137.049 80.0342 135.853 79.4189C134.668 78.8037 133.768 78.0233 133.152 77.0776C132.549 76.1206 132.247 75.1408 132.247 74.1382H136.912C136.935 74.8104 137.106 75.3516 137.425 75.7617C137.755 76.1719 138.171 76.4681 138.672 76.6504C139.185 76.8327 139.738 76.9238 140.33 76.9238C140.968 76.9238 141.498 76.8384 141.919 76.6675C142.341 76.4852 142.66 76.2459 142.876 75.9497C143.104 75.6421 143.218 75.2889 143.218 74.8901ZM159.71 80.3418C158.274 80.3418 156.987 80.1139 155.848 79.6582C154.708 79.1911 153.74 78.5474 152.942 77.7271C152.156 76.9067 151.552 75.9554 151.131 74.873C150.709 73.7793 150.499 72.6172 150.499 71.3867V70.7031C150.499 69.3018 150.698 68.02 151.097 66.8579C151.495 65.6958 152.065 64.6875 152.806 63.833C153.558 62.9785 154.469 62.3234 155.54 61.8677C156.611 61.4006 157.819 61.167 159.163 61.167C160.473 61.167 161.635 61.3835 162.649 61.8164C163.663 62.2493 164.512 62.8646 165.196 63.6621C165.891 64.4596 166.415 65.4167 166.768 66.5332C167.121 67.6383 167.298 68.8688 167.298 70.2246V72.2754H152.601V68.9941H162.461V68.6182C162.461 67.9346 162.336 67.325 162.085 66.7896C161.846 66.2427 161.482 65.8097 160.992 65.4907C160.502 65.1717 159.875 65.0122 159.112 65.0122C158.462 65.0122 157.904 65.1546 157.437 65.4395C156.97 65.7243 156.588 66.123 156.292 66.6357C156.007 67.1484 155.791 67.7523 155.643 68.4473C155.506 69.1309 155.438 69.8828 155.438 70.7031V71.3867C155.438 72.1273 155.54 72.8109 155.745 73.4375C155.962 74.0641 156.264 74.6053 156.651 75.061C157.05 75.5168 157.528 75.87 158.086 76.1206C158.656 76.3713 159.3 76.4966 160.018 76.4966C160.906 76.4966 161.732 76.3257 162.496 75.9839C163.27 75.6307 163.937 75.1009 164.495 74.3945L166.888 76.9922C166.5 77.5505 165.971 78.0859 165.298 78.5986C164.638 79.1113 163.84 79.5329 162.906 79.8633C161.972 80.1823 160.906 80.3418 159.71 80.3418ZM175.022 65.0635V87.1094H170.101V61.5088H174.664L175.022 65.0635ZM186.729 70.5493V70.9082C186.729 72.2526 186.569 73.5002 186.25 74.6509C185.943 75.8016 185.487 76.8042 184.883 77.6587C184.279 78.5018 183.528 79.1626 182.627 79.6411C181.739 80.1082 180.713 80.3418 179.551 80.3418C178.423 80.3418 177.444 80.1139 176.612 79.6582C175.78 79.2025 175.079 78.5645 174.51 77.7441C173.951 76.9124 173.501 75.9497 173.16 74.856C172.818 73.7622 172.556 72.5887 172.374 71.3354V70.3955C172.556 69.0511 172.818 67.8206 173.16 66.7041C173.501 65.5762 173.951 64.6021 174.51 63.7817C175.079 62.95 175.774 62.3063 176.595 61.8506C177.426 61.3949 178.401 61.167 179.517 61.167C180.691 61.167 181.722 61.3892 182.61 61.8335C183.51 62.2778 184.262 62.9159 184.866 63.7476C185.481 64.5793 185.943 65.5705 186.25 66.7212C186.569 67.8719 186.729 69.1479 186.729 70.5493ZM181.79 70.9082V70.5493C181.79 69.7632 181.722 69.0397 181.585 68.3789C181.46 67.7067 181.255 67.12 180.97 66.6187C180.696 66.1174 180.332 65.73 179.876 65.4565C179.432 65.1717 178.89 65.0293 178.252 65.0293C177.58 65.0293 177.005 65.1375 176.526 65.354C176.059 65.5705 175.678 65.8838 175.381 66.2939C175.085 66.7041 174.863 67.194 174.715 67.7637C174.567 68.3333 174.476 68.9771 174.441 69.6948V72.0703C174.498 72.9134 174.658 73.6711 174.92 74.3433C175.182 75.0041 175.586 75.5282 176.133 75.9155C176.68 76.3029 177.398 76.4966 178.287 76.4966C178.936 76.4966 179.483 76.3542 179.927 76.0693C180.372 75.7731 180.73 75.3687 181.004 74.856C181.289 74.3433 181.488 73.7508 181.602 73.0786C181.727 72.4064 181.79 71.6829 181.79 70.9082ZM194.59 53.75V80H189.668V53.75H194.59ZM193.89 70.105H192.54C192.551 68.8175 192.722 67.6326 193.052 66.5503C193.383 65.4565 193.855 64.5109 194.471 63.7134C195.086 62.9045 195.821 62.2778 196.675 61.8335C197.541 61.3892 198.498 61.167 199.546 61.167C200.458 61.167 201.284 61.298 202.024 61.5601C202.776 61.8107 203.42 62.2209 203.956 62.7905C204.502 63.3488 204.924 64.0837 205.22 64.9951C205.516 65.9066 205.665 67.0117 205.665 68.3105V80H200.708V68.2764C200.708 67.4561 200.589 66.8123 200.35 66.3452C200.122 65.8667 199.786 65.5306 199.341 65.3369C198.908 65.1318 198.373 65.0293 197.735 65.0293C197.028 65.0293 196.425 65.1603 195.923 65.4224C195.433 65.6844 195.04 66.049 194.744 66.5161C194.448 66.9718 194.231 67.5073 194.095 68.1226C193.958 68.7378 193.89 69.3986 193.89 70.105ZM228.633 55.1172V80H223.523V55.1172H228.633ZM236.29 55.1172V59.1333H215.987V55.1172H236.29ZM246.287 75.8301V67.5928C246.287 67.0003 246.19 66.4933 245.997 66.0718C245.803 65.6388 245.501 65.3027 245.091 65.0635C244.692 64.8242 244.174 64.7046 243.536 64.7046C242.989 64.7046 242.516 64.8014 242.117 64.9951C241.718 65.1774 241.411 65.4451 241.194 65.7983C240.978 66.1401 240.87 66.5446 240.87 67.0117H235.948C235.948 66.2256 236.13 65.4793 236.495 64.7729C236.859 64.0666 237.389 63.4456 238.084 62.9102C238.779 62.3633 239.605 61.936 240.562 61.6284C241.53 61.3208 242.613 61.167 243.809 61.167C245.245 61.167 246.521 61.4062 247.637 61.8848C248.754 62.3633 249.631 63.0811 250.269 64.0381C250.918 64.9951 251.243 66.1914 251.243 67.627V75.5396C251.243 76.5535 251.306 77.3853 251.431 78.0347C251.556 78.6727 251.739 79.231 251.978 79.7095V80H247.005C246.766 79.4987 246.583 78.8721 246.458 78.1201C246.344 77.3568 246.287 76.5934 246.287 75.8301ZM246.937 68.7378L246.971 71.5234H244.219C243.57 71.5234 243.006 71.5975 242.527 71.7456C242.049 71.8937 241.656 72.1045 241.348 72.3779C241.041 72.64 240.813 72.9476 240.665 73.3008C240.528 73.654 240.459 74.0413 240.459 74.4629C240.459 74.8844 240.556 75.2661 240.75 75.6079C240.944 75.9383 241.223 76.2004 241.587 76.394C241.952 76.5763 242.379 76.6675 242.869 76.6675C243.61 76.6675 244.253 76.5194 244.8 76.2231C245.347 75.9269 245.769 75.5623 246.065 75.1294C246.373 74.6965 246.532 74.2863 246.543 73.8989L247.842 75.9839C247.66 76.451 247.409 76.9352 247.09 77.4365C246.783 77.9378 246.39 78.4106 245.911 78.855C245.433 79.2879 244.857 79.6468 244.185 79.9316C243.513 80.2051 242.715 80.3418 241.792 80.3418C240.619 80.3418 239.554 80.1082 238.597 79.6411C237.651 79.1626 236.899 78.5075 236.341 77.6758C235.794 76.8327 235.521 75.8757 235.521 74.8047C235.521 73.8363 235.703 72.9761 236.067 72.2241C236.432 71.4722 236.967 70.8398 237.674 70.3271C238.392 69.8031 239.286 69.41 240.357 69.1479C241.428 68.8745 242.67 68.7378 244.083 68.7378H246.937ZM259.856 65.4565V80H254.935V61.5088H259.549L259.856 65.4565ZM259.139 70.105H257.806C257.806 68.7378 257.982 67.5073 258.335 66.4136C258.689 65.3084 259.184 64.3685 259.822 63.5938C260.46 62.8076 261.218 62.2095 262.095 61.7993C262.984 61.3778 263.975 61.167 265.069 61.167C265.935 61.167 266.727 61.2923 267.444 61.543C268.162 61.7936 268.777 62.1924 269.29 62.7393C269.814 63.2861 270.213 64.0096 270.486 64.9097C270.771 65.8097 270.914 66.9092 270.914 68.208V80H265.958V68.1909C265.958 67.3706 265.844 66.7326 265.616 66.2769C265.388 65.8211 265.052 65.5021 264.607 65.3198C264.174 65.1261 263.639 65.0293 263.001 65.0293C262.34 65.0293 261.765 65.1603 261.275 65.4224C260.796 65.6844 260.398 66.049 260.079 66.5161C259.771 66.9718 259.537 67.5073 259.378 68.1226C259.218 68.7378 259.139 69.3986 259.139 70.105ZM279.476 65.4565V80H274.554V61.5088H279.168L279.476 65.4565ZM278.758 70.105H277.425C277.425 68.7378 277.601 67.5073 277.955 66.4136C278.308 65.3084 278.803 64.3685 279.441 63.5938C280.079 62.8076 280.837 62.2095 281.714 61.7993C282.603 61.3778 283.594 61.167 284.688 61.167C285.554 61.167 286.346 61.2923 287.063 61.543C287.781 61.7936 288.396 62.1924 288.909 62.7393C289.433 63.2861 289.832 64.0096 290.105 64.9097C290.39 65.8097 290.533 66.9092 290.533 68.208V80H285.577V68.1909C285.577 67.3706 285.463 66.7326 285.235 66.2769C285.007 65.8211 284.671 65.5021 284.227 65.3198C283.794 65.1261 283.258 65.0293 282.62 65.0293C281.959 65.0293 281.384 65.1603 280.894 65.4224C280.416 65.6844 280.017 66.049 279.698 66.5161C279.39 66.9718 279.157 67.5073 278.997 68.1226C278.838 68.7378 278.758 69.3986 278.758 70.105ZM293.489 70.9424V70.5835C293.489 69.2277 293.683 67.9801 294.07 66.8408C294.458 65.6901 295.022 64.6932 295.762 63.8501C296.503 63.007 297.414 62.3519 298.497 61.8848C299.579 61.4062 300.821 61.167 302.222 61.167C303.624 61.167 304.871 61.4062 305.965 61.8848C307.059 62.3519 307.976 63.007 308.716 63.8501C309.468 64.6932 310.038 65.6901 310.425 66.8408C310.813 67.9801 311.006 69.2277 311.006 70.5835V70.9424C311.006 72.2868 310.813 73.5343 310.425 74.6851C310.038 75.8244 309.468 76.8213 308.716 77.6758C307.976 78.5189 307.064 79.174 305.982 79.6411C304.9 80.1082 303.658 80.3418 302.256 80.3418C300.855 80.3418 299.607 80.1082 298.514 79.6411C297.431 79.174 296.514 78.5189 295.762 77.6758C295.022 76.8213 294.458 75.8244 294.07 74.6851C293.683 73.5343 293.489 72.2868 293.489 70.9424ZM298.411 70.5835V70.9424C298.411 71.7171 298.479 72.4406 298.616 73.1128C298.753 73.785 298.969 74.3774 299.266 74.8901C299.573 75.3914 299.972 75.7845 300.462 76.0693C300.952 76.3542 301.55 76.4966 302.256 76.4966C302.94 76.4966 303.527 76.3542 304.017 76.0693C304.507 75.7845 304.9 75.3914 305.196 74.8901C305.492 74.3774 305.708 73.785 305.845 73.1128C305.993 72.4406 306.067 71.7171 306.067 70.9424V70.5835C306.067 69.8315 305.993 69.1252 305.845 68.4644C305.708 67.7922 305.486 67.1997 305.179 66.687C304.882 66.1629 304.489 65.7528 304 65.4565C303.51 65.1603 302.917 65.0122 302.222 65.0122C301.527 65.0122 300.935 65.1603 300.445 65.4565C299.966 65.7528 299.573 66.1629 299.266 66.687C298.969 67.1997 298.753 67.7922 298.616 68.4644C298.479 69.1252 298.411 69.8315 298.411 70.5835ZM324.969 75.5737V61.5088H329.891V80H325.259L324.969 75.5737ZM325.516 71.7798L326.968 71.7456C326.968 72.9761 326.826 74.1211 326.541 75.1807C326.256 76.2288 325.829 77.1403 325.259 77.915C324.69 78.6784 323.972 79.2765 323.106 79.7095C322.24 80.131 321.22 80.3418 320.047 80.3418C319.147 80.3418 318.315 80.2165 317.552 79.9658C316.8 79.7038 316.15 79.2993 315.604 78.7524C315.068 78.1942 314.646 77.4821 314.339 76.6162C314.043 75.7389 313.895 74.6851 313.895 73.4546V61.5088H318.816V73.4888C318.816 74.0356 318.879 74.4971 319.004 74.873C319.141 75.249 319.329 75.5566 319.568 75.7959C319.808 76.0352 320.087 76.2061 320.406 76.3086C320.736 76.4111 321.101 76.4624 321.5 76.4624C322.514 76.4624 323.311 76.2573 323.892 75.8472C324.485 75.437 324.9 74.8787 325.14 74.1724C325.39 73.4546 325.516 72.6571 325.516 71.7798ZM338.572 65.542V80H333.65V61.5088H338.282L338.572 65.542ZM344.144 61.3892L344.058 65.9521C343.819 65.918 343.528 65.8895 343.187 65.8667C342.856 65.8325 342.554 65.8154 342.281 65.8154C341.586 65.8154 340.982 65.9066 340.469 66.0889C339.968 66.2598 339.546 66.5161 339.205 66.8579C338.874 67.1997 338.624 67.6156 338.453 68.1055C338.293 68.5954 338.202 69.1536 338.179 69.7803L337.188 69.4727C337.188 68.2764 337.308 67.1769 337.547 66.1743C337.786 65.1603 338.134 64.2773 338.589 63.5254C339.056 62.7734 339.626 62.1924 340.298 61.7822C340.971 61.3721 341.74 61.167 342.605 61.167C342.879 61.167 343.158 61.1898 343.443 61.2354C343.728 61.2695 343.961 61.3208 344.144 61.3892ZM352.261 77.915L357.166 61.5088H362.447L355.013 82.7856C354.853 83.2528 354.637 83.7541 354.363 84.2896C354.101 84.825 353.742 85.332 353.287 85.8105C352.842 86.3005 352.278 86.6992 351.595 87.0068C350.923 87.3145 350.097 87.4683 349.117 87.4683C348.65 87.4683 348.268 87.4398 347.972 87.3828C347.675 87.3258 347.322 87.2461 346.912 87.1436V83.5376C347.037 83.5376 347.168 83.5376 347.305 83.5376C347.442 83.549 347.573 83.5547 347.698 83.5547C348.348 83.5547 348.877 83.4806 349.288 83.3325C349.698 83.1844 350.028 82.9565 350.279 82.6489C350.529 82.3527 350.729 81.9653 350.877 81.4868L352.261 77.915ZM350.21 61.5088L354.227 74.9072L354.927 80.1196L351.578 80.4785L344.93 61.5088H350.21Z" fill="#888888"/>
<rect x="92" y="181" width="1200" height="80" rx="13.3333" fill="#5B2E0F"/>
<path d="M111.667 196.333H248.333C250.911 196.333 253 198.423 253 201V241C253 243.577 250.911 245.667 248.333 245.667H111.667C109.089 245.667 107 243.577 107 241V201C107 198.423 109.089 196.333 111.667 196.333Z" fill="#BA7F56" stroke="#BA7F56" stroke-width="4"/>
<path d="M146.448 216.354L142.75 228.333H138.823L144.396 213.167H146.885L146.448 216.354ZM149.51 228.333L145.802 216.354L145.323 213.167H147.844L153.448 228.333H149.51ZM149.365 222.677V225.5H141.583V222.677H149.365ZM161.479 217.062H164.667V227.896C164.667 228.937 164.427 229.819 163.948 230.542C163.469 231.271 162.799 231.823 161.938 232.198C161.083 232.58 160.083 232.771 158.938 232.771C158.431 232.771 157.913 232.705 157.385 232.573C156.858 232.448 156.365 232.26 155.906 232.01C155.448 231.76 155.063 231.451 154.75 231.083L156.219 229.021C156.503 229.34 156.861 229.611 157.292 229.833C157.722 230.062 158.229 230.177 158.813 230.177C159.319 230.177 159.743 230.087 160.083 229.906C160.431 229.726 160.694 229.462 160.875 229.115C161.056 228.774 161.146 228.361 161.146 227.875V219.729L161.479 217.062ZM153.99 222.833V222.615C153.99 221.76 154.094 220.983 154.302 220.281C154.517 219.573 154.823 218.965 155.219 218.458C155.622 217.944 156.108 217.549 156.677 217.271C157.247 216.993 157.889 216.854 158.604 216.854C159.375 216.854 160.007 217.003 160.5 217.302C161 217.594 161.399 218.003 161.698 218.531C162.003 219.059 162.24 219.677 162.406 220.385C162.58 221.087 162.726 221.844 162.844 222.656V222.917C162.726 223.681 162.563 224.403 162.354 225.083C162.153 225.757 161.889 226.354 161.563 226.875C161.236 227.396 160.826 227.806 160.333 228.104C159.847 228.396 159.264 228.542 158.583 228.542C157.875 228.542 157.236 228.399 156.667 228.115C156.104 227.83 155.622 227.431 155.219 226.917C154.823 226.403 154.517 225.799 154.302 225.104C154.094 224.41 153.99 223.653 153.99 222.833ZM157.5 222.615V222.833C157.5 223.257 157.538 223.649 157.615 224.01C157.698 224.372 157.823 224.691 157.99 224.969C158.156 225.24 158.361 225.451 158.604 225.604C158.854 225.757 159.146 225.833 159.479 225.833C159.986 225.833 160.396 225.726 160.708 225.51C161.021 225.295 161.247 224.99 161.385 224.594C161.524 224.198 161.583 223.733 161.563 223.198V222.375C161.576 221.917 161.545 221.514 161.469 221.167C161.392 220.812 161.271 220.517 161.104 220.281C160.944 220.045 160.729 219.868 160.458 219.75C160.194 219.625 159.875 219.562 159.5 219.562C159.174 219.562 158.885 219.639 158.635 219.792C158.385 219.944 158.177 220.16 158.01 220.437C157.844 220.708 157.715 221.031 157.625 221.406C157.542 221.774 157.5 222.177 157.5 222.615ZM166.25 222.812V222.594C166.25 221.767 166.368 221.007 166.604 220.312C166.84 219.611 167.187 219.003 167.646 218.49C168.104 217.976 168.67 217.576 169.344 217.292C170.017 217 170.795 216.854 171.677 216.854C172.566 216.854 173.347 217 174.021 217.292C174.701 217.576 175.271 217.976 175.729 218.49C176.187 219.003 176.535 219.611 176.771 220.312C177.007 221.007 177.125 221.767 177.125 222.594V222.812C177.125 223.632 177.007 224.392 176.771 225.094C176.535 225.788 176.187 226.396 175.729 226.917C175.271 227.431 174.705 227.83 174.031 228.115C173.358 228.399 172.58 228.542 171.698 228.542C170.816 228.542 170.035 228.399 169.354 228.115C168.674 227.83 168.104 227.431 167.646 226.917C167.187 226.396 166.84 225.788 166.604 225.094C166.368 224.392 166.25 223.632 166.25 222.812ZM169.76 222.594V222.812C169.76 223.236 169.792 223.632 169.854 224C169.917 224.368 170.021 224.691 170.167 224.969C170.312 225.24 170.51 225.451 170.76 225.604C171.01 225.757 171.323 225.833 171.698 225.833C172.066 225.833 172.372 225.757 172.615 225.604C172.865 225.451 173.062 225.24 173.208 224.969C173.354 224.691 173.458 224.368 173.521 224C173.583 223.632 173.615 223.236 173.615 222.812V222.594C173.615 222.184 173.583 221.799 173.521 221.437C173.458 221.069 173.354 220.747 173.208 220.469C173.062 220.184 172.865 219.962 172.615 219.802C172.365 219.642 172.052 219.562 171.677 219.562C171.309 219.562 171 219.642 170.75 219.802C170.507 219.962 170.312 220.184 170.167 220.469C170.021 220.747 169.917 221.069 169.854 221.437C169.792 221.799 169.76 222.184 169.76 222.594ZM182.229 219.854V228.333H178.719V217.062H182L182.229 219.854ZM185.563 216.979L185.5 220.24C185.361 220.226 185.174 220.208 184.938 220.187C184.701 220.167 184.503 220.156 184.344 220.156C183.934 220.156 183.58 220.205 183.281 220.302C182.99 220.392 182.747 220.531 182.552 220.719C182.365 220.899 182.226 221.128 182.135 221.406C182.052 221.684 182.014 222.007 182.021 222.375L181.385 221.958C181.385 221.201 181.458 220.514 181.604 219.896C181.757 219.271 181.972 218.733 182.25 218.281C182.528 217.823 182.865 217.472 183.26 217.229C183.656 216.979 184.101 216.854 184.594 216.854C184.767 216.854 184.938 216.865 185.104 216.885C185.278 216.906 185.431 216.937 185.563 216.979ZM192.313 225.5V220.854C192.313 220.535 192.267 220.26 192.177 220.031C192.087 219.802 191.944 219.625 191.75 219.5C191.556 219.368 191.295 219.302 190.969 219.302C190.705 219.302 190.479 219.347 190.292 219.437C190.104 219.528 189.962 219.663 189.865 219.844C189.767 220.024 189.719 220.253 189.719 220.531H186.208C186.208 220.01 186.323 219.528 186.552 219.083C186.788 218.632 187.122 218.24 187.552 217.906C187.99 217.573 188.51 217.316 189.115 217.135C189.726 216.948 190.406 216.854 191.156 216.854C192.052 216.854 192.851 217.003 193.552 217.302C194.26 217.601 194.819 218.049 195.229 218.646C195.639 219.236 195.844 219.979 195.844 220.875V225.49C195.844 226.226 195.885 226.785 195.969 227.167C196.052 227.542 196.17 227.872 196.323 228.156V228.333H192.802C192.635 227.986 192.51 227.562 192.427 227.062C192.351 226.556 192.313 226.035 192.313 225.5ZM192.74 221.448L192.76 223.323H191.208C190.882 223.323 190.604 223.368 190.375 223.458C190.153 223.549 189.972 223.674 189.833 223.833C189.701 223.986 189.604 224.16 189.542 224.354C189.486 224.549 189.458 224.753 189.458 224.969C189.458 225.177 189.507 225.365 189.604 225.531C189.708 225.691 189.847 225.816 190.021 225.906C190.194 225.997 190.389 226.042 190.604 226.042C190.993 226.042 191.323 225.969 191.594 225.823C191.872 225.67 192.083 225.486 192.229 225.271C192.375 225.056 192.448 224.854 192.448 224.667L193.219 226.104C193.08 226.382 192.92 226.663 192.74 226.948C192.566 227.233 192.347 227.497 192.083 227.74C191.826 227.976 191.51 228.17 191.135 228.323C190.76 228.469 190.306 228.542 189.771 228.542C189.076 228.542 188.438 228.399 187.854 228.115C187.278 227.83 186.816 227.434 186.469 226.927C186.122 226.413 185.948 225.823 185.948 225.156C185.948 224.573 186.052 224.052 186.26 223.594C186.476 223.135 186.799 222.747 187.229 222.427C187.66 222.108 188.208 221.865 188.875 221.698C189.542 221.531 190.326 221.448 191.229 221.448H192.74ZM198.021 226.687C198.021 226.187 198.201 225.771 198.562 225.437C198.924 225.097 199.389 224.927 199.958 224.927C200.535 224.927 201 225.097 201.354 225.437C201.715 225.771 201.896 226.187 201.896 226.687C201.896 227.187 201.715 227.608 201.354 227.948C201 228.281 200.535 228.448 199.958 228.448C199.389 228.448 198.924 228.281 198.562 227.948C198.201 227.608 198.021 227.187 198.021 226.687ZM207.958 217.062V228.333H204.438V217.062H207.958ZM204.229 214.156C204.229 213.656 204.41 213.247 204.771 212.927C205.132 212.608 205.601 212.448 206.177 212.448C206.753 212.448 207.222 212.608 207.583 212.927C207.944 213.247 208.125 213.656 208.125 214.156C208.125 214.656 207.944 215.066 207.583 215.385C207.222 215.705 206.753 215.865 206.177 215.865C205.601 215.865 205.132 215.705 204.771 215.385C204.41 215.066 204.229 214.656 204.229 214.156ZM209.688 222.812V222.594C209.688 221.767 209.806 221.007 210.042 220.312C210.278 219.611 210.625 219.003 211.083 218.49C211.542 217.976 212.108 217.576 212.781 217.292C213.455 217 214.233 216.854 215.115 216.854C216.003 216.854 216.785 217 217.458 217.292C218.139 217.576 218.708 217.976 219.167 218.49C219.625 219.003 219.972 219.611 220.208 220.312C220.444 221.007 220.563 221.767 220.563 222.594V222.812C220.563 223.632 220.444 224.392 220.208 225.094C219.972 225.788 219.625 226.396 219.167 226.917C218.708 227.431 218.142 227.83 217.469 228.115C216.795 228.399 216.017 228.542 215.135 228.542C214.253 228.542 213.472 228.399 212.792 228.115C212.111 227.83 211.542 227.431 211.083 226.917C210.625 226.396 210.278 225.788 210.042 225.094C209.806 224.392 209.688 223.632 209.688 222.812ZM213.198 222.594V222.812C213.198 223.236 213.229 223.632 213.292 224C213.354 224.368 213.458 224.691 213.604 224.969C213.75 225.24 213.948 225.451 214.198 225.604C214.448 225.757 214.76 225.833 215.135 225.833C215.503 225.833 215.809 225.757 216.052 225.604C216.302 225.451 216.5 225.24 216.646 224.969C216.792 224.691 216.896 224.368 216.958 224C217.021 223.632 217.052 223.236 217.052 222.812V222.594C217.052 222.184 217.021 221.799 216.958 221.437C216.896 221.069 216.792 220.747 216.646 220.469C216.5 220.184 216.302 219.962 216.052 219.802C215.802 219.642 215.49 219.562 215.115 219.562C214.747 219.562 214.438 219.642 214.188 219.802C213.944 219.962 213.75 220.184 213.604 220.469C213.458 220.747 213.354 221.069 213.292 221.437C213.229 221.799 213.198 222.184 213.198 222.594Z" fill="#F0F0F0"/>
<path d="M281.667 196.333H418.333C420.911 196.333 423 198.423 423 201V241C423 243.577 420.911 245.667 418.333 245.667H281.667C279.089 245.667 277 243.577 277 241V201C277 198.423 279.089 196.333 281.667 196.333Z" fill="#BA7F56" stroke="#BA7F56" stroke-width="4"/>
<path d="M323.5 213.167H329.469C330.635 213.167 331.649 213.34 332.51 213.687C333.372 214.035 334.035 214.549 334.5 215.229C334.972 215.91 335.208 216.75 335.208 217.75C335.208 218.618 335.073 219.344 334.802 219.927C334.531 220.51 334.153 220.993 333.667 221.375C333.188 221.75 332.628 222.059 331.99 222.302L330.792 222.979H325.781L325.76 220.156H329.469C329.934 220.156 330.319 220.073 330.625 219.906C330.931 219.74 331.16 219.503 331.313 219.198C331.472 218.885 331.552 218.514 331.552 218.083C331.552 217.646 331.472 217.271 331.313 216.958C331.153 216.646 330.917 216.406 330.604 216.24C330.299 216.073 329.92 215.99 329.469 215.99H327.156V228.333H323.5V213.167ZM331.802 228.333L328.448 221.625L332.323 221.604L335.719 228.177V228.333H331.802ZM342.708 228.542C341.792 228.542 340.972 228.399 340.25 228.115C339.528 227.823 338.917 227.424 338.417 226.917C337.924 226.41 337.545 225.826 337.281 225.167C337.024 224.507 336.896 223.809 336.896 223.073V222.677C336.896 221.851 337.01 221.087 337.24 220.385C337.469 219.677 337.809 219.059 338.26 218.531C338.712 218.003 339.278 217.594 339.958 217.302C340.639 217.003 341.431 216.854 342.333 216.854C343.132 216.854 343.847 216.983 344.479 217.24C345.111 217.497 345.646 217.865 346.083 218.344C346.528 218.823 346.865 219.403 347.094 220.083C347.33 220.764 347.448 221.528 347.448 222.375V223.802H338.24V221.604H344.021V221.333C344.028 220.958 343.962 220.639 343.823 220.375C343.691 220.111 343.497 219.91 343.24 219.771C342.983 219.632 342.67 219.562 342.302 219.562C341.92 219.562 341.604 219.646 341.354 219.812C341.111 219.979 340.92 220.208 340.781 220.5C340.649 220.785 340.556 221.115 340.5 221.49C340.444 221.865 340.417 222.26 340.417 222.677V223.073C340.417 223.49 340.472 223.868 340.583 224.208C340.701 224.549 340.868 224.84 341.083 225.083C341.306 225.319 341.569 225.503 341.875 225.635C342.188 225.767 342.542 225.833 342.938 225.833C343.417 225.833 343.889 225.743 344.354 225.562C344.819 225.382 345.219 225.083 345.552 224.667L347.146 226.562C346.917 226.889 346.59 227.205 346.167 227.51C345.75 227.816 345.25 228.066 344.667 228.26C344.083 228.448 343.431 228.542 342.708 228.542ZM354.729 225.5V220.854C354.729 220.535 354.684 220.26 354.594 220.031C354.503 219.802 354.361 219.625 354.167 219.5C353.972 219.368 353.712 219.302 353.385 219.302C353.122 219.302 352.896 219.347 352.708 219.437C352.521 219.528 352.378 219.663 352.281 219.844C352.184 220.024 352.135 220.253 352.135 220.531H348.625C348.625 220.01 348.74 219.528 348.969 219.083C349.205 218.632 349.538 218.24 349.969 217.906C350.406 217.573 350.927 217.316 351.531 217.135C352.142 216.948 352.823 216.854 353.573 216.854C354.469 216.854 355.267 217.003 355.969 217.302C356.677 217.601 357.236 218.049 357.646 218.646C358.056 219.236 358.26 219.979 358.26 220.875V225.49C358.26 226.226 358.302 226.785 358.385 227.167C358.469 227.542 358.587 227.872 358.74 228.156V228.333H355.219C355.052 227.986 354.927 227.562 354.844 227.062C354.767 226.556 354.729 226.035 354.729 225.5ZM355.156 221.448L355.177 223.323H353.625C353.299 223.323 353.021 223.368 352.792 223.458C352.569 223.549 352.389 223.674 352.25 223.833C352.118 223.986 352.021 224.16 351.958 224.354C351.903 224.549 351.875 224.753 351.875 224.969C351.875 225.177 351.924 225.365 352.021 225.531C352.125 225.691 352.264 225.816 352.438 225.906C352.611 225.997 352.806 226.042 353.021 226.042C353.41 226.042 353.74 225.969 354.01 225.823C354.288 225.67 354.5 225.486 354.646 225.271C354.792 225.056 354.865 224.854 354.865 224.667L355.635 226.104C355.497 226.382 355.337 226.663 355.156 226.948C354.983 227.233 354.764 227.497 354.5 227.74C354.243 227.976 353.927 228.17 353.552 228.323C353.177 228.469 352.722 228.542 352.188 228.542C351.493 228.542 350.854 228.399 350.271 228.115C349.694 227.83 349.233 227.434 348.885 226.927C348.538 226.413 348.365 225.823 348.365 225.156C348.365 224.573 348.469 224.052 348.677 223.594C348.892 223.135 349.215 222.747 349.646 222.427C350.076 222.108 350.625 221.865 351.292 221.698C351.958 221.531 352.743 221.448 353.646 221.448H355.156ZM364.969 225.833C365.295 225.833 365.573 225.774 365.802 225.656C366.038 225.531 366.215 225.358 366.333 225.135C366.458 224.906 366.517 224.632 366.51 224.312H369.813C369.819 225.16 369.611 225.903 369.188 226.542C368.771 227.174 368.201 227.667 367.479 228.021C366.764 228.368 365.955 228.542 365.052 228.542C364.17 228.542 363.399 228.399 362.74 228.115C362.08 227.823 361.528 227.42 361.083 226.906C360.646 226.385 360.316 225.778 360.094 225.083C359.878 224.389 359.771 223.635 359.771 222.823V222.583C359.771 221.771 359.878 221.017 360.094 220.323C360.316 219.622 360.646 219.014 361.083 218.5C361.528 217.979 362.076 217.576 362.729 217.292C363.389 217 364.156 216.854 365.031 216.854C365.969 216.854 366.795 217.031 367.51 217.385C368.233 217.74 368.799 218.253 369.208 218.927C369.618 219.601 369.819 220.417 369.813 221.375H366.51C366.517 221.035 366.465 220.729 366.354 220.458C366.243 220.187 366.069 219.972 365.833 219.812C365.604 219.646 365.309 219.562 364.948 219.562C364.587 219.562 364.295 219.642 364.073 219.802C363.851 219.962 363.681 220.184 363.563 220.469C363.451 220.747 363.375 221.066 363.333 221.427C363.299 221.788 363.281 222.174 363.281 222.583V222.823C363.281 223.24 363.299 223.632 363.333 224C363.375 224.361 363.455 224.681 363.573 224.958C363.691 225.229 363.861 225.444 364.083 225.604C364.306 225.757 364.601 225.833 364.969 225.833ZM377.25 217.062V219.5H370.458V217.062H377.25ZM371.885 214.26H375.396V224.656C375.396 224.955 375.431 225.187 375.5 225.354C375.569 225.514 375.688 225.628 375.854 225.698C376.028 225.76 376.257 225.792 376.542 225.792C376.743 225.792 376.91 225.788 377.042 225.781C377.174 225.767 377.299 225.75 377.417 225.729V228.24C377.118 228.337 376.806 228.41 376.479 228.458C376.153 228.514 375.806 228.542 375.438 228.542C374.688 228.542 374.045 228.424 373.51 228.187C372.983 227.951 372.58 227.58 372.302 227.073C372.024 226.566 371.885 225.906 371.885 225.094V214.26Z" fill="#F0F0F0"/>
<path d="M451.667 196.333H588.333C590.911 196.333 593 198.423 593 201V241C593 243.577 590.911 245.667 588.333 245.667H451.667C449.089 245.667 447 243.577 447 241V201C447 198.423 449.089 196.333 451.667 196.333Z" fill="#BA7F56" stroke="#BA7F56" stroke-width="4"/>
<path d="M497.052 212.167V227.333H493.406L488.042 217.896V227.333H484.385V212.167H488.042L493.406 221.604V212.167H497.052ZM498.76 221.812V221.594C498.76 220.767 498.878 220.007 499.115 219.312C499.351 218.611 499.698 218.003 500.156 217.49C500.615 216.976 501.181 216.576 501.854 216.292C502.528 216 503.306 215.854 504.188 215.854C505.076 215.854 505.858 216 506.531 216.292C507.212 216.576 507.781 216.976 508.24 217.49C508.698 218.003 509.045 218.611 509.281 219.312C509.517 220.007 509.635 220.767 509.635 221.594V221.812C509.635 222.632 509.517 223.392 509.281 224.094C509.045 224.788 508.698 225.396 508.24 225.917C507.781 226.431 507.215 226.83 506.542 227.115C505.868 227.399 505.09 227.542 504.208 227.542C503.326 227.542 502.545 227.399 501.865 227.115C501.184 226.83 500.615 226.431 500.156 225.917C499.698 225.396 499.351 224.788 499.115 224.094C498.878 223.392 498.76 222.632 498.76 221.812ZM502.271 221.594V221.812C502.271 222.236 502.302 222.632 502.365 223C502.427 223.368 502.531 223.691 502.677 223.969C502.823 224.24 503.021 224.451 503.271 224.604C503.521 224.757 503.833 224.833 504.208 224.833C504.576 224.833 504.882 224.757 505.125 224.604C505.375 224.451 505.573 224.24 505.719 223.969C505.865 223.691 505.969 223.368 506.031 223C506.094 222.632 506.125 222.236 506.125 221.812V221.594C506.125 221.184 506.094 220.799 506.031 220.437C505.969 220.069 505.865 219.747 505.719 219.469C505.573 219.184 505.375 218.962 505.125 218.802C504.875 218.642 504.563 218.562 504.188 218.562C503.819 218.562 503.51 218.642 503.26 218.802C503.017 218.962 502.823 219.184 502.677 219.469C502.531 219.747 502.427 220.069 502.365 220.437C502.302 220.799 502.271 221.184 502.271 221.594ZM517.677 224.75V211.333H521.208V227.333H518.042L517.677 224.75ZM510.76 221.833V221.615C510.76 220.76 510.854 219.983 511.042 219.281C511.229 218.573 511.507 217.965 511.875 217.458C512.243 216.944 512.701 216.549 513.25 216.271C513.799 215.993 514.431 215.854 515.146 215.854C515.785 215.854 516.344 216.003 516.823 216.302C517.302 216.594 517.712 217.003 518.052 217.531C518.392 218.059 518.67 218.677 518.885 219.385C519.101 220.087 519.264 220.844 519.375 221.656V221.917C519.264 222.681 519.101 223.403 518.885 224.083C518.67 224.757 518.392 225.354 518.052 225.875C517.712 226.396 517.299 226.806 516.813 227.104C516.333 227.396 515.771 227.542 515.125 227.542C514.41 227.542 513.778 227.399 513.229 227.115C512.688 226.83 512.233 226.431 511.865 225.917C511.503 225.403 511.229 224.799 511.042 224.104C510.854 223.41 510.76 222.653 510.76 221.833ZM514.271 221.615V221.833C514.271 222.257 514.299 222.649 514.354 223.01C514.41 223.372 514.503 223.691 514.635 223.969C514.774 224.24 514.955 224.451 515.177 224.604C515.406 224.757 515.688 224.833 516.021 224.833C516.472 224.833 516.844 224.726 517.135 224.51C517.434 224.295 517.653 223.99 517.792 223.594C517.938 223.198 518 222.733 517.979 222.198V221.375C517.993 220.917 517.962 220.514 517.885 220.167C517.809 219.812 517.688 219.517 517.521 219.281C517.361 219.045 517.156 218.868 516.906 218.75C516.663 218.625 516.375 218.562 516.042 218.562C515.715 218.562 515.438 218.639 515.208 218.792C514.986 218.944 514.806 219.16 514.667 219.437C514.528 219.708 514.427 220.031 514.365 220.406C514.302 220.774 514.271 221.177 514.271 221.615ZM528.656 227.542C527.74 227.542 526.92 227.399 526.198 227.115C525.476 226.823 524.865 226.424 524.365 225.917C523.872 225.41 523.493 224.826 523.229 224.167C522.972 223.507 522.844 222.809 522.844 222.073V221.677C522.844 220.851 522.958 220.087 523.188 219.385C523.417 218.677 523.757 218.059 524.208 217.531C524.66 217.003 525.226 216.594 525.906 216.302C526.587 216.003 527.378 215.854 528.281 215.854C529.08 215.854 529.795 215.983 530.427 216.24C531.059 216.497 531.594 216.865 532.031 217.344C532.476 217.823 532.813 218.403 533.042 219.083C533.278 219.764 533.396 220.528 533.396 221.375V222.802H524.188V220.604H529.969V220.333C529.976 219.958 529.91 219.639 529.771 219.375C529.639 219.111 529.444 218.91 529.188 218.771C528.931 218.632 528.618 218.562 528.25 218.562C527.868 218.562 527.552 218.646 527.302 218.812C527.059 218.979 526.868 219.208 526.729 219.5C526.597 219.785 526.503 220.115 526.448 220.49C526.392 220.865 526.365 221.26 526.365 221.677V222.073C526.365 222.49 526.42 222.868 526.531 223.208C526.649 223.549 526.816 223.84 527.031 224.083C527.253 224.319 527.517 224.503 527.823 224.635C528.135 224.767 528.49 224.833 528.885 224.833C529.365 224.833 529.837 224.743 530.302 224.562C530.767 224.382 531.167 224.083 531.5 223.667L533.094 225.562C532.865 225.889 532.538 226.205 532.115 226.51C531.698 226.816 531.198 227.066 530.615 227.26C530.031 227.448 529.378 227.542 528.656 227.542ZM541.021 222.573V212.167H544.667V222.573C544.667 223.587 544.434 224.465 543.969 225.208C543.51 225.951 542.885 226.528 542.094 226.937C541.309 227.34 540.427 227.542 539.448 227.542C538.434 227.542 537.531 227.372 536.74 227.031C535.955 226.691 535.337 226.167 534.885 225.458C534.441 224.75 534.219 223.847 534.219 222.75H537.885C537.885 223.264 537.944 223.667 538.063 223.958C538.181 224.243 538.354 224.444 538.583 224.562C538.819 224.674 539.108 224.729 539.448 224.729C539.781 224.729 540.063 224.646 540.292 224.479C540.528 224.306 540.708 224.059 540.833 223.74C540.958 223.413 541.021 223.024 541.021 222.573ZM552.729 224.167C552.729 223.972 552.663 223.806 552.531 223.667C552.406 223.521 552.184 223.389 551.865 223.271C551.545 223.146 551.097 223.021 550.521 222.896C549.972 222.778 549.455 222.622 548.969 222.427C548.49 222.233 548.069 221.997 547.708 221.719C547.347 221.441 547.063 221.111 546.854 220.729C546.653 220.347 546.552 219.91 546.552 219.417C546.552 218.937 546.653 218.486 546.854 218.062C547.063 217.632 547.365 217.253 547.76 216.927C548.163 216.594 548.653 216.333 549.229 216.146C549.806 215.951 550.462 215.854 551.198 215.854C552.212 215.854 553.087 216.01 553.823 216.323C554.559 216.628 555.125 217.059 555.521 217.615C555.924 218.163 556.125 218.799 556.125 219.521H552.615C552.615 219.236 552.566 218.993 552.469 218.792C552.378 218.59 552.229 218.437 552.021 218.333C551.813 218.222 551.535 218.167 551.188 218.167C550.944 218.167 550.722 218.212 550.521 218.302C550.326 218.392 550.17 218.517 550.052 218.677C549.934 218.837 549.875 219.024 549.875 219.24C549.875 219.392 549.91 219.531 549.979 219.656C550.056 219.774 550.17 219.885 550.323 219.99C550.476 220.087 550.67 220.177 550.906 220.26C551.142 220.337 551.427 220.406 551.76 220.469C552.517 220.608 553.226 220.806 553.885 221.062C554.545 221.319 555.08 221.684 555.49 222.156C555.906 222.628 556.115 223.264 556.115 224.062C556.115 224.562 556 225.024 555.771 225.448C555.542 225.865 555.212 226.233 554.781 226.552C554.351 226.865 553.833 227.108 553.229 227.281C552.625 227.455 551.944 227.542 551.188 227.542C550.111 227.542 549.201 227.351 548.458 226.969C547.715 226.58 547.153 226.094 546.771 225.51C546.396 224.92 546.208 224.323 546.208 223.719H549.479C549.493 224.066 549.576 224.351 549.729 224.573C549.889 224.795 550.101 224.958 550.365 225.062C550.628 225.167 550.934 225.219 551.281 225.219C551.601 225.219 551.865 225.174 552.073 225.083C552.288 224.993 552.451 224.872 552.563 224.719C552.674 224.559 552.729 224.375 552.729 224.167Z" fill="#F0F0F0"/>
<path d="M621.667 196.333H758.333C760.911 196.333 763 198.423 763 201V241C763 243.577 760.911 245.667 758.333 245.667H621.667C619.089 245.667 617 243.577 617 241V201C617 198.423 619.089 196.333 621.667 196.333Z" fill="#BA7F56" stroke="#BA7F56" stroke-width="4"/>
<path d="M629.833 213.167H635.802C636.969 213.167 637.983 213.34 638.844 213.687C639.705 214.035 640.368 214.549 640.833 215.229C641.306 215.91 641.542 216.75 641.542 217.75C641.542 218.618 641.406 219.344 641.135 219.927C640.865 220.51 640.486 220.993 640 221.375C639.521 221.75 638.962 222.059 638.323 222.302L637.125 222.979H632.115L632.094 220.156H635.802C636.267 220.156 636.653 220.073 636.958 219.906C637.264 219.74 637.493 219.503 637.646 219.198C637.806 218.885 637.885 218.514 637.885 218.083C637.885 217.646 637.806 217.271 637.646 216.958C637.486 216.646 637.25 216.406 636.937 216.24C636.632 216.073 636.253 215.99 635.802 215.99H633.49V228.333H629.833V213.167ZM638.135 228.333L634.781 221.625L638.656 221.604L642.052 228.177V228.333H638.135ZM649.042 228.542C648.125 228.542 647.306 228.399 646.583 228.115C645.861 227.823 645.25 227.424 644.75 226.917C644.257 226.41 643.878 225.826 643.615 225.167C643.358 224.507 643.229 223.809 643.229 223.073V222.677C643.229 221.851 643.344 221.087 643.573 220.385C643.802 219.677 644.142 219.059 644.594 218.531C645.045 218.003 645.611 217.594 646.292 217.302C646.972 217.003 647.764 216.854 648.667 216.854C649.465 216.854 650.181 216.983 650.813 217.24C651.444 217.497 651.979 217.865 652.417 218.344C652.861 218.823 653.198 219.403 653.427 220.083C653.663 220.764 653.781 221.528 653.781 222.375V223.802H644.573V221.604H650.354V221.333C650.361 220.958 650.295 220.639 650.156 220.375C650.024 220.111 649.83 219.91 649.573 219.771C649.316 219.632 649.003 219.562 648.635 219.562C648.253 219.562 647.938 219.646 647.688 219.812C647.444 219.979 647.253 220.208 647.115 220.5C646.983 220.785 646.889 221.115 646.833 221.49C646.778 221.865 646.75 222.26 646.75 222.677V223.073C646.75 223.49 646.806 223.868 646.917 224.208C647.035 224.549 647.201 224.84 647.417 225.083C647.639 225.319 647.903 225.503 648.208 225.635C648.521 225.767 648.875 225.833 649.271 225.833C649.75 225.833 650.222 225.743 650.688 225.562C651.153 225.382 651.552 225.083 651.885 224.667L653.479 226.562C653.25 226.889 652.924 227.205 652.5 227.51C652.083 227.816 651.583 228.066 651 228.26C650.417 228.448 649.764 228.542 649.042 228.542ZM661.063 225.5V220.854C661.063 220.535 661.017 220.26 660.927 220.031C660.837 219.802 660.694 219.625 660.5 219.5C660.306 219.368 660.045 219.302 659.719 219.302C659.455 219.302 659.229 219.347 659.042 219.437C658.854 219.528 658.712 219.663 658.615 219.844C658.517 220.024 658.469 220.253 658.469 220.531H654.958C654.958 220.01 655.073 219.528 655.302 219.083C655.538 218.632 655.872 218.24 656.302 217.906C656.74 217.573 657.26 217.316 657.865 217.135C658.476 216.948 659.156 216.854 659.906 216.854C660.802 216.854 661.601 217.003 662.302 217.302C663.01 217.601 663.569 218.049 663.979 218.646C664.389 219.236 664.594 219.979 664.594 220.875V225.49C664.594 226.226 664.635 226.785 664.719 227.167C664.802 227.542 664.92 227.872 665.073 228.156V228.333H661.552C661.385 227.986 661.26 227.562 661.177 227.062C661.101 226.556 661.063 226.035 661.063 225.5ZM661.49 221.448L661.51 223.323H659.958C659.632 223.323 659.354 223.368 659.125 223.458C658.903 223.549 658.722 223.674 658.583 223.833C658.451 223.986 658.354 224.16 658.292 224.354C658.236 224.549 658.208 224.753 658.208 224.969C658.208 225.177 658.257 225.365 658.354 225.531C658.458 225.691 658.597 225.816 658.771 225.906C658.944 225.997 659.139 226.042 659.354 226.042C659.743 226.042 660.073 225.969 660.344 225.823C660.622 225.67 660.833 225.486 660.979 225.271C661.125 225.056 661.198 224.854 661.198 224.667L661.969 226.104C661.83 226.382 661.67 226.663 661.49 226.948C661.316 227.233 661.097 227.497 660.833 227.74C660.576 227.976 660.26 228.17 659.885 228.323C659.51 228.469 659.056 228.542 658.521 228.542C657.826 228.542 657.188 228.399 656.604 228.115C656.028 227.83 655.566 227.434 655.219 226.927C654.872 226.413 654.698 225.823 654.698 225.156C654.698 224.573 654.802 224.052 655.01 223.594C655.226 223.135 655.549 222.747 655.979 222.427C656.41 222.108 656.958 221.865 657.625 221.698C658.292 221.531 659.076 221.448 659.979 221.448H661.49ZM671.302 225.833C671.628 225.833 671.906 225.774 672.135 225.656C672.372 225.531 672.549 225.358 672.667 225.135C672.792 224.906 672.851 224.632 672.844 224.312H676.146C676.153 225.16 675.944 225.903 675.521 226.542C675.104 227.174 674.535 227.667 673.812 228.021C673.097 228.368 672.288 228.542 671.385 228.542C670.503 228.542 669.733 228.399 669.073 228.115C668.413 227.823 667.861 227.42 667.417 226.906C666.979 226.385 666.649 225.778 666.427 225.083C666.212 224.389 666.104 223.635 666.104 222.823V222.583C666.104 221.771 666.212 221.017 666.427 220.323C666.649 219.622 666.979 219.014 667.417 218.5C667.861 217.979 668.41 217.576 669.062 217.292C669.722 217 670.49 216.854 671.365 216.854C672.302 216.854 673.128 217.031 673.844 217.385C674.566 217.74 675.132 218.253 675.542 218.927C675.951 219.601 676.153 220.417 676.146 221.375H672.844C672.851 221.035 672.799 220.729 672.687 220.458C672.576 220.187 672.403 219.972 672.167 219.812C671.937 219.646 671.642 219.562 671.281 219.562C670.92 219.562 670.628 219.642 670.406 219.802C670.184 219.962 670.014 220.184 669.896 220.469C669.785 220.747 669.708 221.066 669.667 221.427C669.632 221.788 669.615 222.174 669.615 222.583V222.823C669.615 223.24 669.632 223.632 669.667 224C669.708 224.361 669.788 224.681 669.906 224.958C670.024 225.229 670.194 225.444 670.417 225.604C670.639 225.757 670.934 225.833 671.302 225.833ZM683.583 217.062V219.5H676.792V217.062H683.583ZM678.219 214.26H681.729V224.656C681.729 224.955 681.764 225.187 681.833 225.354C681.903 225.514 682.021 225.628 682.188 225.698C682.361 225.76 682.59 225.792 682.875 225.792C683.076 225.792 683.243 225.788 683.375 225.781C683.507 225.767 683.632 225.75 683.75 225.729V228.24C683.451 228.337 683.139 228.41 682.813 228.458C682.486 228.514 682.139 228.542 681.771 228.542C681.021 228.542 680.378 228.424 679.844 228.187C679.316 227.951 678.913 227.58 678.635 227.073C678.358 226.566 678.219 225.906 678.219 225.094V214.26ZM703.125 213.167V228.333H699.479L694.115 218.896V228.333H690.458V213.167H694.115L699.479 222.604V213.167H703.125ZM711.125 225.5V220.854C711.125 220.535 711.08 220.26 710.99 220.031C710.899 219.802 710.757 219.625 710.563 219.5C710.368 219.368 710.108 219.302 709.781 219.302C709.517 219.302 709.292 219.347 709.104 219.437C708.917 219.528 708.774 219.663 708.677 219.844C708.58 220.024 708.531 220.253 708.531 220.531H705.021C705.021 220.01 705.135 219.528 705.365 219.083C705.601 218.632 705.934 218.24 706.365 217.906C706.802 217.573 707.323 217.316 707.927 217.135C708.538 216.948 709.219 216.854 709.969 216.854C710.865 216.854 711.663 217.003 712.365 217.302C713.073 217.601 713.632 218.049 714.042 218.646C714.451 219.236 714.656 219.979 714.656 220.875V225.49C714.656 226.226 714.698 226.785 714.781 227.167C714.865 227.542 714.983 227.872 715.135 228.156V228.333H711.615C711.448 227.986 711.323 227.562 711.24 227.062C711.163 226.556 711.125 226.035 711.125 225.5ZM711.552 221.448L711.573 223.323H710.021C709.694 223.323 709.417 223.368 709.188 223.458C708.965 223.549 708.785 223.674 708.646 223.833C708.514 223.986 708.417 224.16 708.354 224.354C708.299 224.549 708.271 224.753 708.271 224.969C708.271 225.177 708.319 225.365 708.417 225.531C708.521 225.691 708.66 225.816 708.833 225.906C709.007 225.997 709.201 226.042 709.417 226.042C709.806 226.042 710.135 225.969 710.406 225.823C710.684 225.67 710.896 225.486 711.042 225.271C711.188 225.056 711.26 224.854 711.26 224.667L712.031 226.104C711.892 226.382 711.733 226.663 711.552 226.948C711.378 227.233 711.16 227.497 710.896 227.74C710.639 227.976 710.323 228.17 709.948 228.323C709.573 228.469 709.118 228.542 708.583 228.542C707.889 228.542 707.25 228.399 706.667 228.115C706.09 227.83 705.628 227.434 705.281 226.927C704.934 226.413 704.76 225.823 704.76 225.156C704.76 224.573 704.865 224.052 705.073 223.594C705.288 223.135 705.611 222.747 706.042 222.427C706.472 222.108 707.021 221.865 707.688 221.698C708.354 221.531 709.139 221.448 710.042 221.448H711.552ZM722.542 217.062V219.5H715.75V217.062H722.542ZM717.177 214.26H720.687V224.656C720.687 224.955 720.722 225.187 720.792 225.354C720.861 225.514 720.979 225.628 721.146 225.698C721.319 225.76 721.549 225.792 721.833 225.792C722.035 225.792 722.201 225.788 722.333 225.781C722.465 225.767 722.59 225.75 722.708 225.729V228.24C722.41 228.337 722.097 228.41 721.771 228.458C721.444 228.514 721.097 228.542 720.729 228.542C719.979 228.542 719.337 228.424 718.802 228.187C718.274 227.951 717.872 227.58 717.594 227.073C717.316 226.566 717.177 225.906 717.177 225.094V214.26ZM727.646 217.062V228.333H724.125V217.062H727.646ZM723.917 214.156C723.917 213.656 724.097 213.247 724.458 212.927C724.819 212.608 725.288 212.448 725.865 212.448C726.441 212.448 726.91 212.608 727.271 212.927C727.632 213.247 727.813 213.656 727.813 214.156C727.813 214.656 727.632 215.066 727.271 215.385C726.91 215.705 726.441 215.865 725.865 215.865C725.288 215.865 724.819 215.705 724.458 215.385C724.097 215.066 723.917 214.656 723.917 214.156ZM733.875 225.927L736.094 217.062H739.792L736.104 228.333H733.917L733.875 225.927ZM732.563 217.062L734.75 225.927L734.729 228.333H732.531L728.854 217.062H732.563ZM746.146 228.542C745.229 228.542 744.41 228.399 743.688 228.115C742.965 227.823 742.354 227.424 741.854 226.917C741.361 226.41 740.983 225.826 740.719 225.167C740.462 224.507 740.333 223.809 740.333 223.073V222.677C740.333 221.851 740.448 221.087 740.677 220.385C740.906 219.677 741.247 219.059 741.698 218.531C742.149 218.003 742.715 217.594 743.396 217.302C744.076 217.003 744.868 216.854 745.771 216.854C746.569 216.854 747.285 216.983 747.917 217.24C748.549 217.497 749.083 217.865 749.521 218.344C749.965 218.823 750.302 219.403 750.531 220.083C750.767 220.764 750.885 221.528 750.885 222.375V223.802H741.677V221.604H747.458V221.333C747.465 220.958 747.399 220.639 747.26 220.375C747.128 220.111 746.934 219.91 746.677 219.771C746.42 219.632 746.108 219.562 745.74 219.562C745.358 219.562 745.042 219.646 744.792 219.812C744.549 219.979 744.358 220.208 744.219 220.5C744.087 220.785 743.993 221.115 743.938 221.49C743.882 221.865 743.854 222.26 743.854 222.677V223.073C743.854 223.49 743.91 223.868 744.021 224.208C744.139 224.549 744.306 224.84 744.521 225.083C744.743 225.319 745.007 225.503 745.313 225.635C745.625 225.767 745.979 225.833 746.375 225.833C746.854 225.833 747.326 225.743 747.792 225.562C748.257 225.382 748.656 225.083 748.99 224.667L750.583 226.562C750.354 226.889 750.028 227.205 749.604 227.51C749.188 227.816 748.688 228.066 748.104 228.26C747.521 228.448 746.868 228.542 746.146 228.542Z" fill="#F0F0F0"/>
<path d="M791.667 196.333H928.333C930.911 196.333 933 198.423 933 201V241C933 243.577 930.911 245.667 928.333 245.667H791.667C789.089 245.667 787 243.577 787 241V201C787 198.423 789.089 196.333 791.667 196.333Z" fill="#BA7F56" stroke="#BA7F56" stroke-width="4"/>
<path d="M823.333 213.167V228.333H819.677V213.167H823.333ZM829.229 219.479V222.292H822.292V219.479H829.229ZM829.823 213.167V215.99H822.292V213.167H829.823ZM834.885 217.062V228.333H831.365V217.062H834.885ZM831.156 214.156C831.156 213.656 831.337 213.247 831.698 212.927C832.059 212.608 832.528 212.448 833.104 212.448C833.681 212.448 834.149 212.608 834.51 212.927C834.872 213.247 835.052 213.656 835.052 214.156C835.052 214.656 834.872 215.066 834.51 215.385C834.149 215.705 833.681 215.865 833.104 215.865C832.528 215.865 832.059 215.705 831.698 215.385C831.337 215.066 831.156 214.656 831.156 214.156ZM840.594 219.854V228.333H837.083V217.062H840.365L840.594 219.854ZM843.927 216.979L843.865 220.24C843.726 220.226 843.538 220.208 843.302 220.187C843.066 220.167 842.868 220.156 842.708 220.156C842.299 220.156 841.944 220.205 841.646 220.302C841.354 220.392 841.111 220.531 840.917 220.719C840.729 220.899 840.59 221.128 840.5 221.406C840.417 221.684 840.378 222.007 840.385 222.375L839.75 221.958C839.75 221.201 839.823 220.514 839.969 219.896C840.122 219.271 840.337 218.733 840.615 218.281C840.892 217.823 841.229 217.472 841.625 217.229C842.021 216.979 842.465 216.854 842.958 216.854C843.132 216.854 843.302 216.865 843.469 216.885C843.642 216.906 843.795 216.937 843.927 216.979ZM850.385 228.542C849.469 228.542 848.649 228.399 847.927 228.115C847.205 227.823 846.594 227.424 846.094 226.917C845.601 226.41 845.222 225.826 844.958 225.167C844.701 224.507 844.573 223.809 844.573 223.073V222.677C844.573 221.851 844.688 221.087 844.917 220.385C845.146 219.677 845.486 219.059 845.938 218.531C846.389 218.003 846.955 217.594 847.635 217.302C848.316 217.003 849.108 216.854 850.01 216.854C850.809 216.854 851.524 216.983 852.156 217.24C852.788 217.497 853.323 217.865 853.76 218.344C854.205 218.823 854.542 219.403 854.771 220.083C855.007 220.764 855.125 221.528 855.125 222.375V223.802H845.917V221.604H851.698V221.333C851.705 220.958 851.639 220.639 851.5 220.375C851.368 220.111 851.174 219.91 850.917 219.771C850.66 219.632 850.347 219.562 849.979 219.562C849.597 219.562 849.281 219.646 849.031 219.812C848.788 219.979 848.597 220.208 848.458 220.5C848.326 220.785 848.233 221.115 848.177 221.49C848.122 221.865 848.094 222.26 848.094 222.677V223.073C848.094 223.49 848.149 223.868 848.26 224.208C848.378 224.549 848.545 224.84 848.76 225.083C848.983 225.319 849.247 225.503 849.552 225.635C849.865 225.767 850.219 225.833 850.615 225.833C851.094 225.833 851.566 225.743 852.031 225.562C852.497 225.382 852.896 225.083 853.229 224.667L854.823 226.562C854.594 226.889 854.267 227.205 853.844 227.51C853.427 227.816 852.927 228.066 852.344 228.26C851.76 228.448 851.108 228.542 850.385 228.542ZM856.583 212.333H860.094V225.562L859.729 228.333H856.583V212.333ZM867.01 222.573V222.792C867.01 223.646 866.924 224.424 866.75 225.125C866.576 225.826 866.309 226.434 865.948 226.948C865.587 227.455 865.132 227.847 864.583 228.125C864.035 228.403 863.385 228.542 862.635 228.542C861.955 228.542 861.372 228.396 860.885 228.104C860.399 227.806 859.993 227.396 859.667 226.875C859.34 226.347 859.076 225.74 858.875 225.052C858.674 224.358 858.514 223.615 858.396 222.823V222.562C858.514 221.778 858.674 221.042 858.875 220.354C859.076 219.66 859.34 219.052 859.667 218.531C859.993 218.003 860.396 217.594 860.875 217.302C861.361 217.003 861.941 216.854 862.615 216.854C863.372 216.854 864.024 216.997 864.573 217.281C865.128 217.566 865.587 217.965 865.948 218.479C866.309 218.993 866.576 219.597 866.75 220.292C866.924 220.986 867.01 221.747 867.01 222.573ZM863.5 222.792V222.573C863.5 222.163 863.476 221.778 863.427 221.417C863.378 221.056 863.292 220.736 863.167 220.458C863.042 220.181 862.865 219.962 862.635 219.802C862.406 219.642 862.108 219.562 861.74 219.562C861.365 219.562 861.049 219.625 860.792 219.75C860.542 219.875 860.34 220.056 860.188 220.292C860.042 220.521 859.938 220.806 859.875 221.146C859.813 221.479 859.785 221.858 859.792 222.281V223.104C859.778 223.681 859.83 224.174 859.948 224.583C860.066 224.993 860.271 225.306 860.563 225.521C860.854 225.736 861.253 225.844 861.76 225.844C862.135 225.844 862.438 225.771 862.667 225.625C862.903 225.479 863.08 225.271 863.198 225C863.316 224.729 863.396 224.406 863.438 224.031C863.479 223.656 863.5 223.243 863.5 222.792ZM874.427 225.5V220.854C874.427 220.535 874.382 220.26 874.292 220.031C874.201 219.802 874.059 219.625 873.865 219.5C873.67 219.368 873.41 219.302 873.083 219.302C872.819 219.302 872.594 219.347 872.406 219.437C872.219 219.528 872.076 219.663 871.979 219.844C871.882 220.024 871.833 220.253 871.833 220.531H868.323C868.323 220.01 868.437 219.528 868.667 219.083C868.903 218.632 869.236 218.24 869.667 217.906C870.104 217.573 870.625 217.316 871.229 217.135C871.84 216.948 872.521 216.854 873.271 216.854C874.167 216.854 874.965 217.003 875.667 217.302C876.375 217.601 876.934 218.049 877.344 218.646C877.753 219.236 877.958 219.979 877.958 220.875V225.49C877.958 226.226 878 226.785 878.083 227.167C878.167 227.542 878.285 227.872 878.437 228.156V228.333H874.917C874.75 227.986 874.625 227.562 874.542 227.062C874.465 226.556 874.427 226.035 874.427 225.5ZM874.854 221.448L874.875 223.323H873.323C872.997 223.323 872.719 223.368 872.49 223.458C872.267 223.549 872.087 223.674 871.948 223.833C871.816 223.986 871.719 224.16 871.656 224.354C871.601 224.549 871.573 224.753 871.573 224.969C871.573 225.177 871.622 225.365 871.719 225.531C871.823 225.691 871.962 225.816 872.135 225.906C872.309 225.997 872.503 226.042 872.719 226.042C873.108 226.042 873.437 225.969 873.708 225.823C873.986 225.67 874.198 225.486 874.344 225.271C874.49 225.056 874.562 224.854 874.562 224.667L875.333 226.104C875.194 226.382 875.035 226.663 874.854 226.948C874.681 227.233 874.462 227.497 874.198 227.74C873.941 227.976 873.625 228.17 873.25 228.323C872.875 228.469 872.42 228.542 871.885 228.542C871.191 228.542 870.552 228.399 869.969 228.115C869.392 227.83 868.931 227.434 868.583 226.927C868.236 226.413 868.062 225.823 868.062 225.156C868.062 224.573 868.167 224.052 868.375 223.594C868.59 223.135 868.913 222.747 869.344 222.427C869.774 222.108 870.323 221.865 870.99 221.698C871.656 221.531 872.441 221.448 873.344 221.448H874.854ZM885.813 225.167C885.813 224.972 885.747 224.806 885.615 224.667C885.49 224.521 885.267 224.389 884.948 224.271C884.628 224.146 884.181 224.021 883.604 223.896C883.056 223.778 882.538 223.622 882.052 223.427C881.573 223.233 881.153 222.997 880.792 222.719C880.431 222.441 880.146 222.111 879.938 221.729C879.736 221.347 879.635 220.91 879.635 220.417C879.635 219.937 879.736 219.486 879.938 219.062C880.146 218.632 880.448 218.253 880.844 217.927C881.247 217.594 881.736 217.333 882.313 217.146C882.889 216.951 883.545 216.854 884.281 216.854C885.295 216.854 886.17 217.01 886.906 217.323C887.642 217.628 888.208 218.059 888.604 218.615C889.007 219.163 889.208 219.799 889.208 220.521H885.698C885.698 220.236 885.649 219.993 885.552 219.792C885.462 219.59 885.313 219.437 885.104 219.333C884.896 219.222 884.618 219.167 884.271 219.167C884.028 219.167 883.806 219.212 883.604 219.302C883.41 219.392 883.253 219.517 883.135 219.677C883.017 219.837 882.958 220.024 882.958 220.24C882.958 220.392 882.993 220.531 883.063 220.656C883.139 220.774 883.253 220.885 883.406 220.99C883.559 221.087 883.753 221.177 883.99 221.26C884.226 221.337 884.51 221.406 884.844 221.469C885.601 221.608 886.309 221.806 886.969 222.062C887.628 222.319 888.163 222.684 888.573 223.156C888.99 223.628 889.198 224.264 889.198 225.062C889.198 225.562 889.083 226.024 888.854 226.448C888.625 226.865 888.295 227.233 887.865 227.552C887.434 227.865 886.917 228.108 886.313 228.281C885.708 228.455 885.028 228.542 884.271 228.542C883.194 228.542 882.285 228.351 881.542 227.969C880.799 227.58 880.236 227.094 879.854 226.51C879.479 225.92 879.292 225.323 879.292 224.719H882.563C882.576 225.066 882.66 225.351 882.813 225.573C882.972 225.795 883.184 225.958 883.448 226.062C883.712 226.167 884.017 226.219 884.365 226.219C884.684 226.219 884.948 226.174 885.156 226.083C885.372 225.993 885.535 225.872 885.646 225.719C885.757 225.559 885.813 225.375 885.813 225.167ZM896.302 228.542C895.385 228.542 894.566 228.399 893.844 228.115C893.122 227.823 892.51 227.424 892.01 226.917C891.517 226.41 891.139 225.826 890.875 225.167C890.618 224.507 890.49 223.809 890.49 223.073V222.677C890.49 221.851 890.604 221.087 890.833 220.385C891.063 219.677 891.403 219.059 891.854 218.531C892.306 218.003 892.872 217.594 893.552 217.302C894.233 217.003 895.024 216.854 895.927 216.854C896.726 216.854 897.441 216.983 898.073 217.24C898.705 217.497 899.24 217.865 899.677 218.344C900.122 218.823 900.458 219.403 900.688 220.083C900.924 220.764 901.042 221.528 901.042 222.375V223.802H891.833V221.604H897.615V221.333C897.622 220.958 897.556 220.639 897.417 220.375C897.285 220.111 897.09 219.91 896.833 219.771C896.576 219.632 896.264 219.562 895.896 219.562C895.514 219.562 895.198 219.646 894.948 219.812C894.705 219.979 894.514 220.208 894.375 220.5C894.243 220.785 894.149 221.115 894.094 221.49C894.038 221.865 894.01 222.26 894.01 222.677V223.073C894.01 223.49 894.066 223.868 894.177 224.208C894.295 224.549 894.462 224.84 894.677 225.083C894.899 225.319 895.163 225.503 895.469 225.635C895.781 225.767 896.135 225.833 896.531 225.833C897.01 225.833 897.483 225.743 897.948 225.562C898.413 225.382 898.813 225.083 899.146 224.667L900.74 226.562C900.51 226.889 900.184 227.205 899.76 227.51C899.344 227.816 898.844 228.066 898.26 228.26C897.677 228.448 897.024 228.542 896.302 228.542Z" fill="#F0F0F0"/>
<path d="M961.667 196.333H1098.33C1100.91 196.333 1103 198.423 1103 201V241C1103 243.577 1100.91 245.667 1098.33 245.667H961.667C959.089 245.667 957 243.577 957 241V201C957 198.423 959.089 196.333 961.667 196.333Z" fill="#BA7F56" stroke="#BA7F56" stroke-width="4"/>
<path d="M963.052 213.167H969.021C970.188 213.167 971.201 213.34 972.063 213.687C972.924 214.035 973.587 214.549 974.052 215.229C974.524 215.91 974.76 216.75 974.76 217.75C974.76 218.618 974.625 219.344 974.354 219.927C974.083 220.51 973.705 220.993 973.219 221.375C972.74 221.75 972.181 222.059 971.542 222.302L970.344 222.979H965.333L965.313 220.156H969.021C969.486 220.156 969.872 220.073 970.177 219.906C970.483 219.74 970.712 219.503 970.865 219.198C971.024 218.885 971.104 218.514 971.104 218.083C971.104 217.646 971.024 217.271 970.865 216.958C970.705 216.646 970.469 216.406 970.156 216.24C969.851 216.073 969.472 215.99 969.021 215.99H966.708V228.333H963.052V213.167ZM971.354 228.333L968 221.625L971.875 221.604L975.271 228.177V228.333H971.354ZM982.26 228.542C981.344 228.542 980.524 228.399 979.802 228.115C979.08 227.823 978.469 227.424 977.969 226.917C977.476 226.41 977.097 225.826 976.833 225.167C976.576 224.507 976.448 223.809 976.448 223.073V222.677C976.448 221.851 976.563 221.087 976.792 220.385C977.021 219.677 977.361 219.059 977.813 218.531C978.264 218.003 978.83 217.594 979.51 217.302C980.191 217.003 980.983 216.854 981.885 216.854C982.684 216.854 983.399 216.983 984.031 217.24C984.663 217.497 985.198 217.865 985.635 218.344C986.08 218.823 986.417 219.403 986.646 220.083C986.882 220.764 987 221.528 987 222.375V223.802H977.792V221.604H983.573V221.333C983.58 220.958 983.514 220.639 983.375 220.375C983.243 220.111 983.049 219.91 982.792 219.771C982.535 219.632 982.222 219.562 981.854 219.562C981.472 219.562 981.156 219.646 980.906 219.812C980.663 219.979 980.472 220.208 980.333 220.5C980.201 220.785 980.108 221.115 980.052 221.49C979.997 221.865 979.969 222.26 979.969 222.677V223.073C979.969 223.49 980.024 223.868 980.135 224.208C980.253 224.549 980.42 224.84 980.635 225.083C980.858 225.319 981.122 225.503 981.427 225.635C981.74 225.767 982.094 225.833 982.49 225.833C982.969 225.833 983.441 225.743 983.906 225.562C984.372 225.382 984.771 225.083 985.104 224.667L986.698 226.562C986.469 226.889 986.142 227.205 985.719 227.51C985.302 227.816 984.802 228.066 984.219 228.26C983.635 228.448 982.983 228.542 982.26 228.542ZM994.906 225.75V212.333H998.438V228.333H995.271L994.906 225.75ZM987.99 222.833V222.615C987.99 221.76 988.083 220.983 988.271 220.281C988.458 219.573 988.736 218.965 989.104 218.458C989.472 217.944 989.931 217.549 990.479 217.271C991.028 216.993 991.66 216.854 992.375 216.854C993.014 216.854 993.573 217.003 994.052 217.302C994.531 217.594 994.941 218.003 995.281 218.531C995.622 219.059 995.899 219.677 996.115 220.385C996.33 221.087 996.493 221.844 996.604 222.656V222.917C996.493 223.681 996.33 224.403 996.115 225.083C995.899 225.757 995.622 226.354 995.281 226.875C994.941 227.396 994.528 227.806 994.042 228.104C993.563 228.396 993 228.542 992.354 228.542C991.639 228.542 991.007 228.399 990.458 228.115C989.917 227.83 989.462 227.431 989.094 226.917C988.733 226.403 988.458 225.799 988.271 225.104C988.083 224.41 987.99 223.653 987.99 222.833ZM991.5 222.615V222.833C991.5 223.257 991.528 223.649 991.583 224.01C991.639 224.372 991.733 224.691 991.865 224.969C992.003 225.24 992.184 225.451 992.406 225.604C992.635 225.757 992.917 225.833 993.25 225.833C993.701 225.833 994.073 225.726 994.365 225.51C994.663 225.295 994.882 224.99 995.021 224.594C995.167 224.198 995.229 223.733 995.208 223.198V222.375C995.222 221.917 995.191 221.514 995.115 221.167C995.038 220.812 994.917 220.517 994.75 220.281C994.59 220.045 994.385 219.868 994.135 219.75C993.892 219.625 993.604 219.562 993.271 219.562C992.944 219.562 992.667 219.639 992.438 219.792C992.215 219.944 992.035 220.16 991.896 220.437C991.757 220.708 991.656 221.031 991.594 221.406C991.531 221.774 991.5 222.177 991.5 222.615ZM1007.01 225.594V217.062H1010.53V228.333H1007.24L1007.01 225.594ZM1007.34 223.302L1008.26 223.281C1008.26 224.038 1008.17 224.74 1007.99 225.385C1007.81 226.024 1007.54 226.58 1007.19 227.052C1006.84 227.524 1006.41 227.892 1005.9 228.156C1005.39 228.413 1004.8 228.542 1004.14 228.542C1003.58 228.542 1003.07 228.465 1002.6 228.312C1002.15 228.153 1001.75 227.906 1001.42 227.573C1001.08 227.233 1000.82 226.799 1000.64 226.271C1000.45 225.736 1000.36 225.097 1000.36 224.354V217.062H1003.88V224.375C1003.88 224.625 1003.91 224.84 1003.97 225.021C1004.03 225.201 1004.12 225.354 1004.24 225.479C1004.36 225.597 1004.5 225.687 1004.68 225.75C1004.86 225.806 1005.06 225.833 1005.29 225.833C1005.82 225.833 1006.23 225.722 1006.53 225.5C1006.83 225.278 1007.04 224.976 1007.16 224.594C1007.28 224.212 1007.34 223.781 1007.34 223.302ZM1015.45 217.062L1017.03 220.167L1018.67 217.062H1022.31L1019.35 222.552L1022.47 228.333H1018.79L1017.03 225L1015.28 228.333H1011.6L1014.72 222.552L1011.77 217.062H1015.45ZM1030.32 220.437V223.156H1024.06V220.437H1030.32ZM1040.58 213.167V228.333H1036.93V213.167H1040.58ZM1045.15 213.167V215.99H1032.47V213.167H1045.15ZM1043.91 222.812V222.594C1043.91 221.767 1044.02 221.007 1044.26 220.312C1044.5 219.611 1044.84 219.003 1045.3 218.49C1045.76 217.976 1046.33 217.576 1047 217.292C1047.67 217 1048.45 216.854 1049.33 216.854C1050.22 216.854 1051 217 1051.68 217.292C1052.36 217.576 1052.93 217.976 1053.39 218.49C1053.84 219.003 1054.19 219.611 1054.43 220.312C1054.66 221.007 1054.78 221.767 1054.78 222.594V222.812C1054.78 223.632 1054.66 224.392 1054.43 225.094C1054.19 225.788 1053.84 226.396 1053.39 226.917C1052.93 227.431 1052.36 227.83 1051.69 228.115C1051.01 228.399 1050.24 228.542 1049.35 228.542C1048.47 228.542 1047.69 228.399 1047.01 228.115C1046.33 227.83 1045.76 227.431 1045.3 226.917C1044.84 226.396 1044.5 225.788 1044.26 225.094C1044.02 224.392 1043.91 223.632 1043.91 222.812ZM1047.42 222.594V222.812C1047.42 223.236 1047.45 223.632 1047.51 224C1047.57 224.368 1047.68 224.691 1047.82 224.969C1047.97 225.24 1048.17 225.451 1048.42 225.604C1048.67 225.757 1048.98 225.833 1049.35 225.833C1049.72 225.833 1050.03 225.757 1050.27 225.604C1050.52 225.451 1050.72 225.24 1050.86 224.969C1051.01 224.691 1051.11 224.368 1051.18 224C1051.24 223.632 1051.27 223.236 1051.27 222.812V222.594C1051.27 222.184 1051.24 221.799 1051.18 221.437C1051.11 221.069 1051.01 220.747 1050.86 220.469C1050.72 220.184 1050.52 219.962 1050.27 219.802C1050.02 219.642 1049.71 219.562 1049.33 219.562C1048.97 219.562 1048.66 219.642 1048.41 219.802C1048.16 219.962 1047.97 220.184 1047.82 220.469C1047.68 220.747 1047.57 221.069 1047.51 221.437C1047.45 221.799 1047.42 222.184 1047.42 222.594ZM1055.91 222.812V222.594C1055.91 221.767 1056.02 221.007 1056.26 220.312C1056.5 219.611 1056.84 219.003 1057.3 218.49C1057.76 217.976 1058.33 217.576 1059 217.292C1059.67 217 1060.45 216.854 1061.33 216.854C1062.22 216.854 1063 217 1063.68 217.292C1064.36 217.576 1064.93 217.976 1065.39 218.49C1065.84 219.003 1066.19 219.611 1066.43 220.312C1066.66 221.007 1066.78 221.767 1066.78 222.594V222.812C1066.78 223.632 1066.66 224.392 1066.43 225.094C1066.19 225.788 1065.84 226.396 1065.39 226.917C1064.93 227.431 1064.36 227.83 1063.69 228.115C1063.01 228.399 1062.24 228.542 1061.35 228.542C1060.47 228.542 1059.69 228.399 1059.01 228.115C1058.33 227.83 1057.76 227.431 1057.3 226.917C1056.84 226.396 1056.5 225.788 1056.26 225.094C1056.02 224.392 1055.91 223.632 1055.91 222.812ZM1059.42 222.594V222.812C1059.42 223.236 1059.45 223.632 1059.51 224C1059.57 224.368 1059.68 224.691 1059.82 224.969C1059.97 225.24 1060.17 225.451 1060.42 225.604C1060.67 225.757 1060.98 225.833 1061.35 225.833C1061.72 225.833 1062.03 225.757 1062.27 225.604C1062.52 225.451 1062.72 225.24 1062.86 224.969C1063.01 224.691 1063.11 224.368 1063.18 224C1063.24 223.632 1063.27 223.236 1063.27 222.812V222.594C1063.27 222.184 1063.24 221.799 1063.18 221.437C1063.11 221.069 1063.01 220.747 1062.86 220.469C1062.72 220.184 1062.52 219.962 1062.27 219.802C1062.02 219.642 1061.71 219.562 1061.33 219.562C1060.97 219.562 1060.66 219.642 1060.41 219.802C1060.16 219.962 1059.97 220.184 1059.82 220.469C1059.68 220.747 1059.57 221.069 1059.51 221.437C1059.45 221.799 1059.42 222.184 1059.42 222.594ZM1072.05 212.333V228.333H1068.53V212.333H1072.05ZM1077.76 212.323V228.333H1074.25V212.323H1077.76ZM1084.97 217.062L1080.07 222.802L1077.51 225.365L1075.98 223.135L1078.11 220.354L1080.76 217.062H1084.97ZM1081.21 228.333L1078.2 223.198L1080.79 221.354L1085.23 228.333H1081.21ZM1089.59 217.062V228.333H1086.07V217.062H1089.59ZM1085.86 214.156C1085.86 213.656 1086.05 213.247 1086.41 212.927C1086.77 212.608 1087.24 212.448 1087.81 212.448C1088.39 212.448 1088.86 212.608 1089.22 212.927C1089.58 213.247 1089.76 213.656 1089.76 214.156C1089.76 214.656 1089.58 215.066 1089.22 215.385C1088.86 215.705 1088.39 215.865 1087.81 215.865C1087.24 215.865 1086.77 215.705 1086.41 215.385C1086.05 215.066 1085.86 214.656 1085.86 214.156ZM1097.7 217.062V219.5H1090.91V217.062H1097.7ZM1092.33 214.26H1095.84V224.656C1095.84 224.955 1095.88 225.187 1095.95 225.354C1096.02 225.514 1096.14 225.628 1096.3 225.698C1096.48 225.76 1096.7 225.792 1096.99 225.792C1097.19 225.792 1097.36 225.788 1097.49 225.781C1097.62 225.767 1097.75 225.75 1097.86 225.729V228.24C1097.57 228.337 1097.25 228.41 1096.93 228.458C1096.6 228.514 1096.25 228.542 1095.89 228.542C1095.14 228.542 1094.49 228.424 1093.96 228.187C1093.43 227.951 1093.03 227.58 1092.75 227.073C1092.47 226.566 1092.33 225.906 1092.33 225.094V214.26Z" fill="#F0F0F0"/>
<path d="M1131.67 196.333H1268.33C1270.91 196.333 1273 198.423 1273 201V241C1273 243.577 1270.91 245.667 1268.33 245.667H1131.67C1129.09 245.667 1127 243.577 1127 241V201C1127 198.423 1129.09 196.333 1131.67 196.333Z" fill="#BA7F56" stroke="#BA7F56" stroke-width="4"/>
<path d="M1173.43 225.521V228.333H1165.34V225.521H1173.43ZM1166.65 213.167V228.333H1162.99V213.167H1166.65ZM1172.39 219.187V221.906H1165.34V219.187H1172.39ZM1173.46 213.167V215.99H1165.34V213.167H1173.46ZM1177.74 217.062L1179.32 220.167L1180.96 217.062H1184.6L1181.65 222.552L1184.76 228.333H1181.08L1179.32 225L1177.57 228.333H1173.9L1177.01 222.552L1174.06 217.062H1177.74ZM1189.3 219.229V232.667H1185.79V217.062H1189.06L1189.3 219.229ZM1196.22 222.562V222.781C1196.22 223.601 1196.12 224.361 1195.94 225.062C1195.75 225.764 1195.47 226.375 1195.1 226.896C1194.74 227.417 1194.28 227.823 1193.73 228.115C1193.19 228.399 1192.56 228.542 1191.84 228.542C1191.17 228.542 1190.59 228.392 1190.1 228.094C1189.62 227.795 1189.21 227.382 1188.89 226.854C1188.56 226.326 1188.3 225.722 1188.09 225.042C1187.89 224.361 1187.73 223.642 1187.61 222.885V222.604C1187.73 221.792 1187.89 221.038 1188.09 220.344C1188.3 219.642 1188.56 219.031 1188.89 218.51C1189.21 217.99 1189.61 217.583 1190.09 217.292C1190.58 217 1191.16 216.854 1191.83 216.854C1192.55 216.854 1193.18 216.99 1193.72 217.26C1194.27 217.531 1194.73 217.92 1195.09 218.427C1195.47 218.927 1195.75 219.528 1195.94 220.229C1196.12 220.931 1196.22 221.708 1196.22 222.562ZM1192.71 222.781V222.562C1192.71 222.125 1192.68 221.726 1192.61 221.365C1192.55 220.997 1192.45 220.677 1192.31 220.406C1192.18 220.135 1192 219.927 1191.78 219.781C1191.56 219.635 1191.28 219.562 1190.96 219.562C1190.58 219.562 1190.27 219.622 1190.01 219.74C1189.76 219.851 1189.56 220.024 1189.41 220.26C1189.26 220.49 1189.16 220.778 1189.09 221.125C1189.04 221.465 1189.01 221.865 1189.02 222.323V223.177C1189.01 223.705 1189.06 224.17 1189.18 224.573C1189.3 224.969 1189.5 225.278 1189.79 225.5C1190.08 225.722 1190.48 225.833 1190.98 225.833C1191.31 225.833 1191.59 225.757 1191.81 225.604C1192.03 225.444 1192.21 225.226 1192.34 224.948C1192.48 224.663 1192.57 224.337 1192.62 223.969C1192.68 223.601 1192.71 223.205 1192.71 222.781ZM1201.32 219.854V228.333H1197.81V217.062H1201.09L1201.32 219.854ZM1204.66 216.979L1204.59 220.24C1204.45 220.226 1204.27 220.208 1204.03 220.187C1203.8 220.167 1203.6 220.156 1203.44 220.156C1203.03 220.156 1202.67 220.205 1202.38 220.302C1202.08 220.392 1201.84 220.531 1201.65 220.719C1201.46 220.899 1201.32 221.128 1201.23 221.406C1201.15 221.684 1201.11 222.007 1201.11 222.375L1200.48 221.958C1200.48 221.201 1200.55 220.514 1200.7 219.896C1200.85 219.271 1201.07 218.733 1201.34 218.281C1201.62 217.823 1201.96 217.472 1202.35 217.229C1202.75 216.979 1203.19 216.854 1203.69 216.854C1203.86 216.854 1204.03 216.865 1204.2 216.885C1204.37 216.906 1204.52 216.937 1204.66 216.979ZM1211.11 228.542C1210.2 228.542 1209.38 228.399 1208.66 228.115C1207.93 227.823 1207.32 227.424 1206.82 226.917C1206.33 226.41 1205.95 225.826 1205.69 225.167C1205.43 224.507 1205.3 223.809 1205.3 223.073V222.677C1205.3 221.851 1205.42 221.087 1205.65 220.385C1205.88 219.677 1206.22 219.059 1206.67 218.531C1207.12 218.003 1207.68 217.594 1208.36 217.302C1209.05 217.003 1209.84 216.854 1210.74 216.854C1211.54 216.854 1212.25 216.983 1212.89 217.24C1213.52 217.497 1214.05 217.865 1214.49 218.344C1214.93 218.823 1215.27 219.403 1215.5 220.083C1215.74 220.764 1215.85 221.528 1215.85 222.375V223.802H1206.65V221.604H1212.43V221.333C1212.43 220.958 1212.37 220.639 1212.23 220.375C1212.1 220.111 1211.9 219.91 1211.65 219.771C1211.39 219.632 1211.08 219.562 1210.71 219.562C1210.33 219.562 1210.01 219.646 1209.76 219.812C1209.52 219.979 1209.33 220.208 1209.19 220.5C1209.06 220.785 1208.96 221.115 1208.91 221.49C1208.85 221.865 1208.82 222.26 1208.82 222.677V223.073C1208.82 223.49 1208.88 223.868 1208.99 224.208C1209.11 224.549 1209.27 224.84 1209.49 225.083C1209.71 225.319 1209.98 225.503 1210.28 225.635C1210.59 225.767 1210.95 225.833 1211.34 225.833C1211.82 225.833 1212.3 225.743 1212.76 225.562C1213.23 225.382 1213.63 225.083 1213.96 224.667L1215.55 226.562C1215.32 226.889 1215 227.205 1214.57 227.51C1214.16 227.816 1213.66 228.066 1213.07 228.26C1212.49 228.448 1211.84 228.542 1211.11 228.542ZM1223.19 225.167C1223.19 224.972 1223.12 224.806 1222.99 224.667C1222.86 224.521 1222.64 224.389 1222.32 224.271C1222 224.146 1221.56 224.021 1220.98 223.896C1220.43 223.778 1219.91 223.622 1219.43 223.427C1218.95 223.233 1218.53 222.997 1218.17 222.719C1217.81 222.441 1217.52 222.111 1217.31 221.729C1217.11 221.347 1217.01 220.91 1217.01 220.417C1217.01 219.937 1217.11 219.486 1217.31 219.062C1217.52 218.632 1217.82 218.253 1218.22 217.927C1218.62 217.594 1219.11 217.333 1219.69 217.146C1220.26 216.951 1220.92 216.854 1221.66 216.854C1222.67 216.854 1223.55 217.01 1224.28 217.323C1225.02 217.628 1225.58 218.059 1225.98 218.615C1226.38 219.163 1226.58 219.799 1226.58 220.521H1223.07C1223.07 220.236 1223.02 219.993 1222.93 219.792C1222.84 219.59 1222.69 219.437 1222.48 219.333C1222.27 219.222 1221.99 219.167 1221.65 219.167C1221.4 219.167 1221.18 219.212 1220.98 219.302C1220.78 219.392 1220.63 219.517 1220.51 219.677C1220.39 219.837 1220.33 220.024 1220.33 220.24C1220.33 220.392 1220.37 220.531 1220.44 220.656C1220.51 220.774 1220.63 220.885 1220.78 220.99C1220.93 221.087 1221.13 221.177 1221.36 221.26C1221.6 221.337 1221.89 221.406 1222.22 221.469C1222.98 221.608 1223.68 221.806 1224.34 222.062C1225 222.319 1225.54 222.684 1225.95 223.156C1226.36 223.628 1226.57 224.264 1226.57 225.062C1226.57 225.562 1226.46 226.024 1226.23 226.448C1226 226.865 1225.67 227.233 1225.24 227.552C1224.81 227.865 1224.29 228.108 1223.69 228.281C1223.08 228.455 1222.4 228.542 1221.65 228.542C1220.57 228.542 1219.66 228.351 1218.92 227.969C1218.17 227.58 1217.61 227.094 1217.23 226.51C1216.85 225.92 1216.67 225.323 1216.67 224.719H1219.94C1219.95 225.066 1220.03 225.351 1220.19 225.573C1220.35 225.795 1220.56 225.958 1220.82 226.062C1221.09 226.167 1221.39 226.219 1221.74 226.219C1222.06 226.219 1222.32 226.174 1222.53 226.083C1222.75 225.993 1222.91 225.872 1223.02 225.719C1223.13 225.559 1223.19 225.375 1223.19 225.167ZM1234.13 225.167C1234.13 224.972 1234.06 224.806 1233.93 224.667C1233.8 224.521 1233.58 224.389 1233.26 224.271C1232.94 224.146 1232.49 224.021 1231.92 223.896C1231.37 223.778 1230.85 223.622 1230.36 223.427C1229.89 223.233 1229.47 222.997 1229.1 222.719C1228.74 222.441 1228.46 222.111 1228.25 221.729C1228.05 221.347 1227.95 220.91 1227.95 220.417C1227.95 219.937 1228.05 219.486 1228.25 219.062C1228.46 218.632 1228.76 218.253 1229.16 217.927C1229.56 217.594 1230.05 217.333 1230.63 217.146C1231.2 216.951 1231.86 216.854 1232.59 216.854C1233.61 216.854 1234.48 217.01 1235.22 217.323C1235.95 217.628 1236.52 218.059 1236.92 218.615C1237.32 219.163 1237.52 219.799 1237.52 220.521H1234.01C1234.01 220.236 1233.96 219.993 1233.86 219.792C1233.77 219.59 1233.63 219.437 1233.42 219.333C1233.21 219.222 1232.93 219.167 1232.58 219.167C1232.34 219.167 1232.12 219.212 1231.92 219.302C1231.72 219.392 1231.57 219.517 1231.45 219.677C1231.33 219.837 1231.27 220.024 1231.27 220.24C1231.27 220.392 1231.31 220.531 1231.38 220.656C1231.45 220.774 1231.57 220.885 1231.72 220.99C1231.87 221.087 1232.07 221.177 1232.3 221.26C1232.54 221.337 1232.82 221.406 1233.16 221.469C1233.91 221.608 1234.62 221.806 1235.28 222.062C1235.94 222.319 1236.48 222.684 1236.89 223.156C1237.3 223.628 1237.51 224.264 1237.51 225.062C1237.51 225.562 1237.4 226.024 1237.17 226.448C1236.94 226.865 1236.61 227.233 1236.18 227.552C1235.75 227.865 1235.23 228.108 1234.63 228.281C1234.02 228.455 1233.34 228.542 1232.58 228.542C1231.51 228.542 1230.6 228.351 1229.85 227.969C1229.11 227.58 1228.55 227.094 1228.17 226.51C1227.79 225.92 1227.6 225.323 1227.6 224.719H1230.88C1230.89 225.066 1230.97 225.351 1231.13 225.573C1231.28 225.795 1231.5 225.958 1231.76 226.062C1232.02 226.167 1232.33 226.219 1232.68 226.219C1233 226.219 1233.26 226.174 1233.47 226.083C1233.68 225.993 1233.85 225.872 1233.96 225.719C1234.07 225.559 1234.13 225.375 1234.13 225.167Z" fill="#F0F0F0"/>
</svg>
