<svg width="1363" height="167" viewBox="0 0 1363 167" fill="none" xmlns="http://www.w3.org/2000/svg">
<rect width="1363" height="167" rx="15" fill="#F0F0F0"/>
<path d="M0 15C0 6.71573 6.71573 0 15 0H37V167H15C6.71573 167 0 160.284 0 152V15Z" fill="#424241"/>
<path d="M100.906 54.9219L93.3945 52.2383V49.0859L103.602 53.375V55.6367L100.906 54.9219ZM93.3945 57.1719L100.918 54.4297L103.602 53.7852V56.0352L93.3945 60.3242V57.1719ZM115.414 44.9375V62H111.898V44.9375H115.414ZM122.211 52.2266V54.9688H114.453V52.2266H122.211ZM123.031 44.9375V47.6914H114.453V44.9375H123.031ZM124.062 55.7891V55.543C124.062 54.6133 124.195 53.7578 124.461 52.9766C124.727 52.1875 125.113 51.5039 125.621 50.9258C126.129 50.3477 126.754 49.8984 127.496 49.5781C128.238 49.25 129.09 49.0859 130.051 49.0859C131.012 49.0859 131.867 49.25 132.617 49.5781C133.367 49.8984 133.996 50.3477 134.504 50.9258C135.02 51.5039 135.41 52.1875 135.676 52.9766C135.941 53.7578 136.074 54.6133 136.074 55.543V55.7891C136.074 56.7109 135.941 57.5664 135.676 58.3555C135.41 59.1367 135.02 59.8203 134.504 60.4062C133.996 60.9844 133.371 61.4336 132.629 61.7539C131.887 62.0742 131.035 62.2344 130.074 62.2344C129.113 62.2344 128.258 62.0742 127.508 61.7539C126.766 61.4336 126.137 60.9844 125.621 60.4062C125.113 59.8203 124.727 59.1367 124.461 58.3555C124.195 57.5664 124.062 56.7109 124.062 55.7891ZM127.438 55.543V55.7891C127.438 56.3203 127.484 56.8164 127.578 57.2773C127.672 57.7383 127.82 58.1445 128.023 58.4961C128.234 58.8398 128.508 59.1094 128.844 59.3047C129.18 59.5 129.59 59.5977 130.074 59.5977C130.543 59.5977 130.945 59.5 131.281 59.3047C131.617 59.1094 131.887 58.8398 132.09 58.4961C132.293 58.1445 132.441 57.7383 132.535 57.2773C132.637 56.8164 132.688 56.3203 132.688 55.7891V55.543C132.688 55.0273 132.637 54.543 132.535 54.0898C132.441 53.6289 132.289 53.2227 132.078 52.8711C131.875 52.5117 131.605 52.2305 131.27 52.0273C130.934 51.8242 130.527 51.7227 130.051 51.7227C129.574 51.7227 129.168 51.8242 128.832 52.0273C128.504 52.2305 128.234 52.5117 128.023 52.8711C127.82 53.2227 127.672 53.6289 127.578 54.0898C127.484 54.543 127.438 55.0273 127.438 55.543ZM141.523 52.0859V62H138.148V49.3203H141.324L141.523 52.0859ZM145.344 49.2383L145.285 52.3672C145.121 52.3438 144.922 52.3242 144.688 52.3086C144.461 52.2852 144.254 52.2734 144.066 52.2734C143.59 52.2734 143.176 52.3359 142.824 52.4609C142.48 52.5781 142.191 52.7539 141.957 52.9883C141.73 53.2227 141.559 53.5078 141.441 53.8438C141.332 54.1797 141.27 54.5625 141.254 54.9922L140.574 54.7812C140.574 53.9609 140.656 53.207 140.82 52.5195C140.984 51.8242 141.223 51.2188 141.535 50.7031C141.855 50.1875 142.246 49.7891 142.707 49.5078C143.168 49.2266 143.695 49.0859 144.289 49.0859C144.477 49.0859 144.668 49.1016 144.863 49.1328C145.059 49.1562 145.219 49.1914 145.344 49.2383ZM153.734 49.3203V51.7109H146.352V49.3203H153.734ZM148.18 46.1914H151.555V58.1797C151.555 58.5469 151.602 58.8281 151.695 59.0234C151.797 59.2188 151.945 59.3555 152.141 59.4336C152.336 59.5039 152.582 59.5391 152.879 59.5391C153.09 59.5391 153.277 59.5312 153.441 59.5156C153.613 59.4922 153.758 59.4688 153.875 59.4453L153.887 61.9297C153.598 62.0234 153.285 62.0977 152.949 62.1523C152.613 62.207 152.242 62.2344 151.836 62.2344C151.094 62.2344 150.445 62.1133 149.891 61.8711C149.344 61.6211 148.922 61.2227 148.625 60.6758C148.328 60.1289 148.18 59.4102 148.18 58.5195V46.1914ZM163.156 58.9648V49.3203H166.531V62H163.355L163.156 58.9648ZM163.531 56.3633L164.527 56.3398C164.527 57.1836 164.43 57.9688 164.234 58.6953C164.039 59.4141 163.746 60.0391 163.355 60.5703C162.965 61.0938 162.473 61.5039 161.879 61.8008C161.285 62.0898 160.586 62.2344 159.781 62.2344C159.164 62.2344 158.594 62.1484 158.07 61.9766C157.555 61.7969 157.109 61.5195 156.734 61.1445C156.367 60.7617 156.078 60.2734 155.867 59.6797C155.664 59.0781 155.562 58.3555 155.562 57.5117V49.3203H158.938V57.5352C158.938 57.9102 158.98 58.2266 159.066 58.4844C159.16 58.7422 159.289 58.9531 159.453 59.1172C159.617 59.2812 159.809 59.3984 160.027 59.4688C160.254 59.5391 160.504 59.5742 160.777 59.5742C161.473 59.5742 162.02 59.4336 162.418 59.1523C162.824 58.8711 163.109 58.4883 163.273 58.0039C163.445 57.5117 163.531 56.9648 163.531 56.3633ZM172.414 52.0273V62H169.039V49.3203H172.203L172.414 52.0273ZM171.922 55.2148H171.008C171.008 54.2773 171.129 53.4336 171.371 52.6836C171.613 51.9258 171.953 51.2812 172.391 50.75C172.828 50.2109 173.348 49.8008 173.949 49.5195C174.559 49.2305 175.238 49.0859 175.988 49.0859C176.582 49.0859 177.125 49.1719 177.617 49.3438C178.109 49.5156 178.531 49.7891 178.883 50.1641C179.242 50.5391 179.516 51.0352 179.703 51.6523C179.898 52.2695 179.996 53.0234 179.996 53.9141V62H176.598V53.9023C176.598 53.3398 176.52 52.9023 176.363 52.5898C176.207 52.2773 175.977 52.0586 175.672 51.9336C175.375 51.8008 175.008 51.7344 174.57 51.7344C174.117 51.7344 173.723 51.8242 173.387 52.0039C173.059 52.1836 172.785 52.4336 172.566 52.7539C172.355 53.0664 172.195 53.4336 172.086 53.8555C171.977 54.2773 171.922 54.7305 171.922 55.2148ZM190.062 58.9648V49.3203H193.438V62H190.262L190.062 58.9648ZM190.438 56.3633L191.434 56.3398C191.434 57.1836 191.336 57.9688 191.141 58.6953C190.945 59.4141 190.652 60.0391 190.262 60.5703C189.871 61.0938 189.379 61.5039 188.785 61.8008C188.191 62.0898 187.492 62.2344 186.688 62.2344C186.07 62.2344 185.5 62.1484 184.977 61.9766C184.461 61.7969 184.016 61.5195 183.641 61.1445C183.273 60.7617 182.984 60.2734 182.773 59.6797C182.57 59.0781 182.469 58.3555 182.469 57.5117V49.3203H185.844V57.5352C185.844 57.9102 185.887 58.2266 185.973 58.4844C186.066 58.7422 186.195 58.9531 186.359 59.1172C186.523 59.2812 186.715 59.3984 186.934 59.4688C187.16 59.5391 187.41 59.5742 187.684 59.5742C188.379 59.5742 188.926 59.4336 189.324 59.1523C189.73 58.8711 190.016 58.4883 190.18 58.0039C190.352 57.5117 190.438 56.9648 190.438 56.3633ZM202.871 58.4961C202.871 58.2539 202.801 58.0352 202.66 57.8398C202.52 57.6445 202.258 57.4648 201.875 57.3008C201.5 57.1289 200.957 56.9727 200.246 56.832C199.605 56.6914 199.008 56.5156 198.453 56.3047C197.906 56.0859 197.43 55.8242 197.023 55.5195C196.625 55.2148 196.312 54.8555 196.086 54.4414C195.859 54.0195 195.746 53.5391 195.746 53C195.746 52.4688 195.859 51.9688 196.086 51.5C196.32 51.0312 196.652 50.6172 197.082 50.2578C197.52 49.8906 198.051 49.6055 198.676 49.4023C199.309 49.1914 200.02 49.0859 200.809 49.0859C201.91 49.0859 202.855 49.2617 203.645 49.6133C204.441 49.9648 205.051 50.4492 205.473 51.0664C205.902 51.6758 206.117 52.3711 206.117 53.1523H202.742C202.742 52.8242 202.672 52.5312 202.531 52.2734C202.398 52.0078 202.188 51.8008 201.898 51.6523C201.617 51.4961 201.25 51.418 200.797 51.418C200.422 51.418 200.098 51.4844 199.824 51.6172C199.551 51.7422 199.34 51.9141 199.191 52.1328C199.051 52.3438 198.98 52.5781 198.98 52.8359C198.98 53.0312 199.02 53.207 199.098 53.3633C199.184 53.5117 199.32 53.6484 199.508 53.7734C199.695 53.8984 199.938 54.0156 200.234 54.125C200.539 54.2266 200.914 54.3203 201.359 54.4062C202.273 54.5938 203.09 54.8398 203.809 55.1445C204.527 55.4414 205.098 55.8477 205.52 56.3633C205.941 56.8711 206.152 57.5391 206.152 58.3672C206.152 58.9297 206.027 59.4453 205.777 59.9141C205.527 60.3828 205.168 60.793 204.699 61.1445C204.23 61.4883 203.668 61.7578 203.012 61.9531C202.363 62.1406 201.633 62.2344 200.82 62.2344C199.641 62.2344 198.641 62.0234 197.82 61.6016C197.008 61.1797 196.391 60.6445 195.969 59.9961C195.555 59.3398 195.348 58.668 195.348 57.9805H198.547C198.562 58.4414 198.68 58.8125 198.898 59.0938C199.125 59.375 199.41 59.5781 199.754 59.7031C200.105 59.8281 200.484 59.8906 200.891 59.8906C201.328 59.8906 201.691 59.832 201.98 59.7148C202.27 59.5898 202.488 59.4258 202.637 59.2227C202.793 59.0117 202.871 58.7695 202.871 58.4961ZM220.684 58.4375L224.703 44.9375H228.617L222.676 62H220.098L220.684 58.4375ZM216.98 44.9375L220.988 58.4375L221.598 62H218.996L213.09 44.9375H216.98ZM233.562 49.3203V62H230.176V49.3203H233.562ZM229.965 46.0156C229.965 45.5234 230.137 45.1172 230.48 44.7969C230.824 44.4766 231.285 44.3164 231.863 44.3164C232.434 44.3164 232.891 44.4766 233.234 44.7969C233.586 45.1172 233.762 45.5234 233.762 46.0156C233.762 46.5078 233.586 46.9141 233.234 47.2344C232.891 47.5547 232.434 47.7148 231.863 47.7148C231.285 47.7148 230.824 47.5547 230.48 47.2344C230.137 46.9141 229.965 46.5078 229.965 46.0156ZM243.207 58.4961C243.207 58.2539 243.137 58.0352 242.996 57.8398C242.855 57.6445 242.594 57.4648 242.211 57.3008C241.836 57.1289 241.293 56.9727 240.582 56.832C239.941 56.6914 239.344 56.5156 238.789 56.3047C238.242 56.0859 237.766 55.8242 237.359 55.5195C236.961 55.2148 236.648 54.8555 236.422 54.4414C236.195 54.0195 236.082 53.5391 236.082 53C236.082 52.4688 236.195 51.9688 236.422 51.5C236.656 51.0312 236.988 50.6172 237.418 50.2578C237.855 49.8906 238.387 49.6055 239.012 49.4023C239.645 49.1914 240.355 49.0859 241.145 49.0859C242.246 49.0859 243.191 49.2617 243.98 49.6133C244.777 49.9648 245.387 50.4492 245.809 51.0664C246.238 51.6758 246.453 52.3711 246.453 53.1523H243.078C243.078 52.8242 243.008 52.5312 242.867 52.2734C242.734 52.0078 242.523 51.8008 242.234 51.6523C241.953 51.4961 241.586 51.418 241.133 51.418C240.758 51.418 240.434 51.4844 240.16 51.6172C239.887 51.7422 239.676 51.9141 239.527 52.1328C239.387 52.3438 239.316 52.5781 239.316 52.8359C239.316 53.0312 239.355 53.207 239.434 53.3633C239.52 53.5117 239.656 53.6484 239.844 53.7734C240.031 53.8984 240.273 54.0156 240.57 54.125C240.875 54.2266 241.25 54.3203 241.695 54.4062C242.609 54.5938 243.426 54.8398 244.145 55.1445C244.863 55.4414 245.434 55.8477 245.855 56.3633C246.277 56.8711 246.488 57.5391 246.488 58.3672C246.488 58.9297 246.363 59.4453 246.113 59.9141C245.863 60.3828 245.504 60.793 245.035 61.1445C244.566 61.4883 244.004 61.7578 243.348 61.9531C242.699 62.1406 241.969 62.2344 241.156 62.2344C239.977 62.2344 238.977 62.0234 238.156 61.6016C237.344 61.1797 236.727 60.6445 236.305 59.9961C235.891 59.3398 235.684 58.668 235.684 57.9805H238.883C238.898 58.4414 239.016 58.8125 239.234 59.0938C239.461 59.375 239.746 59.5781 240.09 59.7031C240.441 59.8281 240.82 59.8906 241.227 59.8906C241.664 59.8906 242.027 59.832 242.316 59.7148C242.605 59.5898 242.824 59.4258 242.973 59.2227C243.129 59.0117 243.207 58.7695 243.207 58.4961ZM252.242 49.3203V62H248.855V49.3203H252.242ZM248.645 46.0156C248.645 45.5234 248.816 45.1172 249.16 44.7969C249.504 44.4766 249.965 44.3164 250.543 44.3164C251.113 44.3164 251.57 44.4766 251.914 44.7969C252.266 45.1172 252.441 45.5234 252.441 46.0156C252.441 46.5078 252.266 46.9141 251.914 47.2344C251.57 47.5547 251.113 47.7148 250.543 47.7148C249.965 47.7148 249.504 47.5547 249.16 47.2344C248.816 46.9141 248.645 46.5078 248.645 46.0156ZM254.492 55.7891V55.543C254.492 54.6133 254.625 53.7578 254.891 52.9766C255.156 52.1875 255.543 51.5039 256.051 50.9258C256.559 50.3477 257.184 49.8984 257.926 49.5781C258.668 49.25 259.52 49.0859 260.48 49.0859C261.441 49.0859 262.297 49.25 263.047 49.5781C263.797 49.8984 264.426 50.3477 264.934 50.9258C265.449 51.5039 265.84 52.1875 266.105 52.9766C266.371 53.7578 266.504 54.6133 266.504 55.543V55.7891C266.504 56.7109 266.371 57.5664 266.105 58.3555C265.84 59.1367 265.449 59.8203 264.934 60.4062C264.426 60.9844 263.801 61.4336 263.059 61.7539C262.316 62.0742 261.465 62.2344 260.504 62.2344C259.543 62.2344 258.688 62.0742 257.938 61.7539C257.195 61.4336 256.566 60.9844 256.051 60.4062C255.543 59.8203 255.156 59.1367 254.891 58.3555C254.625 57.5664 254.492 56.7109 254.492 55.7891ZM257.867 55.543V55.7891C257.867 56.3203 257.914 56.8164 258.008 57.2773C258.102 57.7383 258.25 58.1445 258.453 58.4961C258.664 58.8398 258.938 59.1094 259.273 59.3047C259.609 59.5 260.02 59.5977 260.504 59.5977C260.973 59.5977 261.375 59.5 261.711 59.3047C262.047 59.1094 262.316 58.8398 262.52 58.4961C262.723 58.1445 262.871 57.7383 262.965 57.2773C263.066 56.8164 263.117 56.3203 263.117 55.7891V55.543C263.117 55.0273 263.066 54.543 262.965 54.0898C262.871 53.6289 262.719 53.2227 262.508 52.8711C262.305 52.5117 262.035 52.2305 261.699 52.0273C261.363 51.8242 260.957 51.7227 260.48 51.7227C260.004 51.7227 259.598 51.8242 259.262 52.0273C258.934 52.2305 258.664 52.5117 258.453 52.8711C258.25 53.2227 258.102 53.6289 258.008 54.0898C257.914 54.543 257.867 55.0273 257.867 55.543ZM271.883 52.0273V62H268.508V49.3203H271.672L271.883 52.0273ZM271.391 55.2148H270.477C270.477 54.2773 270.598 53.4336 270.84 52.6836C271.082 51.9258 271.422 51.2812 271.859 50.75C272.297 50.2109 272.816 49.8008 273.418 49.5195C274.027 49.2305 274.707 49.0859 275.457 49.0859C276.051 49.0859 276.594 49.1719 277.086 49.3438C277.578 49.5156 278 49.7891 278.352 50.1641C278.711 50.5391 278.984 51.0352 279.172 51.6523C279.367 52.2695 279.465 53.0234 279.465 53.9141V62H276.066V53.9023C276.066 53.3398 275.988 52.9023 275.832 52.5898C275.676 52.2773 275.445 52.0586 275.141 51.9336C274.844 51.8008 274.477 51.7344 274.039 51.7344C273.586 51.7344 273.191 51.8242 272.855 52.0039C272.527 52.1836 272.254 52.4336 272.035 52.7539C271.824 53.0664 271.664 53.4336 271.555 53.8555C271.445 54.2773 271.391 54.7305 271.391 55.2148Z" fill="#888888"/>
<path d="M107.205 107.146H99.251V101.191H107.205C108.289 101.191 109.168 101.008 109.842 100.642C110.516 100.275 111.006 99.77 111.314 99.1255C111.636 98.4663 111.797 97.7266 111.797 96.9062C111.797 96.0273 111.636 95.2144 111.314 94.4673C111.006 93.7202 110.516 93.1196 109.842 92.6655C109.168 92.1968 108.289 91.9624 107.205 91.9624H102.151V118H94.439V86.0078H107.205C109.769 86.0078 111.973 86.4766 113.819 87.4141C115.679 88.3516 117.107 89.6406 118.104 91.2812C119.1 92.9072 119.598 94.7676 119.598 96.8623C119.598 98.9277 119.1 100.729 118.104 102.268C117.107 103.806 115.679 105.007 113.819 105.871C111.973 106.721 109.769 107.146 107.205 107.146ZM130.87 100.114V118H123.465V94.2256H130.386L130.87 100.114ZM137.901 94.0498L137.769 100.927C137.476 100.898 137.081 100.861 136.583 100.817C136.084 100.773 135.667 100.751 135.33 100.751C134.466 100.751 133.719 100.854 133.089 101.059C132.474 101.25 131.961 101.542 131.551 101.938C131.155 102.319 130.862 102.802 130.672 103.388C130.496 103.974 130.416 104.655 130.43 105.432L129.09 104.553C129.09 102.956 129.244 101.506 129.551 100.202C129.874 98.8838 130.328 97.7485 130.914 96.7964C131.5 95.8296 132.21 95.0898 133.045 94.5771C133.88 94.0498 134.817 93.7861 135.857 93.7861C136.224 93.7861 136.583 93.8081 136.934 93.8521C137.3 93.896 137.623 93.9619 137.901 94.0498ZM138.736 106.354V105.893C138.736 104.15 138.985 102.546 139.483 101.081C139.981 99.6016 140.713 98.3198 141.68 97.2358C142.647 96.1519 143.841 95.3096 145.262 94.709C146.683 94.0938 148.323 93.7861 150.184 93.7861C152.059 93.7861 153.707 94.0938 155.127 94.709C156.563 95.3096 157.764 96.1519 158.731 97.2358C159.698 98.3198 160.43 99.6016 160.928 101.081C161.426 102.546 161.675 104.15 161.675 105.893V106.354C161.675 108.083 161.426 109.687 160.928 111.167C160.43 112.631 159.698 113.913 158.731 115.012C157.764 116.096 156.57 116.938 155.149 117.539C153.729 118.139 152.088 118.439 150.228 118.439C148.367 118.439 146.719 118.139 145.284 117.539C143.848 116.938 142.647 116.096 141.68 115.012C140.713 113.913 139.981 112.631 139.483 111.167C138.985 109.687 138.736 108.083 138.736 106.354ZM146.141 105.893V106.354C146.141 107.248 146.207 108.083 146.338 108.859C146.47 109.636 146.69 110.317 146.998 110.903C147.305 111.474 147.723 111.921 148.25 112.243C148.777 112.565 149.437 112.727 150.228 112.727C151.004 112.727 151.648 112.565 152.161 112.243C152.688 111.921 153.106 111.474 153.414 110.903C153.721 110.317 153.941 109.636 154.073 108.859C154.205 108.083 154.271 107.248 154.271 106.354V105.893C154.271 105.029 154.205 104.216 154.073 103.454C153.941 102.678 153.721 101.997 153.414 101.411C153.106 100.81 152.688 100.341 152.161 100.004C151.634 99.6675 150.975 99.499 150.184 99.499C149.407 99.499 148.755 99.6675 148.228 100.004C147.715 100.341 147.305 100.81 146.998 101.411C146.69 101.997 146.47 102.678 146.338 103.454C146.207 104.216 146.141 105.029 146.141 105.893ZM165.521 94.2256H172.947V118.769C172.947 120.673 172.581 122.277 171.849 123.581C171.116 124.899 170.069 125.896 168.707 126.569C167.344 127.258 165.718 127.602 163.829 127.602C163.199 127.602 162.62 127.573 162.093 127.514C161.551 127.47 160.958 127.375 160.313 127.229V121.625C160.694 121.684 161.045 121.728 161.368 121.757C161.69 121.801 162.042 121.823 162.422 121.823C163.096 121.823 163.66 121.713 164.114 121.494C164.568 121.274 164.913 120.937 165.147 120.483C165.396 120.029 165.521 119.458 165.521 118.769V94.2256ZM164.971 88.0952C164.971 87.0405 165.352 86.1763 166.114 85.5024C166.875 84.8286 167.864 84.4917 169.08 84.4917C170.296 84.4917 171.285 84.8286 172.046 85.5024C172.808 86.1763 173.189 87.0405 173.189 88.0952C173.189 89.1499 172.808 90.0142 172.046 90.688C171.285 91.3618 170.296 91.6987 169.08 91.6987C167.864 91.6987 166.875 91.3618 166.114 90.688C165.352 90.0142 164.971 89.1499 164.971 88.0952ZM188.658 118.439C186.724 118.439 184.996 118.139 183.472 117.539C181.949 116.923 180.66 116.081 179.605 115.012C178.565 113.942 177.767 112.712 177.21 111.32C176.668 109.929 176.397 108.457 176.397 106.904V106.069C176.397 104.326 176.639 102.714 177.122 101.235C177.605 99.7407 178.323 98.437 179.275 97.3237C180.228 96.2104 181.421 95.3462 182.857 94.731C184.292 94.1011 185.962 93.7861 187.867 93.7861C189.551 93.7861 191.06 94.0571 192.393 94.5991C193.726 95.1411 194.854 95.9175 195.777 96.9282C196.714 97.939 197.425 99.1621 197.908 100.598C198.406 102.033 198.655 103.645 198.655 105.432V108.442H179.231V103.806H191.426V103.234C191.441 102.443 191.302 101.77 191.009 101.213C190.73 100.656 190.32 100.231 189.778 99.9385C189.236 99.6455 188.577 99.499 187.801 99.499C186.995 99.499 186.329 99.6748 185.801 100.026C185.289 100.378 184.886 100.861 184.593 101.477C184.314 102.077 184.117 102.773 184 103.564C183.882 104.355 183.824 105.19 183.824 106.069V106.904C183.824 107.783 183.941 108.581 184.175 109.299C184.424 110.017 184.776 110.632 185.23 111.145C185.699 111.643 186.255 112.031 186.9 112.309C187.559 112.587 188.306 112.727 189.141 112.727C190.152 112.727 191.148 112.536 192.129 112.155C193.111 111.774 193.953 111.145 194.656 110.266L198.018 114.265C197.535 114.953 196.846 115.62 195.953 116.264C195.074 116.909 194.019 117.436 192.789 117.846C191.558 118.242 190.181 118.439 188.658 118.439ZM211.707 112.727C212.396 112.727 212.981 112.602 213.465 112.353C213.963 112.089 214.336 111.723 214.585 111.254C214.849 110.771 214.974 110.192 214.959 109.519H221.924C221.939 111.306 221.5 112.873 220.606 114.221C219.727 115.554 218.526 116.594 217.002 117.341C215.494 118.073 213.787 118.439 211.883 118.439C210.022 118.439 208.396 118.139 207.005 117.539C205.613 116.923 204.449 116.074 203.511 114.99C202.588 113.891 201.893 112.609 201.424 111.145C200.97 109.68 200.743 108.09 200.743 106.376V105.871C200.743 104.157 200.97 102.568 201.424 101.103C201.893 99.6235 202.588 98.3418 203.511 97.2578C204.449 96.1592 205.606 95.3096 206.983 94.709C208.375 94.0938 209.993 93.7861 211.839 93.7861C213.816 93.7861 215.56 94.1597 217.068 94.9067C218.592 95.6538 219.786 96.7378 220.65 98.1587C221.514 99.5796 221.939 101.301 221.924 103.322H214.959C214.974 102.604 214.864 101.96 214.629 101.389C214.395 100.817 214.029 100.363 213.531 100.026C213.047 99.6748 212.425 99.499 211.663 99.499C210.901 99.499 210.286 99.6675 209.817 100.004C209.349 100.341 208.99 100.81 208.741 101.411C208.506 101.997 208.345 102.67 208.257 103.432C208.184 104.194 208.147 105.007 208.147 105.871V106.376C208.147 107.255 208.184 108.083 208.257 108.859C208.345 109.621 208.514 110.295 208.763 110.881C209.012 111.452 209.371 111.906 209.839 112.243C210.308 112.565 210.931 112.727 211.707 112.727ZM237.613 94.2256V99.3672H223.287V94.2256H237.613ZM226.297 88.3149H233.702V110.244C233.702 110.874 233.775 111.364 233.921 111.716C234.068 112.053 234.317 112.294 234.668 112.441C235.035 112.573 235.518 112.639 236.119 112.639C236.543 112.639 236.895 112.631 237.173 112.617C237.452 112.587 237.715 112.551 237.964 112.507V117.802C237.334 118.007 236.675 118.161 235.987 118.264C235.298 118.381 234.566 118.439 233.79 118.439C232.208 118.439 230.853 118.19 229.725 117.692C228.611 117.194 227.762 116.411 227.176 115.341C226.59 114.272 226.297 112.88 226.297 111.167V88.3149ZM264.881 107.146H256.927V101.191H264.881C265.965 101.191 266.844 101.008 267.518 100.642C268.191 100.275 268.682 99.77 268.99 99.1255C269.312 98.4663 269.473 97.7266 269.473 96.9062C269.473 96.0273 269.312 95.2144 268.99 94.4673C268.682 93.7202 268.191 93.1196 267.518 92.6655C266.844 92.1968 265.965 91.9624 264.881 91.9624H259.827V118H252.115V86.0078H264.881C267.444 86.0078 269.649 86.4766 271.495 87.4141C273.355 88.3516 274.783 89.6406 275.779 91.2812C276.775 92.9072 277.273 94.7676 277.273 96.8623C277.273 98.9277 276.775 100.729 275.779 102.268C274.783 103.806 273.355 105.007 271.495 105.871C269.649 106.721 267.444 107.146 264.881 107.146ZM288.326 84.25V118H280.921V84.25H288.326ZM287.447 105.3L285.711 105.344C285.711 103.674 285.916 102.136 286.326 100.729C286.736 99.3232 287.322 98.1001 288.084 97.0601C288.846 96.02 289.761 95.2144 290.831 94.6431C291.9 94.0718 293.086 93.7861 294.39 93.7861C295.562 93.7861 296.631 93.9546 297.598 94.2915C298.58 94.6284 299.422 95.1704 300.125 95.9175C300.843 96.6646 301.392 97.6387 301.773 98.8398C302.168 100.041 302.366 101.506 302.366 103.234V118H294.917V103.19C294.917 102.224 294.778 101.477 294.5 100.949C294.236 100.407 293.855 100.034 293.357 99.8286C292.859 99.6089 292.251 99.499 291.534 99.499C290.669 99.499 289.966 99.6455 289.424 99.9385C288.882 100.231 288.465 100.642 288.172 101.169C287.894 101.682 287.703 102.29 287.601 102.993C287.498 103.696 287.447 104.465 287.447 105.3ZM314.297 94.2256V118H306.871V94.2256H314.297ZM306.431 88.0952C306.431 87.0405 306.812 86.1763 307.574 85.5024C308.335 84.8286 309.324 84.4917 310.54 84.4917C311.756 84.4917 312.745 84.8286 313.506 85.5024C314.268 86.1763 314.649 87.0405 314.649 88.0952C314.649 89.1499 314.268 90.0142 313.506 90.688C312.745 91.3618 311.756 91.6987 310.54 91.6987C309.324 91.6987 308.335 91.3618 307.574 90.688C306.812 90.0142 306.431 89.1499 306.431 88.0952ZM326.69 84.25V118H319.263V84.25H326.69ZM330.337 106.354V105.893C330.337 104.15 330.586 102.546 331.084 101.081C331.583 99.6016 332.315 98.3198 333.282 97.2358C334.249 96.1519 335.442 95.3096 336.863 94.709C338.284 94.0938 339.925 93.7861 341.785 93.7861C343.66 93.7861 345.308 94.0938 346.729 94.709C348.165 95.3096 349.366 96.1519 350.333 97.2358C351.299 98.3198 352.032 99.6016 352.53 101.081C353.028 102.546 353.277 104.15 353.277 105.893V106.354C353.277 108.083 353.028 109.687 352.53 111.167C352.032 112.631 351.299 113.913 350.333 115.012C349.366 116.096 348.172 116.938 346.751 117.539C345.33 118.139 343.689 118.439 341.829 118.439C339.969 118.439 338.321 118.139 336.885 117.539C335.45 116.938 334.249 116.096 333.282 115.012C332.315 113.913 331.583 112.631 331.084 111.167C330.586 109.687 330.337 108.083 330.337 106.354ZM337.742 105.893V106.354C337.742 107.248 337.808 108.083 337.94 108.859C338.072 109.636 338.292 110.317 338.599 110.903C338.907 111.474 339.324 111.921 339.852 112.243C340.379 112.565 341.038 112.727 341.829 112.727C342.605 112.727 343.25 112.565 343.763 112.243C344.29 111.921 344.708 111.474 345.015 110.903C345.323 110.317 345.542 109.636 345.674 108.859C345.806 108.083 345.872 107.248 345.872 106.354V105.893C345.872 105.029 345.806 104.216 345.674 103.454C345.542 102.678 345.323 101.997 345.015 101.411C344.708 100.81 344.29 100.341 343.763 100.004C343.235 99.6675 342.576 99.499 341.785 99.499C341.009 99.499 340.357 99.6675 339.83 100.004C339.317 100.341 338.907 100.81 338.599 101.411C338.292 101.997 338.072 102.678 337.94 103.454C337.808 104.216 337.742 105.029 337.742 105.893ZM369.031 111.32C369.031 110.91 368.892 110.559 368.614 110.266C368.35 109.958 367.881 109.68 367.208 109.431C366.534 109.167 365.589 108.903 364.373 108.64C363.216 108.391 362.125 108.061 361.099 107.651C360.088 107.241 359.202 106.743 358.44 106.157C357.679 105.571 357.078 104.875 356.639 104.069C356.214 103.264 356.001 102.341 356.001 101.301C356.001 100.29 356.214 99.3379 356.639 98.4443C357.078 97.5361 357.715 96.7378 358.55 96.0493C359.4 95.3462 360.433 94.7969 361.648 94.4014C362.864 93.9912 364.249 93.7861 365.801 93.7861C367.94 93.7861 369.786 94.1157 371.338 94.7749C372.891 95.4194 374.085 96.3276 374.92 97.4995C375.77 98.6567 376.194 99.9971 376.194 101.521H368.79C368.79 100.92 368.687 100.407 368.482 99.9824C368.292 99.5576 367.977 99.2354 367.537 99.0156C367.098 98.7812 366.512 98.6641 365.779 98.6641C365.267 98.6641 364.798 98.7593 364.373 98.9497C363.963 99.1401 363.633 99.4038 363.384 99.7407C363.135 100.078 363.011 100.473 363.011 100.927C363.011 101.25 363.084 101.542 363.23 101.806C363.392 102.055 363.633 102.29 363.956 102.509C364.278 102.714 364.688 102.905 365.186 103.081C365.684 103.242 366.285 103.388 366.988 103.52C368.584 103.813 370.079 104.23 371.47 104.772C372.862 105.314 373.99 106.083 374.854 107.08C375.733 108.076 376.172 109.416 376.172 111.101C376.172 112.155 375.931 113.129 375.447 114.023C374.964 114.902 374.268 115.678 373.36 116.352C372.452 117.011 371.36 117.524 370.086 117.89C368.812 118.256 367.376 118.439 365.779 118.439C363.509 118.439 361.59 118.037 360.022 117.231C358.455 116.411 357.269 115.385 356.463 114.155C355.672 112.91 355.276 111.65 355.276 110.375H362.176C362.205 111.108 362.381 111.708 362.703 112.177C363.04 112.646 363.487 112.99 364.043 113.21C364.6 113.43 365.245 113.54 365.977 113.54C366.651 113.54 367.208 113.444 367.647 113.254C368.101 113.063 368.445 112.807 368.68 112.485C368.914 112.148 369.031 111.76 369.031 111.32ZM378.721 106.354V105.893C378.721 104.15 378.97 102.546 379.468 101.081C379.966 99.6016 380.699 98.3198 381.666 97.2358C382.632 96.1519 383.826 95.3096 385.247 94.709C386.668 94.0938 388.309 93.7861 390.169 93.7861C392.044 93.7861 393.692 94.0938 395.113 94.709C396.548 95.3096 397.75 96.1519 398.716 97.2358C399.683 98.3198 400.416 99.6016 400.914 101.081C401.412 102.546 401.661 104.15 401.661 105.893V106.354C401.661 108.083 401.412 109.687 400.914 111.167C400.416 112.631 399.683 113.913 398.716 115.012C397.75 116.096 396.556 116.938 395.135 117.539C393.714 118.139 392.073 118.439 390.213 118.439C388.353 118.439 386.705 118.139 385.269 117.539C383.833 116.938 382.632 116.096 381.666 115.012C380.699 113.913 379.966 112.631 379.468 111.167C378.97 109.687 378.721 108.083 378.721 106.354ZM386.126 105.893V106.354C386.126 107.248 386.192 108.083 386.324 108.859C386.456 109.636 386.675 110.317 386.983 110.903C387.291 111.474 387.708 111.921 388.235 112.243C388.763 112.565 389.422 112.727 390.213 112.727C390.989 112.727 391.634 112.565 392.146 112.243C392.674 111.921 393.091 111.474 393.399 110.903C393.707 110.317 393.926 109.636 394.058 108.859C394.19 108.083 394.256 107.248 394.256 106.354V105.893C394.256 105.029 394.19 104.216 394.058 103.454C393.926 102.678 393.707 101.997 393.399 101.411C393.091 100.81 392.674 100.341 392.146 100.004C391.619 99.6675 390.96 99.499 390.169 99.499C389.393 99.499 388.741 99.6675 388.213 100.004C387.701 100.341 387.291 100.81 386.983 101.411C386.675 101.997 386.456 102.678 386.324 103.454C386.192 104.216 386.126 105.029 386.126 105.893ZM412.427 98.7959V127.141H405.022V94.2256H411.922L412.427 98.7959ZM427.017 105.827V106.289C427.017 108.017 426.819 109.621 426.424 111.101C426.028 112.58 425.442 113.869 424.666 114.968C423.89 116.066 422.923 116.923 421.766 117.539C420.623 118.139 419.297 118.439 417.789 118.439C416.368 118.439 415.145 118.125 414.119 117.495C413.094 116.865 412.237 115.993 411.548 114.88C410.86 113.767 410.303 112.492 409.878 111.057C409.454 109.621 409.117 108.105 408.868 106.508V105.915C409.117 104.201 409.454 102.612 409.878 101.147C410.303 99.6675 410.86 98.3784 411.548 97.2798C412.237 96.1812 413.086 95.3242 414.097 94.709C415.123 94.0938 416.346 93.7861 417.767 93.7861C419.275 93.7861 420.601 94.0718 421.744 94.6431C422.901 95.2144 423.868 96.0347 424.644 97.104C425.435 98.1587 426.028 99.4258 426.424 100.905C426.819 102.385 427.017 104.025 427.017 105.827ZM419.612 106.289V105.827C419.612 104.904 419.546 104.062 419.415 103.3C419.283 102.524 419.07 101.85 418.777 101.279C418.499 100.708 418.125 100.268 417.657 99.9604C417.188 99.6528 416.609 99.499 415.921 99.499C415.13 99.499 414.463 99.6235 413.921 99.8726C413.394 100.107 412.969 100.473 412.647 100.971C412.339 101.455 412.12 102.062 411.988 102.795C411.871 103.513 411.819 104.355 411.834 105.322V107.124C411.805 108.237 411.915 109.218 412.164 110.068C412.413 110.903 412.845 111.555 413.46 112.023C414.075 112.492 414.91 112.727 415.965 112.727C416.668 112.727 417.254 112.565 417.723 112.243C418.191 111.906 418.565 111.445 418.843 110.859C419.122 110.258 419.319 109.57 419.437 108.793C419.554 108.017 419.612 107.182 419.612 106.289ZM437.564 84.25V118H430.159V84.25H437.564ZM436.685 105.3L434.949 105.344C434.949 103.674 435.154 102.136 435.564 100.729C435.975 99.3232 436.561 98.1001 437.322 97.0601C438.084 96.02 439 95.2144 440.069 94.6431C441.138 94.0718 442.325 93.7861 443.628 93.7861C444.8 93.7861 445.87 93.9546 446.836 94.2915C447.818 94.6284 448.66 95.1704 449.363 95.9175C450.081 96.6646 450.63 97.6387 451.011 98.8398C451.407 100.041 451.604 101.506 451.604 103.234V118H444.156V103.19C444.156 102.224 444.017 101.477 443.738 100.949C443.475 100.407 443.094 100.034 442.596 99.8286C442.098 99.6089 441.49 99.499 440.772 99.499C439.908 99.499 439.205 99.6455 438.663 99.9385C438.121 100.231 437.703 100.642 437.41 101.169C437.132 101.682 436.941 102.29 436.839 102.993C436.736 103.696 436.685 104.465 436.685 105.3ZM463.008 115.209L469.161 94.2256H477.115L467.557 121.538C467.352 122.138 467.081 122.783 466.744 123.471C466.407 124.174 465.945 124.841 465.359 125.471C464.773 126.101 464.019 126.613 463.096 127.009C462.188 127.404 461.06 127.602 459.712 127.602C458.995 127.602 458.467 127.565 458.13 127.492C457.808 127.434 457.31 127.324 456.636 127.163V121.867C456.827 121.867 456.988 121.867 457.12 121.867C457.266 121.867 457.427 121.867 457.603 121.867C458.394 121.867 459.024 121.787 459.493 121.625C459.976 121.464 460.342 121.23 460.591 120.922C460.855 120.615 461.06 120.241 461.207 119.802L463.008 115.209ZM461.448 94.2256L466.128 110.859L466.941 118.703H461.976L453.516 94.2256H461.448Z" fill="#424241"/>
<path d="M1363 15C1363 6.71573 1356.28 0 1348 0H1134V167H1348C1356.28 167 1363 160.284 1363 152V15Z" fill="#5B2E0F"/>
<path d="M1234.26 106.286H1262.74V111.857H1234.26V106.286ZM1239.96 117.429H1257.04V123H1239.96V117.429ZM1248.5 45C1240.95 45 1233.71 47.9349 1228.37 53.1592C1223.03 58.3834 1220.03 65.469 1220.03 72.8571C1219.84 76.9057 1220.63 80.9412 1222.34 84.6315C1224.05 88.3219 1226.64 91.5616 1229.88 94.0843C1232.73 96.675 1234.26 98.1514 1234.26 100.714H1239.96C1239.96 95.5886 1236.8 92.7193 1233.72 89.9614C1231.06 87.9676 1228.94 85.3658 1227.55 82.3838C1226.15 79.4019 1225.53 76.1308 1225.72 72.8571C1225.72 66.9466 1228.12 61.2781 1232.39 57.0988C1236.67 52.9194 1242.46 50.5714 1248.5 50.5714C1254.54 50.5714 1260.33 52.9194 1264.61 57.0988C1268.88 61.2781 1271.28 66.9466 1271.28 72.8571C1271.47 76.1333 1270.84 79.4059 1269.44 82.388C1268.04 85.3701 1265.92 87.9706 1263.25 89.9614C1260.2 92.7471 1257.04 95.5329 1257.04 100.714H1262.74C1262.74 98.1514 1264.25 96.675 1267.12 94.0564C1270.36 91.5381 1272.94 88.3031 1274.66 84.6176C1276.37 80.9321 1277.16 76.9014 1276.97 72.8571C1276.97 69.1989 1276.24 65.5765 1274.81 62.1967C1273.37 58.8169 1271.28 55.7459 1268.63 53.1592C1265.99 50.5724 1262.85 48.5205 1259.4 47.1205C1255.94 45.7205 1252.24 45 1248.5 45Z" fill="#BA7F56"/>
</svg>
