<svg width="1363" height="167" viewBox="0 0 1363 167" fill="none" xmlns="http://www.w3.org/2000/svg">
<rect width="1363" height="167" rx="15" fill="#F0F0F0"/>
<path d="M0 15C0 6.71573 6.71573 0 15 0H37V167H15C6.71573 167 0 160.284 0 152V15Z" fill="#5B2E0F"/>
<path d="M100.906 50.9219L93.3945 48.2383V45.0859L103.602 49.375V51.6367L100.906 50.9219ZM93.3945 53.1719L100.918 50.4297L103.602 49.7852V52.0352L93.3945 56.3242V53.1719ZM115.414 40.9375V58H111.898V40.9375H115.414ZM122.211 48.2266V50.9688H114.453V48.2266H122.211ZM123.031 40.9375V43.6914H114.453V40.9375H123.031ZM124.062 51.7891V51.543C124.062 50.6133 124.195 49.7578 124.461 48.9766C124.727 48.1875 125.113 47.5039 125.621 46.9258C126.129 46.3477 126.754 45.8984 127.496 45.5781C128.238 45.25 129.09 45.0859 130.051 45.0859C131.012 45.0859 131.867 45.25 132.617 45.5781C133.367 45.8984 133.996 46.3477 134.504 46.9258C135.02 47.5039 135.41 48.1875 135.676 48.9766C135.941 49.7578 136.074 50.6133 136.074 51.543V51.7891C136.074 52.7109 135.941 53.5664 135.676 54.3555C135.41 55.1367 135.02 55.8203 134.504 56.4062C133.996 56.9844 133.371 57.4336 132.629 57.7539C131.887 58.0742 131.035 58.2344 130.074 58.2344C129.113 58.2344 128.258 58.0742 127.508 57.7539C126.766 57.4336 126.137 56.9844 125.621 56.4062C125.113 55.8203 124.727 55.1367 124.461 54.3555C124.195 53.5664 124.062 52.7109 124.062 51.7891ZM127.438 51.543V51.7891C127.438 52.3203 127.484 52.8164 127.578 53.2773C127.672 53.7383 127.82 54.1445 128.023 54.4961C128.234 54.8398 128.508 55.1094 128.844 55.3047C129.18 55.5 129.59 55.5977 130.074 55.5977C130.543 55.5977 130.945 55.5 131.281 55.3047C131.617 55.1094 131.887 54.8398 132.09 54.4961C132.293 54.1445 132.441 53.7383 132.535 53.2773C132.637 52.8164 132.688 52.3203 132.688 51.7891V51.543C132.688 51.0273 132.637 50.543 132.535 50.0898C132.441 49.6289 132.289 49.2227 132.078 48.8711C131.875 48.5117 131.605 48.2305 131.27 48.0273C130.934 47.8242 130.527 47.7227 130.051 47.7227C129.574 47.7227 129.168 47.8242 128.832 48.0273C128.504 48.2305 128.234 48.5117 128.023 48.8711C127.82 49.2227 127.672 49.6289 127.578 50.0898C127.484 50.543 127.438 51.0273 127.438 51.543ZM141.523 48.0859V58H138.148V45.3203H141.324L141.523 48.0859ZM145.344 45.2383L145.285 48.3672C145.121 48.3438 144.922 48.3242 144.688 48.3086C144.461 48.2852 144.254 48.2734 144.066 48.2734C143.59 48.2734 143.176 48.3359 142.824 48.4609C142.48 48.5781 142.191 48.7539 141.957 48.9883C141.73 49.2227 141.559 49.5078 141.441 49.8438C141.332 50.1797 141.27 50.5625 141.254 50.9922L140.574 50.7812C140.574 49.9609 140.656 49.207 140.82 48.5195C140.984 47.8242 141.223 47.2188 141.535 46.7031C141.855 46.1875 142.246 45.7891 142.707 45.5078C143.168 45.2266 143.695 45.0859 144.289 45.0859C144.477 45.0859 144.668 45.1016 144.863 45.1328C145.059 45.1562 145.219 45.1914 145.344 45.2383ZM153.734 45.3203V47.7109H146.352V45.3203H153.734ZM148.18 42.1914H151.555V54.1797C151.555 54.5469 151.602 54.8281 151.695 55.0234C151.797 55.2188 151.945 55.3555 152.141 55.4336C152.336 55.5039 152.582 55.5391 152.879 55.5391C153.09 55.5391 153.277 55.5312 153.441 55.5156C153.613 55.4922 153.758 55.4688 153.875 55.4453L153.887 57.9297C153.598 58.0234 153.285 58.0977 152.949 58.1523C152.613 58.207 152.242 58.2344 151.836 58.2344C151.094 58.2344 150.445 58.1133 149.891 57.8711C149.344 57.6211 148.922 57.2227 148.625 56.6758C148.328 56.1289 148.18 55.4102 148.18 54.5195V42.1914ZM163.156 54.9648V45.3203H166.531V58H163.355L163.156 54.9648ZM163.531 52.3633L164.527 52.3398C164.527 53.1836 164.43 53.9688 164.234 54.6953C164.039 55.4141 163.746 56.0391 163.355 56.5703C162.965 57.0938 162.473 57.5039 161.879 57.8008C161.285 58.0898 160.586 58.2344 159.781 58.2344C159.164 58.2344 158.594 58.1484 158.07 57.9766C157.555 57.7969 157.109 57.5195 156.734 57.1445C156.367 56.7617 156.078 56.2734 155.867 55.6797C155.664 55.0781 155.562 54.3555 155.562 53.5117V45.3203H158.938V53.5352C158.938 53.9102 158.98 54.2266 159.066 54.4844C159.16 54.7422 159.289 54.9531 159.453 55.1172C159.617 55.2812 159.809 55.3984 160.027 55.4688C160.254 55.5391 160.504 55.5742 160.777 55.5742C161.473 55.5742 162.02 55.4336 162.418 55.1523C162.824 54.8711 163.109 54.4883 163.273 54.0039C163.445 53.5117 163.531 52.9648 163.531 52.3633ZM172.414 48.0273V58H169.039V45.3203H172.203L172.414 48.0273ZM171.922 51.2148H171.008C171.008 50.2773 171.129 49.4336 171.371 48.6836C171.613 47.9258 171.953 47.2812 172.391 46.75C172.828 46.2109 173.348 45.8008 173.949 45.5195C174.559 45.2305 175.238 45.0859 175.988 45.0859C176.582 45.0859 177.125 45.1719 177.617 45.3438C178.109 45.5156 178.531 45.7891 178.883 46.1641C179.242 46.5391 179.516 47.0352 179.703 47.6523C179.898 48.2695 179.996 49.0234 179.996 49.9141V58H176.598V49.9023C176.598 49.3398 176.52 48.9023 176.363 48.5898C176.207 48.2773 175.977 48.0586 175.672 47.9336C175.375 47.8008 175.008 47.7344 174.57 47.7344C174.117 47.7344 173.723 47.8242 173.387 48.0039C173.059 48.1836 172.785 48.4336 172.566 48.7539C172.355 49.0664 172.195 49.4336 172.086 49.8555C171.977 50.2773 171.922 50.7305 171.922 51.2148ZM190.062 54.9648V45.3203H193.438V58H190.262L190.062 54.9648ZM190.438 52.3633L191.434 52.3398C191.434 53.1836 191.336 53.9688 191.141 54.6953C190.945 55.4141 190.652 56.0391 190.262 56.5703C189.871 57.0938 189.379 57.5039 188.785 57.8008C188.191 58.0898 187.492 58.2344 186.688 58.2344C186.07 58.2344 185.5 58.1484 184.977 57.9766C184.461 57.7969 184.016 57.5195 183.641 57.1445C183.273 56.7617 182.984 56.2734 182.773 55.6797C182.57 55.0781 182.469 54.3555 182.469 53.5117V45.3203H185.844V53.5352C185.844 53.9102 185.887 54.2266 185.973 54.4844C186.066 54.7422 186.195 54.9531 186.359 55.1172C186.523 55.2812 186.715 55.3984 186.934 55.4688C187.16 55.5391 187.41 55.5742 187.684 55.5742C188.379 55.5742 188.926 55.4336 189.324 55.1523C189.73 54.8711 190.016 54.4883 190.18 54.0039C190.352 53.5117 190.438 52.9648 190.438 52.3633ZM202.871 54.4961C202.871 54.2539 202.801 54.0352 202.66 53.8398C202.52 53.6445 202.258 53.4648 201.875 53.3008C201.5 53.1289 200.957 52.9727 200.246 52.832C199.605 52.6914 199.008 52.5156 198.453 52.3047C197.906 52.0859 197.43 51.8242 197.023 51.5195C196.625 51.2148 196.312 50.8555 196.086 50.4414C195.859 50.0195 195.746 49.5391 195.746 49C195.746 48.4688 195.859 47.9688 196.086 47.5C196.32 47.0312 196.652 46.6172 197.082 46.2578C197.52 45.8906 198.051 45.6055 198.676 45.4023C199.309 45.1914 200.02 45.0859 200.809 45.0859C201.91 45.0859 202.855 45.2617 203.645 45.6133C204.441 45.9648 205.051 46.4492 205.473 47.0664C205.902 47.6758 206.117 48.3711 206.117 49.1523H202.742C202.742 48.8242 202.672 48.5312 202.531 48.2734C202.398 48.0078 202.188 47.8008 201.898 47.6523C201.617 47.4961 201.25 47.418 200.797 47.418C200.422 47.418 200.098 47.4844 199.824 47.6172C199.551 47.7422 199.34 47.9141 199.191 48.1328C199.051 48.3438 198.98 48.5781 198.98 48.8359C198.98 49.0312 199.02 49.207 199.098 49.3633C199.184 49.5117 199.32 49.6484 199.508 49.7734C199.695 49.8984 199.938 50.0156 200.234 50.125C200.539 50.2266 200.914 50.3203 201.359 50.4062C202.273 50.5938 203.09 50.8398 203.809 51.1445C204.527 51.4414 205.098 51.8477 205.52 52.3633C205.941 52.8711 206.152 53.5391 206.152 54.3672C206.152 54.9297 206.027 55.4453 205.777 55.9141C205.527 56.3828 205.168 56.793 204.699 57.1445C204.23 57.4883 203.668 57.7578 203.012 57.9531C202.363 58.1406 201.633 58.2344 200.82 58.2344C199.641 58.2344 198.641 58.0234 197.82 57.6016C197.008 57.1797 196.391 56.6445 195.969 55.9961C195.555 55.3398 195.348 54.668 195.348 53.9805H198.547C198.562 54.4414 198.68 54.8125 198.898 55.0938C199.125 55.375 199.41 55.5781 199.754 55.7031C200.105 55.8281 200.484 55.8906 200.891 55.8906C201.328 55.8906 201.691 55.832 201.98 55.7148C202.27 55.5898 202.488 55.4258 202.637 55.2227C202.793 55.0117 202.871 54.7695 202.871 54.4961ZM220.684 54.4375L224.703 40.9375H228.617L222.676 58H220.098L220.684 54.4375ZM216.98 40.9375L220.988 54.4375L221.598 58H218.996L213.09 40.9375H216.98ZM233.562 45.3203V58H230.176V45.3203H233.562ZM229.965 42.0156C229.965 41.5234 230.137 41.1172 230.48 40.7969C230.824 40.4766 231.285 40.3164 231.863 40.3164C232.434 40.3164 232.891 40.4766 233.234 40.7969C233.586 41.1172 233.762 41.5234 233.762 42.0156C233.762 42.5078 233.586 42.9141 233.234 43.2344C232.891 43.5547 232.434 43.7148 231.863 43.7148C231.285 43.7148 230.824 43.5547 230.48 43.2344C230.137 42.9141 229.965 42.5078 229.965 42.0156ZM243.207 54.4961C243.207 54.2539 243.137 54.0352 242.996 53.8398C242.855 53.6445 242.594 53.4648 242.211 53.3008C241.836 53.1289 241.293 52.9727 240.582 52.832C239.941 52.6914 239.344 52.5156 238.789 52.3047C238.242 52.0859 237.766 51.8242 237.359 51.5195C236.961 51.2148 236.648 50.8555 236.422 50.4414C236.195 50.0195 236.082 49.5391 236.082 49C236.082 48.4688 236.195 47.9688 236.422 47.5C236.656 47.0312 236.988 46.6172 237.418 46.2578C237.855 45.8906 238.387 45.6055 239.012 45.4023C239.645 45.1914 240.355 45.0859 241.145 45.0859C242.246 45.0859 243.191 45.2617 243.98 45.6133C244.777 45.9648 245.387 46.4492 245.809 47.0664C246.238 47.6758 246.453 48.3711 246.453 49.1523H243.078C243.078 48.8242 243.008 48.5312 242.867 48.2734C242.734 48.0078 242.523 47.8008 242.234 47.6523C241.953 47.4961 241.586 47.418 241.133 47.418C240.758 47.418 240.434 47.4844 240.16 47.6172C239.887 47.7422 239.676 47.9141 239.527 48.1328C239.387 48.3438 239.316 48.5781 239.316 48.8359C239.316 49.0312 239.355 49.207 239.434 49.3633C239.52 49.5117 239.656 49.6484 239.844 49.7734C240.031 49.8984 240.273 50.0156 240.57 50.125C240.875 50.2266 241.25 50.3203 241.695 50.4062C242.609 50.5938 243.426 50.8398 244.145 51.1445C244.863 51.4414 245.434 51.8477 245.855 52.3633C246.277 52.8711 246.488 53.5391 246.488 54.3672C246.488 54.9297 246.363 55.4453 246.113 55.9141C245.863 56.3828 245.504 56.793 245.035 57.1445C244.566 57.4883 244.004 57.7578 243.348 57.9531C242.699 58.1406 241.969 58.2344 241.156 58.2344C239.977 58.2344 238.977 58.0234 238.156 57.6016C237.344 57.1797 236.727 56.6445 236.305 55.9961C235.891 55.3398 235.684 54.668 235.684 53.9805H238.883C238.898 54.4414 239.016 54.8125 239.234 55.0938C239.461 55.375 239.746 55.5781 240.09 55.7031C240.441 55.8281 240.82 55.8906 241.227 55.8906C241.664 55.8906 242.027 55.832 242.316 55.7148C242.605 55.5898 242.824 55.4258 242.973 55.2227C243.129 55.0117 243.207 54.7695 243.207 54.4961ZM252.242 45.3203V58H248.855V45.3203H252.242ZM248.645 42.0156C248.645 41.5234 248.816 41.1172 249.16 40.7969C249.504 40.4766 249.965 40.3164 250.543 40.3164C251.113 40.3164 251.57 40.4766 251.914 40.7969C252.266 41.1172 252.441 41.5234 252.441 42.0156C252.441 42.5078 252.266 42.9141 251.914 43.2344C251.57 43.5547 251.113 43.7148 250.543 43.7148C249.965 43.7148 249.504 43.5547 249.16 43.2344C248.816 42.9141 248.645 42.5078 248.645 42.0156ZM254.492 51.7891V51.543C254.492 50.6133 254.625 49.7578 254.891 48.9766C255.156 48.1875 255.543 47.5039 256.051 46.9258C256.559 46.3477 257.184 45.8984 257.926 45.5781C258.668 45.25 259.52 45.0859 260.48 45.0859C261.441 45.0859 262.297 45.25 263.047 45.5781C263.797 45.8984 264.426 46.3477 264.934 46.9258C265.449 47.5039 265.84 48.1875 266.105 48.9766C266.371 49.7578 266.504 50.6133 266.504 51.543V51.7891C266.504 52.7109 266.371 53.5664 266.105 54.3555C265.84 55.1367 265.449 55.8203 264.934 56.4062C264.426 56.9844 263.801 57.4336 263.059 57.7539C262.316 58.0742 261.465 58.2344 260.504 58.2344C259.543 58.2344 258.688 58.0742 257.938 57.7539C257.195 57.4336 256.566 56.9844 256.051 56.4062C255.543 55.8203 255.156 55.1367 254.891 54.3555C254.625 53.5664 254.492 52.7109 254.492 51.7891ZM257.867 51.543V51.7891C257.867 52.3203 257.914 52.8164 258.008 53.2773C258.102 53.7383 258.25 54.1445 258.453 54.4961C258.664 54.8398 258.938 55.1094 259.273 55.3047C259.609 55.5 260.02 55.5977 260.504 55.5977C260.973 55.5977 261.375 55.5 261.711 55.3047C262.047 55.1094 262.316 54.8398 262.52 54.4961C262.723 54.1445 262.871 53.7383 262.965 53.2773C263.066 52.8164 263.117 52.3203 263.117 51.7891V51.543C263.117 51.0273 263.066 50.543 262.965 50.0898C262.871 49.6289 262.719 49.2227 262.508 48.8711C262.305 48.5117 262.035 48.2305 261.699 48.0273C261.363 47.8242 260.957 47.7227 260.48 47.7227C260.004 47.7227 259.598 47.8242 259.262 48.0273C258.934 48.2305 258.664 48.5117 258.453 48.8711C258.25 49.2227 258.102 49.6289 258.008 50.0898C257.914 50.543 257.867 51.0273 257.867 51.543ZM271.883 48.0273V58H268.508V45.3203H271.672L271.883 48.0273ZM271.391 51.2148H270.477C270.477 50.2773 270.598 49.4336 270.84 48.6836C271.082 47.9258 271.422 47.2812 271.859 46.75C272.297 46.2109 272.816 45.8008 273.418 45.5195C274.027 45.2305 274.707 45.0859 275.457 45.0859C276.051 45.0859 276.594 45.1719 277.086 45.3438C277.578 45.5156 278 45.7891 278.352 46.1641C278.711 46.5391 278.984 47.0352 279.172 47.6523C279.367 48.2695 279.465 49.0234 279.465 49.9141V58H276.066V49.9023C276.066 49.3398 275.988 48.9023 275.832 48.5898C275.676 48.2773 275.445 48.0586 275.141 47.9336C274.844 47.8008 274.477 47.7344 274.039 47.7344C273.586 47.7344 273.191 47.8242 272.855 48.0039C272.527 48.1836 272.254 48.4336 272.035 48.7539C271.824 49.0664 271.664 49.4336 271.555 49.8555C271.445 50.2773 271.391 50.7305 271.391 51.2148Z" fill="#5B2E0F"/>
<path d="M102.635 86.0078V118H94.9443V86.0078H102.635ZM115.181 99.2573V118H107.776V94.2256H114.72L115.181 99.2573ZM114.28 105.3L112.588 105.344C112.588 103.674 112.786 102.136 113.182 100.729C113.577 99.3232 114.163 98.1001 114.939 97.0601C115.716 96.02 116.668 95.2144 117.796 94.6431C118.938 94.0718 120.257 93.7861 121.751 93.7861C122.791 93.7861 123.736 93.9473 124.585 94.2695C125.435 94.5771 126.167 95.0679 126.783 95.7417C127.398 96.4009 127.867 97.2651 128.189 98.3345C128.526 99.3892 128.694 100.656 128.694 102.136V118H121.29V103.081C121.29 102.07 121.172 101.308 120.938 100.795C120.718 100.283 120.396 99.9385 119.971 99.7627C119.546 99.5869 119.026 99.499 118.411 99.499C117.767 99.499 117.188 99.6455 116.675 99.9385C116.163 100.231 115.723 100.642 115.357 101.169C115.005 101.682 114.734 102.29 114.544 102.993C114.368 103.696 114.28 104.465 114.28 105.3ZM127.859 105.3L125.794 105.344C125.794 103.674 125.977 102.136 126.343 100.729C126.724 99.3232 127.288 98.1001 128.035 97.0601C128.797 96.02 129.742 95.2144 130.87 94.6431C131.998 94.0718 133.309 93.7861 134.803 93.7861C135.887 93.7861 136.883 93.9473 137.791 94.2695C138.699 94.5918 139.483 95.1118 140.142 95.8296C140.801 96.5474 141.314 97.4995 141.68 98.686C142.046 99.8579 142.229 101.308 142.229 103.037V118H134.803V103.037C134.803 102.055 134.686 101.315 134.451 100.817C134.231 100.305 133.909 99.9604 133.484 99.7847C133.06 99.5942 132.554 99.499 131.968 99.499C131.265 99.499 130.657 99.6455 130.145 99.9385C129.632 100.231 129.2 100.642 128.848 101.169C128.511 101.682 128.262 102.29 128.101 102.993C127.94 103.696 127.859 104.465 127.859 105.3ZM153.941 98.7959V127.141H146.536V94.2256H153.436L153.941 98.7959ZM168.531 105.827V106.289C168.531 108.017 168.333 109.621 167.938 111.101C167.542 112.58 166.956 113.869 166.18 114.968C165.403 116.066 164.437 116.923 163.279 117.539C162.137 118.139 160.811 118.439 159.302 118.439C157.881 118.439 156.658 118.125 155.633 117.495C154.607 116.865 153.75 115.993 153.062 114.88C152.374 113.767 151.817 112.492 151.392 111.057C150.967 109.621 150.63 108.105 150.381 106.508V105.915C150.63 104.201 150.967 102.612 151.392 101.147C151.817 99.6675 152.374 98.3784 153.062 97.2798C153.75 96.1812 154.6 95.3242 155.611 94.709C156.636 94.0938 157.859 93.7861 159.28 93.7861C160.789 93.7861 162.115 94.0718 163.257 94.6431C164.415 95.2144 165.381 96.0347 166.158 97.104C166.949 98.1587 167.542 99.4258 167.938 100.905C168.333 102.385 168.531 104.025 168.531 105.827ZM161.126 106.289V105.827C161.126 104.904 161.06 104.062 160.928 103.3C160.796 102.524 160.584 101.85 160.291 101.279C160.013 100.708 159.639 100.268 159.17 99.9604C158.702 99.6528 158.123 99.499 157.435 99.499C156.644 99.499 155.977 99.6235 155.435 99.8726C154.908 100.107 154.483 100.473 154.161 100.971C153.853 101.455 153.633 102.062 153.501 102.795C153.384 103.513 153.333 104.355 153.348 105.322V107.124C153.318 108.237 153.428 109.218 153.677 110.068C153.926 110.903 154.358 111.555 154.974 112.023C155.589 112.492 156.424 112.727 157.479 112.727C158.182 112.727 158.768 112.565 159.236 112.243C159.705 111.906 160.079 111.445 160.357 110.859C160.635 110.258 160.833 109.57 160.95 108.793C161.067 108.017 161.126 107.182 161.126 106.289ZM179.649 84.25V118H172.222V84.25H179.649ZM195.733 118.439C193.799 118.439 192.071 118.139 190.547 117.539C189.024 116.923 187.735 116.081 186.68 115.012C185.64 113.942 184.842 112.712 184.285 111.32C183.743 109.929 183.472 108.457 183.472 106.904V106.069C183.472 104.326 183.714 102.714 184.197 101.235C184.681 99.7407 185.398 98.437 186.351 97.3237C187.303 96.2104 188.497 95.3462 189.932 94.731C191.368 94.1011 193.038 93.7861 194.942 93.7861C196.626 93.7861 198.135 94.0571 199.468 94.5991C200.801 95.1411 201.929 95.9175 202.852 96.9282C203.79 97.939 204.5 99.1621 204.983 100.598C205.481 102.033 205.73 103.645 205.73 105.432V108.442H186.307V103.806H198.501V103.234C198.516 102.443 198.377 101.77 198.084 101.213C197.806 100.656 197.396 100.231 196.854 99.9385C196.312 99.6455 195.652 99.499 194.876 99.499C194.07 99.499 193.404 99.6748 192.876 100.026C192.364 100.378 191.961 100.861 191.668 101.477C191.39 102.077 191.192 102.773 191.075 103.564C190.958 104.355 190.899 105.19 190.899 106.069V106.904C190.899 107.783 191.016 108.581 191.25 109.299C191.5 110.017 191.851 110.632 192.305 111.145C192.774 111.643 193.331 112.031 193.975 112.309C194.634 112.587 195.381 112.727 196.216 112.727C197.227 112.727 198.223 112.536 199.205 112.155C200.186 111.774 201.028 111.145 201.731 110.266L205.093 114.265C204.61 114.953 203.921 115.62 203.028 116.264C202.149 116.909 201.094 117.436 199.864 117.846C198.633 118.242 197.256 118.439 195.733 118.439ZM216.211 99.2573V118H208.807V94.2256H215.75L216.211 99.2573ZM215.311 105.3L213.619 105.344C213.619 103.674 213.816 102.136 214.212 100.729C214.607 99.3232 215.193 98.1001 215.97 97.0601C216.746 96.02 217.698 95.2144 218.826 94.6431C219.969 94.0718 221.287 93.7861 222.781 93.7861C223.821 93.7861 224.766 93.9473 225.616 94.2695C226.465 94.5771 227.198 95.0679 227.813 95.7417C228.428 96.4009 228.897 97.2651 229.219 98.3345C229.556 99.3892 229.725 100.656 229.725 102.136V118H222.32V103.081C222.32 102.07 222.203 101.308 221.968 100.795C221.749 100.283 221.426 99.9385 221.001 99.7627C220.577 99.5869 220.057 99.499 219.441 99.499C218.797 99.499 218.218 99.6455 217.706 99.9385C217.193 100.231 216.753 100.642 216.387 101.169C216.036 101.682 215.765 102.29 215.574 102.993C215.398 103.696 215.311 104.465 215.311 105.3ZM228.89 105.3L226.824 105.344C226.824 103.674 227.007 102.136 227.374 100.729C227.754 99.3232 228.318 98.1001 229.065 97.0601C229.827 96.02 230.772 95.2144 231.9 94.6431C233.028 94.0718 234.339 93.7861 235.833 93.7861C236.917 93.7861 237.913 93.9473 238.821 94.2695C239.729 94.5918 240.513 95.1118 241.172 95.8296C241.832 96.5474 242.344 97.4995 242.71 98.686C243.077 99.8579 243.26 101.308 243.26 103.037V118H235.833V103.037C235.833 102.055 235.716 101.315 235.481 100.817C235.262 100.305 234.939 99.9604 234.515 99.7847C234.09 99.5942 233.584 99.499 232.999 99.499C232.295 99.499 231.688 99.6455 231.175 99.9385C230.662 100.231 230.23 100.642 229.878 101.169C229.542 101.682 229.292 102.29 229.131 102.993C228.97 103.696 228.89 104.465 228.89 105.3ZM259.014 118.439C257.081 118.439 255.352 118.139 253.829 117.539C252.305 116.923 251.016 116.081 249.961 115.012C248.921 113.942 248.123 112.712 247.566 111.32C247.024 109.929 246.753 108.457 246.753 106.904V106.069C246.753 104.326 246.995 102.714 247.479 101.235C247.962 99.7407 248.68 98.437 249.632 97.3237C250.584 96.2104 251.778 95.3462 253.213 94.731C254.649 94.1011 256.319 93.7861 258.223 93.7861C259.908 93.7861 261.417 94.0571 262.75 94.5991C264.083 95.1411 265.21 95.9175 266.133 96.9282C267.071 97.939 267.781 99.1621 268.265 100.598C268.763 102.033 269.012 103.645 269.012 105.432V108.442H249.588V103.806H261.783V103.234C261.797 102.443 261.658 101.77 261.365 101.213C261.087 100.656 260.677 100.231 260.135 99.9385C259.593 99.6455 258.934 99.499 258.157 99.499C257.352 99.499 256.685 99.6748 256.158 100.026C255.645 100.378 255.242 100.861 254.949 101.477C254.671 102.077 254.473 102.773 254.356 103.564C254.239 104.355 254.18 105.19 254.18 106.069V106.904C254.18 107.783 254.297 108.581 254.532 109.299C254.781 110.017 255.132 110.632 255.586 111.145C256.055 111.643 256.612 112.031 257.256 112.309C257.916 112.587 258.663 112.727 259.498 112.727C260.508 112.727 261.504 112.536 262.486 112.155C263.467 111.774 264.31 111.145 265.013 110.266L268.375 114.265C267.891 114.953 267.203 115.62 266.309 116.264C265.43 116.909 264.375 117.436 263.145 117.846C261.915 118.242 260.538 118.439 259.014 118.439ZM279.295 99.3013V118H271.89V94.2256H278.833L279.295 99.3013ZM278.416 105.3L276.68 105.344C276.68 103.527 276.9 101.909 277.339 100.488C277.779 99.0522 278.401 97.8364 279.207 96.8403C280.013 95.8442 280.972 95.0898 282.085 94.5771C283.213 94.0498 284.466 93.7861 285.843 93.7861C286.941 93.7861 287.945 93.9473 288.853 94.2695C289.776 94.5918 290.567 95.1118 291.226 95.8296C291.9 96.5474 292.413 97.4995 292.764 98.686C293.13 99.8579 293.313 101.308 293.313 103.037V118H285.865V103.015C285.865 102.062 285.733 101.337 285.469 100.839C285.206 100.327 284.825 99.9751 284.327 99.7847C283.829 99.5942 283.221 99.499 282.503 99.499C281.741 99.499 281.097 99.6455 280.569 99.9385C280.042 100.231 279.617 100.642 279.295 101.169C278.987 101.682 278.76 102.29 278.614 102.993C278.482 103.696 278.416 104.465 278.416 105.3ZM309.947 94.2256V99.3672H295.621V94.2256H309.947ZM298.631 88.3149H306.036V110.244C306.036 110.874 306.109 111.364 306.255 111.716C306.402 112.053 306.651 112.294 307.002 112.441C307.369 112.573 307.852 112.639 308.453 112.639C308.877 112.639 309.229 112.631 309.507 112.617C309.786 112.587 310.049 112.551 310.298 112.507V117.802C309.668 118.007 309.009 118.161 308.321 118.264C307.632 118.381 306.9 118.439 306.124 118.439C304.542 118.439 303.187 118.19 302.059 117.692C300.945 117.194 300.096 116.411 299.51 115.341C298.924 114.272 298.631 112.88 298.631 111.167V88.3149ZM325.24 112.023V102.224C325.24 101.55 325.145 100.971 324.954 100.488C324.764 100.004 324.463 99.6309 324.053 99.3672C323.643 99.0889 323.094 98.9497 322.405 98.9497C321.849 98.9497 321.373 99.0449 320.977 99.2354C320.582 99.4258 320.281 99.7114 320.076 100.092C319.871 100.473 319.769 100.957 319.769 101.542H312.364C312.364 100.444 312.605 99.4258 313.089 98.4883C313.587 97.5361 314.29 96.7085 315.198 96.0054C316.121 95.3022 317.22 94.7603 318.494 94.3794C319.783 93.9839 321.219 93.7861 322.801 93.7861C324.69 93.7861 326.375 94.1011 327.854 94.731C329.349 95.3608 330.528 96.3057 331.392 97.5654C332.256 98.8105 332.688 100.378 332.688 102.268V112.001C332.688 113.554 332.776 114.733 332.952 115.539C333.128 116.33 333.377 117.026 333.699 117.626V118H326.272C325.921 117.268 325.657 116.374 325.481 115.319C325.32 114.25 325.24 113.151 325.24 112.023ZM326.141 103.476L326.185 107.431H322.911C322.222 107.431 321.636 107.526 321.153 107.717C320.684 107.907 320.303 108.171 320.01 108.508C319.732 108.83 319.527 109.196 319.395 109.606C319.278 110.017 319.219 110.449 319.219 110.903C319.219 111.342 319.322 111.738 319.527 112.089C319.747 112.426 320.04 112.69 320.406 112.88C320.772 113.071 321.182 113.166 321.636 113.166C322.457 113.166 323.152 113.012 323.724 112.705C324.31 112.382 324.756 111.994 325.064 111.54C325.372 111.086 325.525 110.661 325.525 110.266L327.151 113.298C326.858 113.884 326.521 114.477 326.141 115.078C325.774 115.678 325.313 116.235 324.756 116.748C324.214 117.246 323.548 117.656 322.757 117.978C321.966 118.286 321.006 118.439 319.878 118.439C318.414 118.439 317.066 118.139 315.835 117.539C314.62 116.938 313.646 116.103 312.913 115.034C312.181 113.95 311.814 112.705 311.814 111.298C311.814 110.068 312.034 108.969 312.474 108.002C312.928 107.036 313.609 106.215 314.517 105.542C315.425 104.868 316.583 104.355 317.989 104.003C319.395 103.652 321.05 103.476 322.955 103.476H326.141ZM349.322 94.2256V99.3672H334.996V94.2256H349.322ZM338.006 88.3149H345.411V110.244C345.411 110.874 345.484 111.364 345.63 111.716C345.777 112.053 346.026 112.294 346.377 112.441C346.744 112.573 347.227 112.639 347.828 112.639C348.252 112.639 348.604 112.631 348.882 112.617C349.161 112.587 349.424 112.551 349.673 112.507V117.802C349.043 118.007 348.384 118.161 347.696 118.264C347.007 118.381 346.275 118.439 345.499 118.439C343.917 118.439 342.562 118.19 341.434 117.692C340.32 117.194 339.471 116.411 338.885 115.341C338.299 114.272 338.006 112.88 338.006 111.167V88.3149ZM360.088 94.2256V118H352.662V94.2256H360.088ZM352.222 88.0952C352.222 87.0405 352.603 86.1763 353.365 85.5024C354.126 84.8286 355.115 84.4917 356.331 84.4917C357.547 84.4917 358.536 84.8286 359.297 85.5024C360.059 86.1763 360.44 87.0405 360.44 88.0952C360.44 89.1499 360.059 90.0142 359.297 90.688C358.536 91.3618 357.547 91.6987 356.331 91.6987C355.115 91.6987 354.126 91.3618 353.365 90.688C352.603 90.0142 352.222 89.1499 352.222 88.0952ZM363.736 106.354V105.893C363.736 104.15 363.985 102.546 364.483 101.081C364.981 99.6016 365.713 98.3198 366.68 97.2358C367.647 96.1519 368.841 95.3096 370.262 94.709C371.683 94.0938 373.323 93.7861 375.184 93.7861C377.059 93.7861 378.707 94.0938 380.127 94.709C381.563 95.3096 382.764 96.1519 383.731 97.2358C384.698 98.3198 385.43 99.6016 385.928 101.081C386.426 102.546 386.675 104.15 386.675 105.893V106.354C386.675 108.083 386.426 109.687 385.928 111.167C385.43 112.631 384.698 113.913 383.731 115.012C382.764 116.096 381.57 116.938 380.149 117.539C378.729 118.139 377.088 118.439 375.228 118.439C373.367 118.439 371.719 118.139 370.284 117.539C368.848 116.938 367.647 116.096 366.68 115.012C365.713 113.913 364.981 112.631 364.483 111.167C363.985 109.687 363.736 108.083 363.736 106.354ZM371.141 105.893V106.354C371.141 107.248 371.207 108.083 371.338 108.859C371.47 109.636 371.69 110.317 371.998 110.903C372.305 111.474 372.723 111.921 373.25 112.243C373.777 112.565 374.437 112.727 375.228 112.727C376.004 112.727 376.648 112.565 377.161 112.243C377.688 111.921 378.106 111.474 378.414 110.903C378.721 110.317 378.941 109.636 379.073 108.859C379.205 108.083 379.271 107.248 379.271 106.354V105.893C379.271 105.029 379.205 104.216 379.073 103.454C378.941 102.678 378.721 101.997 378.414 101.411C378.106 100.81 377.688 100.341 377.161 100.004C376.634 99.6675 375.975 99.499 375.184 99.499C374.407 99.499 373.755 99.6675 373.228 100.004C372.715 100.341 372.305 100.81 371.998 101.411C371.69 101.997 371.47 102.678 371.338 103.454C371.207 104.216 371.141 105.029 371.141 105.893ZM397.244 99.3013V118H389.839V94.2256H396.783L397.244 99.3013ZM396.365 105.3L394.629 105.344C394.629 103.527 394.849 101.909 395.289 100.488C395.728 99.0522 396.351 97.8364 397.156 96.8403C397.962 95.8442 398.921 95.0898 400.035 94.5771C401.163 94.0498 402.415 93.7861 403.792 93.7861C404.891 93.7861 405.894 93.9473 406.802 94.2695C407.725 94.5918 408.516 95.1118 409.175 95.8296C409.849 96.5474 410.362 97.4995 410.713 98.686C411.08 99.8579 411.263 101.308 411.263 103.037V118H403.814V103.015C403.814 102.062 403.682 101.337 403.418 100.839C403.155 100.327 402.774 99.9751 402.276 99.7847C401.778 99.5942 401.17 99.499 400.452 99.499C399.69 99.499 399.046 99.6455 398.519 99.9385C397.991 100.231 397.566 100.642 397.244 101.169C396.937 101.682 396.709 102.29 396.563 102.993C396.431 103.696 396.365 104.465 396.365 105.3Z" fill="#424241"/>
<path d="M1363 15C1363 6.71573 1356.28 0 1348 0H1134V167H1348C1356.28 167 1363 160.284 1363 152V15Z" fill="#5B2E0F"/>
<path d="M1281.5 49H1216.5L1214 51.5V116.5L1216.5 119H1281.5L1284 116.5V51.5L1281.5 49ZM1279 114H1234V104H1245.5C1247 107 1250.5 109 1254 109C1259.5 109 1264 104.5 1264 99C1264 93.5 1259.5 89 1254 89C1248.5 89 1244 93.5 1244 99H1229V114H1219V54H1229V65.5C1226 67 1224 70.5 1224 74C1224 79.5 1228.5 84 1234 84C1239.5 84 1244 79.5 1244 74H1254C1254 79.5 1258.5 84 1264 84C1269.5 84 1274 79.5 1274 74C1274 68.5 1269.5 64 1264 64C1260.5 64 1257 66 1255.5 69H1242.5C1241 66 1237.5 64 1234 64V54H1279V114ZM1249 99C1249 96 1251 94 1254 94C1257 94 1259 96 1259 99C1259 102 1257 104 1254 104C1251 104 1249 102 1249 99ZM1234 69C1237 69 1239 71 1239 74C1239 77 1237 79 1234 79C1231 79 1229 77 1229 74C1229 71 1231 69 1234 69ZM1264 69C1267 69 1269 71 1269 74C1269 77 1267 79 1264 79C1261 79 1259 77 1259 74C1259 71 1261 69 1264 69Z" fill="#BA7F56"/>
</svg>
