<svg width="1363" height="167" viewBox="0 0 1363 167" fill="none" xmlns="http://www.w3.org/2000/svg">
<rect width="1363" height="167" rx="15" fill="#F0F0F0"/>
<path d="M0 15C0 6.71573 6.71573 0 15 0H37V167H15C6.71573 167 0 160.284 0 152V15Z" fill="#5B2E0F"/>
<path d="M100.906 50.9219L93.3945 48.2383V45.0859L103.602 49.375V51.6367L100.906 50.9219ZM93.3945 53.1719L100.918 50.4297L103.602 49.7852V52.0352L93.3945 56.3242V53.1719ZM115.414 40.9375V58H111.898V40.9375H115.414ZM122.211 48.2266V50.9688H114.453V48.2266H122.211ZM123.031 40.9375V43.6914H114.453V40.9375H123.031ZM124.062 51.7891V51.543C124.062 50.6133 124.195 49.7578 124.461 48.9766C124.727 48.1875 125.113 47.5039 125.621 46.9258C126.129 46.3477 126.754 45.8984 127.496 45.5781C128.238 45.25 129.09 45.0859 130.051 45.0859C131.012 45.0859 131.867 45.25 132.617 45.5781C133.367 45.8984 133.996 46.3477 134.504 46.9258C135.02 47.5039 135.41 48.1875 135.676 48.9766C135.941 49.7578 136.074 50.6133 136.074 51.543V51.7891C136.074 52.7109 135.941 53.5664 135.676 54.3555C135.41 55.1367 135.02 55.8203 134.504 56.4062C133.996 56.9844 133.371 57.4336 132.629 57.7539C131.887 58.0742 131.035 58.2344 130.074 58.2344C129.113 58.2344 128.258 58.0742 127.508 57.7539C126.766 57.4336 126.137 56.9844 125.621 56.4062C125.113 55.8203 124.727 55.1367 124.461 54.3555C124.195 53.5664 124.062 52.7109 124.062 51.7891ZM127.438 51.543V51.7891C127.438 52.3203 127.484 52.8164 127.578 53.2773C127.672 53.7383 127.82 54.1445 128.023 54.4961C128.234 54.8398 128.508 55.1094 128.844 55.3047C129.18 55.5 129.59 55.5977 130.074 55.5977C130.543 55.5977 130.945 55.5 131.281 55.3047C131.617 55.1094 131.887 54.8398 132.09 54.4961C132.293 54.1445 132.441 53.7383 132.535 53.2773C132.637 52.8164 132.688 52.3203 132.688 51.7891V51.543C132.688 51.0273 132.637 50.543 132.535 50.0898C132.441 49.6289 132.289 49.2227 132.078 48.8711C131.875 48.5117 131.605 48.2305 131.27 48.0273C130.934 47.8242 130.527 47.7227 130.051 47.7227C129.574 47.7227 129.168 47.8242 128.832 48.0273C128.504 48.2305 128.234 48.5117 128.023 48.8711C127.82 49.2227 127.672 49.6289 127.578 50.0898C127.484 50.543 127.438 51.0273 127.438 51.543ZM141.523 48.0859V58H138.148V45.3203H141.324L141.523 48.0859ZM145.344 45.2383L145.285 48.3672C145.121 48.3438 144.922 48.3242 144.688 48.3086C144.461 48.2852 144.254 48.2734 144.066 48.2734C143.59 48.2734 143.176 48.3359 142.824 48.4609C142.48 48.5781 142.191 48.7539 141.957 48.9883C141.73 49.2227 141.559 49.5078 141.441 49.8438C141.332 50.1797 141.27 50.5625 141.254 50.9922L140.574 50.7812C140.574 49.9609 140.656 49.207 140.82 48.5195C140.984 47.8242 141.223 47.2188 141.535 46.7031C141.855 46.1875 142.246 45.7891 142.707 45.5078C143.168 45.2266 143.695 45.0859 144.289 45.0859C144.477 45.0859 144.668 45.1016 144.863 45.1328C145.059 45.1562 145.219 45.1914 145.344 45.2383ZM153.734 45.3203V47.7109H146.352V45.3203H153.734ZM148.18 42.1914H151.555V54.1797C151.555 54.5469 151.602 54.8281 151.695 55.0234C151.797 55.2188 151.945 55.3555 152.141 55.4336C152.336 55.5039 152.582 55.5391 152.879 55.5391C153.09 55.5391 153.277 55.5312 153.441 55.5156C153.613 55.4922 153.758 55.4688 153.875 55.4453L153.887 57.9297C153.598 58.0234 153.285 58.0977 152.949 58.1523C152.613 58.207 152.242 58.2344 151.836 58.2344C151.094 58.2344 150.445 58.1133 149.891 57.8711C149.344 57.6211 148.922 57.2227 148.625 56.6758C148.328 56.1289 148.18 55.4102 148.18 54.5195V42.1914ZM163.156 54.9648V45.3203H166.531V58H163.355L163.156 54.9648ZM163.531 52.3633L164.527 52.3398C164.527 53.1836 164.43 53.9688 164.234 54.6953C164.039 55.4141 163.746 56.0391 163.355 56.5703C162.965 57.0938 162.473 57.5039 161.879 57.8008C161.285 58.0898 160.586 58.2344 159.781 58.2344C159.164 58.2344 158.594 58.1484 158.07 57.9766C157.555 57.7969 157.109 57.5195 156.734 57.1445C156.367 56.7617 156.078 56.2734 155.867 55.6797C155.664 55.0781 155.562 54.3555 155.562 53.5117V45.3203H158.938V53.5352C158.938 53.9102 158.98 54.2266 159.066 54.4844C159.16 54.7422 159.289 54.9531 159.453 55.1172C159.617 55.2812 159.809 55.3984 160.027 55.4688C160.254 55.5391 160.504 55.5742 160.777 55.5742C161.473 55.5742 162.02 55.4336 162.418 55.1523C162.824 54.8711 163.109 54.4883 163.273 54.0039C163.445 53.5117 163.531 52.9648 163.531 52.3633ZM172.414 48.0273V58H169.039V45.3203H172.203L172.414 48.0273ZM171.922 51.2148H171.008C171.008 50.2773 171.129 49.4336 171.371 48.6836C171.613 47.9258 171.953 47.2812 172.391 46.75C172.828 46.2109 173.348 45.8008 173.949 45.5195C174.559 45.2305 175.238 45.0859 175.988 45.0859C176.582 45.0859 177.125 45.1719 177.617 45.3438C178.109 45.5156 178.531 45.7891 178.883 46.1641C179.242 46.5391 179.516 47.0352 179.703 47.6523C179.898 48.2695 179.996 49.0234 179.996 49.9141V58H176.598V49.9023C176.598 49.3398 176.52 48.9023 176.363 48.5898C176.207 48.2773 175.977 48.0586 175.672 47.9336C175.375 47.8008 175.008 47.7344 174.57 47.7344C174.117 47.7344 173.723 47.8242 173.387 48.0039C173.059 48.1836 172.785 48.4336 172.566 48.7539C172.355 49.0664 172.195 49.4336 172.086 49.8555C171.977 50.2773 171.922 50.7305 171.922 51.2148ZM190.062 54.9648V45.3203H193.438V58H190.262L190.062 54.9648ZM190.438 52.3633L191.434 52.3398C191.434 53.1836 191.336 53.9688 191.141 54.6953C190.945 55.4141 190.652 56.0391 190.262 56.5703C189.871 57.0938 189.379 57.5039 188.785 57.8008C188.191 58.0898 187.492 58.2344 186.688 58.2344C186.07 58.2344 185.5 58.1484 184.977 57.9766C184.461 57.7969 184.016 57.5195 183.641 57.1445C183.273 56.7617 182.984 56.2734 182.773 55.6797C182.57 55.0781 182.469 54.3555 182.469 53.5117V45.3203H185.844V53.5352C185.844 53.9102 185.887 54.2266 185.973 54.4844C186.066 54.7422 186.195 54.9531 186.359 55.1172C186.523 55.2812 186.715 55.3984 186.934 55.4688C187.16 55.5391 187.41 55.5742 187.684 55.5742C188.379 55.5742 188.926 55.4336 189.324 55.1523C189.73 54.8711 190.016 54.4883 190.18 54.0039C190.352 53.5117 190.438 52.9648 190.438 52.3633ZM202.871 54.4961C202.871 54.2539 202.801 54.0352 202.66 53.8398C202.52 53.6445 202.258 53.4648 201.875 53.3008C201.5 53.1289 200.957 52.9727 200.246 52.832C199.605 52.6914 199.008 52.5156 198.453 52.3047C197.906 52.0859 197.43 51.8242 197.023 51.5195C196.625 51.2148 196.312 50.8555 196.086 50.4414C195.859 50.0195 195.746 49.5391 195.746 49C195.746 48.4688 195.859 47.9688 196.086 47.5C196.32 47.0312 196.652 46.6172 197.082 46.2578C197.52 45.8906 198.051 45.6055 198.676 45.4023C199.309 45.1914 200.02 45.0859 200.809 45.0859C201.91 45.0859 202.855 45.2617 203.645 45.6133C204.441 45.9648 205.051 46.4492 205.473 47.0664C205.902 47.6758 206.117 48.3711 206.117 49.1523H202.742C202.742 48.8242 202.672 48.5312 202.531 48.2734C202.398 48.0078 202.188 47.8008 201.898 47.6523C201.617 47.4961 201.25 47.418 200.797 47.418C200.422 47.418 200.098 47.4844 199.824 47.6172C199.551 47.7422 199.34 47.9141 199.191 48.1328C199.051 48.3438 198.98 48.5781 198.98 48.8359C198.98 49.0312 199.02 49.207 199.098 49.3633C199.184 49.5117 199.32 49.6484 199.508 49.7734C199.695 49.8984 199.938 50.0156 200.234 50.125C200.539 50.2266 200.914 50.3203 201.359 50.4062C202.273 50.5938 203.09 50.8398 203.809 51.1445C204.527 51.4414 205.098 51.8477 205.52 52.3633C205.941 52.8711 206.152 53.5391 206.152 54.3672C206.152 54.9297 206.027 55.4453 205.777 55.9141C205.527 56.3828 205.168 56.793 204.699 57.1445C204.23 57.4883 203.668 57.7578 203.012 57.9531C202.363 58.1406 201.633 58.2344 200.82 58.2344C199.641 58.2344 198.641 58.0234 197.82 57.6016C197.008 57.1797 196.391 56.6445 195.969 55.9961C195.555 55.3398 195.348 54.668 195.348 53.9805H198.547C198.562 54.4414 198.68 54.8125 198.898 55.0938C199.125 55.375 199.41 55.5781 199.754 55.7031C200.105 55.8281 200.484 55.8906 200.891 55.8906C201.328 55.8906 201.691 55.832 201.98 55.7148C202.27 55.5898 202.488 55.4258 202.637 55.2227C202.793 55.0117 202.871 54.7695 202.871 54.4961ZM220.684 54.4375L224.703 40.9375H228.617L222.676 58H220.098L220.684 54.4375ZM216.98 40.9375L220.988 54.4375L221.598 58H218.996L213.09 40.9375H216.98ZM233.562 45.3203V58H230.176V45.3203H233.562ZM229.965 42.0156C229.965 41.5234 230.137 41.1172 230.48 40.7969C230.824 40.4766 231.285 40.3164 231.863 40.3164C232.434 40.3164 232.891 40.4766 233.234 40.7969C233.586 41.1172 233.762 41.5234 233.762 42.0156C233.762 42.5078 233.586 42.9141 233.234 43.2344C232.891 43.5547 232.434 43.7148 231.863 43.7148C231.285 43.7148 230.824 43.5547 230.48 43.2344C230.137 42.9141 229.965 42.5078 229.965 42.0156ZM243.207 54.4961C243.207 54.2539 243.137 54.0352 242.996 53.8398C242.855 53.6445 242.594 53.4648 242.211 53.3008C241.836 53.1289 241.293 52.9727 240.582 52.832C239.941 52.6914 239.344 52.5156 238.789 52.3047C238.242 52.0859 237.766 51.8242 237.359 51.5195C236.961 51.2148 236.648 50.8555 236.422 50.4414C236.195 50.0195 236.082 49.5391 236.082 49C236.082 48.4688 236.195 47.9688 236.422 47.5C236.656 47.0312 236.988 46.6172 237.418 46.2578C237.855 45.8906 238.387 45.6055 239.012 45.4023C239.645 45.1914 240.355 45.0859 241.145 45.0859C242.246 45.0859 243.191 45.2617 243.98 45.6133C244.777 45.9648 245.387 46.4492 245.809 47.0664C246.238 47.6758 246.453 48.3711 246.453 49.1523H243.078C243.078 48.8242 243.008 48.5312 242.867 48.2734C242.734 48.0078 242.523 47.8008 242.234 47.6523C241.953 47.4961 241.586 47.418 241.133 47.418C240.758 47.418 240.434 47.4844 240.16 47.6172C239.887 47.7422 239.676 47.9141 239.527 48.1328C239.387 48.3438 239.316 48.5781 239.316 48.8359C239.316 49.0312 239.355 49.207 239.434 49.3633C239.52 49.5117 239.656 49.6484 239.844 49.7734C240.031 49.8984 240.273 50.0156 240.57 50.125C240.875 50.2266 241.25 50.3203 241.695 50.4062C242.609 50.5938 243.426 50.8398 244.145 51.1445C244.863 51.4414 245.434 51.8477 245.855 52.3633C246.277 52.8711 246.488 53.5391 246.488 54.3672C246.488 54.9297 246.363 55.4453 246.113 55.9141C245.863 56.3828 245.504 56.793 245.035 57.1445C244.566 57.4883 244.004 57.7578 243.348 57.9531C242.699 58.1406 241.969 58.2344 241.156 58.2344C239.977 58.2344 238.977 58.0234 238.156 57.6016C237.344 57.1797 236.727 56.6445 236.305 55.9961C235.891 55.3398 235.684 54.668 235.684 53.9805H238.883C238.898 54.4414 239.016 54.8125 239.234 55.0938C239.461 55.375 239.746 55.5781 240.09 55.7031C240.441 55.8281 240.82 55.8906 241.227 55.8906C241.664 55.8906 242.027 55.832 242.316 55.7148C242.605 55.5898 242.824 55.4258 242.973 55.2227C243.129 55.0117 243.207 54.7695 243.207 54.4961ZM252.242 45.3203V58H248.855V45.3203H252.242ZM248.645 42.0156C248.645 41.5234 248.816 41.1172 249.16 40.7969C249.504 40.4766 249.965 40.3164 250.543 40.3164C251.113 40.3164 251.57 40.4766 251.914 40.7969C252.266 41.1172 252.441 41.5234 252.441 42.0156C252.441 42.5078 252.266 42.9141 251.914 43.2344C251.57 43.5547 251.113 43.7148 250.543 43.7148C249.965 43.7148 249.504 43.5547 249.16 43.2344C248.816 42.9141 248.645 42.5078 248.645 42.0156ZM254.492 51.7891V51.543C254.492 50.6133 254.625 49.7578 254.891 48.9766C255.156 48.1875 255.543 47.5039 256.051 46.9258C256.559 46.3477 257.184 45.8984 257.926 45.5781C258.668 45.25 259.52 45.0859 260.48 45.0859C261.441 45.0859 262.297 45.25 263.047 45.5781C263.797 45.8984 264.426 46.3477 264.934 46.9258C265.449 47.5039 265.84 48.1875 266.105 48.9766C266.371 49.7578 266.504 50.6133 266.504 51.543V51.7891C266.504 52.7109 266.371 53.5664 266.105 54.3555C265.84 55.1367 265.449 55.8203 264.934 56.4062C264.426 56.9844 263.801 57.4336 263.059 57.7539C262.316 58.0742 261.465 58.2344 260.504 58.2344C259.543 58.2344 258.688 58.0742 257.938 57.7539C257.195 57.4336 256.566 56.9844 256.051 56.4062C255.543 55.8203 255.156 55.1367 254.891 54.3555C254.625 53.5664 254.492 52.7109 254.492 51.7891ZM257.867 51.543V51.7891C257.867 52.3203 257.914 52.8164 258.008 53.2773C258.102 53.7383 258.25 54.1445 258.453 54.4961C258.664 54.8398 258.938 55.1094 259.273 55.3047C259.609 55.5 260.02 55.5977 260.504 55.5977C260.973 55.5977 261.375 55.5 261.711 55.3047C262.047 55.1094 262.316 54.8398 262.52 54.4961C262.723 54.1445 262.871 53.7383 262.965 53.2773C263.066 52.8164 263.117 52.3203 263.117 51.7891V51.543C263.117 51.0273 263.066 50.543 262.965 50.0898C262.871 49.6289 262.719 49.2227 262.508 48.8711C262.305 48.5117 262.035 48.2305 261.699 48.0273C261.363 47.8242 260.957 47.7227 260.48 47.7227C260.004 47.7227 259.598 47.8242 259.262 48.0273C258.934 48.2305 258.664 48.5117 258.453 48.8711C258.25 49.2227 258.102 49.6289 258.008 50.0898C257.914 50.543 257.867 51.0273 257.867 51.543ZM271.883 48.0273V58H268.508V45.3203H271.672L271.883 48.0273ZM271.391 51.2148H270.477C270.477 50.2773 270.598 49.4336 270.84 48.6836C271.082 47.9258 271.422 47.2812 271.859 46.75C272.297 46.2109 272.816 45.8008 273.418 45.5195C274.027 45.2305 274.707 45.0859 275.457 45.0859C276.051 45.0859 276.594 45.1719 277.086 45.3438C277.578 45.5156 278 45.7891 278.352 46.1641C278.711 46.5391 278.984 47.0352 279.172 47.6523C279.367 48.2695 279.465 49.0234 279.465 49.9141V58H276.066V49.9023C276.066 49.3398 275.988 48.9023 275.832 48.5898C275.676 48.2773 275.445 48.0586 275.141 47.9336C274.844 47.8008 274.477 47.7344 274.039 47.7344C273.586 47.7344 273.191 47.8242 272.855 48.0039C272.527 48.1836 272.254 48.4336 272.035 48.7539C271.824 49.0664 271.664 49.4336 271.555 49.8555C271.445 50.2773 271.391 50.7305 271.391 51.2148Z" fill="#5B2E0F"/>
<path d="M101.822 115.1L108.194 86.0078H111.995L114.061 88.4907L107.271 118H103.074L101.822 115.1ZM100.13 86.0078L105.513 115.319L104.129 118H99.2729L92.4834 86.0078H100.13ZM117.554 115.166L122.894 86.0078H130.518L123.729 118H118.895L117.554 115.166ZM114.742 86.0078L121.268 115.275L119.949 118H115.752L108.809 88.4468L110.962 86.0078H114.742ZM141.021 94.2256V118H133.594V94.2256H141.021ZM133.155 88.0952C133.155 87.0405 133.536 86.1763 134.297 85.5024C135.059 84.8286 136.048 84.4917 137.264 84.4917C138.479 84.4917 139.468 84.8286 140.23 85.5024C140.992 86.1763 141.373 87.0405 141.373 88.0952C141.373 89.1499 140.992 90.0142 140.23 90.688C139.468 91.3618 138.479 91.6987 137.264 91.6987C136.048 91.6987 135.059 91.3618 134.297 90.688C133.536 90.0142 133.155 89.1499 133.155 88.0952ZM153.062 100.114V118H145.657V94.2256H152.579L153.062 100.114ZM160.093 94.0498L159.961 100.927C159.668 100.898 159.273 100.861 158.775 100.817C158.277 100.773 157.859 100.751 157.522 100.751C156.658 100.751 155.911 100.854 155.281 101.059C154.666 101.25 154.153 101.542 153.743 101.938C153.348 102.319 153.055 102.802 152.864 103.388C152.688 103.974 152.608 104.655 152.623 105.432L151.282 104.553C151.282 102.956 151.436 101.506 151.744 100.202C152.066 98.8838 152.52 97.7485 153.106 96.7964C153.692 95.8296 154.402 95.0898 155.237 94.5771C156.072 94.0498 157.01 93.7861 158.05 93.7861C158.416 93.7861 158.775 93.8081 159.126 93.8521C159.493 93.896 159.815 93.9619 160.093 94.0498ZM173.716 118.439C171.783 118.439 170.054 118.139 168.531 117.539C167.007 116.923 165.718 116.081 164.664 115.012C163.624 113.942 162.825 112.712 162.269 111.32C161.727 109.929 161.456 108.457 161.456 106.904V106.069C161.456 104.326 161.697 102.714 162.181 101.235C162.664 99.7407 163.382 98.437 164.334 97.3237C165.286 96.2104 166.48 95.3462 167.916 94.731C169.351 94.1011 171.021 93.7861 172.925 93.7861C174.61 93.7861 176.119 94.0571 177.452 94.5991C178.785 95.1411 179.913 95.9175 180.835 96.9282C181.773 97.939 182.483 99.1621 182.967 100.598C183.465 102.033 183.714 103.645 183.714 105.432V108.442H164.29V103.806H176.485V103.234C176.5 102.443 176.36 101.77 176.067 101.213C175.789 100.656 175.379 100.231 174.837 99.9385C174.295 99.6455 173.636 99.499 172.859 99.499C172.054 99.499 171.387 99.6748 170.86 100.026C170.347 100.378 169.944 100.861 169.651 101.477C169.373 102.077 169.175 102.773 169.058 103.564C168.941 104.355 168.882 105.19 168.882 106.069V106.904C168.882 107.783 169 108.581 169.234 109.299C169.483 110.017 169.834 110.632 170.289 111.145C170.757 111.643 171.314 112.031 171.958 112.309C172.618 112.587 173.365 112.727 174.2 112.727C175.21 112.727 176.207 112.536 177.188 112.155C178.169 111.774 179.012 111.145 179.715 110.266L183.077 114.265C182.593 114.953 181.905 115.62 181.011 116.264C180.132 116.909 179.078 117.436 177.847 117.846C176.617 118.242 175.24 118.439 173.716 118.439ZM195.799 118H188.35V92.292C188.35 90.4463 188.724 88.8936 189.471 87.6338C190.218 86.374 191.272 85.4219 192.635 84.7773C193.997 84.1182 195.608 83.7886 197.469 83.7886C198.113 83.7886 198.721 83.8325 199.292 83.9204C199.864 84.0083 200.42 84.1182 200.962 84.25L200.984 89.6992C200.721 89.626 200.45 89.5747 200.171 89.5454C199.893 89.5161 199.549 89.5015 199.139 89.5015C198.421 89.5015 197.813 89.6113 197.315 89.8311C196.817 90.0361 196.436 90.3511 196.172 90.7759C195.923 91.186 195.799 91.6914 195.799 92.292V118ZM200.413 94.2256V99.3672H184.922V94.2256H200.413ZM210.542 100.114V118H203.138V94.2256H210.059L210.542 100.114ZM217.574 94.0498L217.442 100.927C217.149 100.898 216.753 100.861 216.255 100.817C215.757 100.773 215.34 100.751 215.003 100.751C214.139 100.751 213.392 100.854 212.762 101.059C212.146 101.25 211.634 101.542 211.224 101.938C210.828 102.319 210.535 102.802 210.345 103.388C210.169 103.974 210.088 104.655 210.103 105.432L208.763 104.553C208.763 102.956 208.917 101.506 209.224 100.202C209.546 98.8838 210 97.7485 210.586 96.7964C211.172 95.8296 211.883 95.0898 212.718 94.5771C213.553 94.0498 214.49 93.7861 215.53 93.7861C215.896 93.7861 216.255 93.8081 216.607 93.8521C216.973 93.896 217.295 93.9619 217.574 94.0498ZM231.812 112.023V102.224C231.812 101.55 231.717 100.971 231.526 100.488C231.336 100.004 231.036 99.6309 230.625 99.3672C230.215 99.0889 229.666 98.9497 228.978 98.9497C228.421 98.9497 227.945 99.0449 227.549 99.2354C227.154 99.4258 226.854 99.7114 226.648 100.092C226.443 100.473 226.341 100.957 226.341 101.542H218.936C218.936 100.444 219.178 99.4258 219.661 98.4883C220.159 97.5361 220.862 96.7085 221.771 96.0054C222.693 95.3022 223.792 94.7603 225.066 94.3794C226.355 93.9839 227.791 93.7861 229.373 93.7861C231.263 93.7861 232.947 94.1011 234.427 94.731C235.921 95.3608 237.1 96.3057 237.964 97.5654C238.829 98.8105 239.261 100.378 239.261 102.268V112.001C239.261 113.554 239.349 114.733 239.524 115.539C239.7 116.33 239.949 117.026 240.271 117.626V118H232.845C232.493 117.268 232.229 116.374 232.054 115.319C231.893 114.25 231.812 113.151 231.812 112.023ZM232.713 103.476L232.757 107.431H229.483C228.794 107.431 228.208 107.526 227.725 107.717C227.256 107.907 226.875 108.171 226.583 108.508C226.304 108.83 226.099 109.196 225.967 109.606C225.85 110.017 225.792 110.449 225.792 110.903C225.792 111.342 225.894 111.738 226.099 112.089C226.319 112.426 226.612 112.69 226.978 112.88C227.344 113.071 227.754 113.166 228.208 113.166C229.029 113.166 229.725 113.012 230.296 112.705C230.882 112.382 231.329 111.994 231.636 111.54C231.944 111.086 232.098 110.661 232.098 110.266L233.724 113.298C233.431 113.884 233.094 114.477 232.713 115.078C232.347 115.678 231.885 116.235 231.329 116.748C230.787 117.246 230.12 117.656 229.329 117.978C228.538 118.286 227.579 118.439 226.451 118.439C224.986 118.439 223.638 118.139 222.408 117.539C221.192 116.938 220.218 116.103 219.485 115.034C218.753 113.95 218.387 112.705 218.387 111.298C218.387 110.068 218.606 108.969 219.046 108.002C219.5 107.036 220.181 106.215 221.089 105.542C221.998 104.868 223.155 104.355 224.561 104.003C225.967 103.652 227.623 103.476 229.527 103.476H232.713ZM250.84 99.2573V118H243.436V94.2256H250.379L250.84 99.2573ZM249.939 105.3L248.248 105.344C248.248 103.674 248.445 102.136 248.841 100.729C249.236 99.3232 249.822 98.1001 250.599 97.0601C251.375 96.02 252.327 95.2144 253.455 94.6431C254.598 94.0718 255.916 93.7861 257.41 93.7861C258.45 93.7861 259.395 93.9473 260.245 94.2695C261.094 94.5771 261.827 95.0679 262.442 95.7417C263.057 96.4009 263.526 97.2651 263.848 98.3345C264.185 99.3892 264.354 100.656 264.354 102.136V118H256.949V103.081C256.949 102.07 256.832 101.308 256.597 100.795C256.377 100.283 256.055 99.9385 255.63 99.7627C255.206 99.5869 254.686 99.499 254.07 99.499C253.426 99.499 252.847 99.6455 252.334 99.9385C251.822 100.231 251.382 100.642 251.016 101.169C250.665 101.682 250.394 102.29 250.203 102.993C250.027 103.696 249.939 104.465 249.939 105.3ZM263.519 105.3L261.453 105.344C261.453 103.674 261.636 102.136 262.002 100.729C262.383 99.3232 262.947 98.1001 263.694 97.0601C264.456 96.02 265.401 95.2144 266.529 94.6431C267.657 94.0718 268.968 93.7861 270.462 93.7861C271.546 93.7861 272.542 93.9473 273.45 94.2695C274.358 94.5918 275.142 95.1118 275.801 95.8296C276.46 96.5474 276.973 97.4995 277.339 98.686C277.706 99.8579 277.889 101.308 277.889 103.037V118H270.462V103.037C270.462 102.055 270.345 101.315 270.11 100.817C269.891 100.305 269.568 99.9604 269.144 99.7847C268.719 99.5942 268.213 99.499 267.627 99.499C266.924 99.499 266.316 99.6455 265.804 99.9385C265.291 100.231 264.859 100.642 264.507 101.169C264.17 101.682 263.921 102.29 263.76 102.993C263.599 103.696 263.519 104.465 263.519 105.3ZM293.643 118.439C291.709 118.439 289.981 118.139 288.458 117.539C286.934 116.923 285.645 116.081 284.59 115.012C283.55 113.942 282.752 112.712 282.195 111.32C281.653 109.929 281.382 108.457 281.382 106.904V106.069C281.382 104.326 281.624 102.714 282.107 101.235C282.591 99.7407 283.309 98.437 284.261 97.3237C285.213 96.2104 286.407 95.3462 287.842 94.731C289.278 94.1011 290.948 93.7861 292.852 93.7861C294.537 93.7861 296.045 94.0571 297.378 94.5991C298.711 95.1411 299.839 95.9175 300.762 96.9282C301.7 97.939 302.41 99.1621 302.894 100.598C303.392 102.033 303.641 103.645 303.641 105.432V108.442H284.217V103.806H296.412V103.234C296.426 102.443 296.287 101.77 295.994 101.213C295.716 100.656 295.306 100.231 294.764 99.9385C294.222 99.6455 293.562 99.499 292.786 99.499C291.98 99.499 291.314 99.6748 290.787 100.026C290.274 100.378 289.871 100.861 289.578 101.477C289.3 102.077 289.102 102.773 288.985 103.564C288.868 104.355 288.809 105.19 288.809 106.069V106.904C288.809 107.783 288.926 108.581 289.161 109.299C289.41 110.017 289.761 110.632 290.215 111.145C290.684 111.643 291.241 112.031 291.885 112.309C292.544 112.587 293.292 112.727 294.126 112.727C295.137 112.727 296.133 112.536 297.115 112.155C298.096 111.774 298.938 111.145 299.642 110.266L303.003 114.265C302.52 114.953 301.832 115.62 300.938 116.264C300.059 116.909 299.004 117.436 297.774 117.846C296.543 118.242 295.167 118.439 293.643 118.439ZM319.109 111.32C319.109 110.91 318.97 110.559 318.692 110.266C318.428 109.958 317.959 109.68 317.286 109.431C316.612 109.167 315.667 108.903 314.451 108.64C313.294 108.391 312.203 108.061 311.177 107.651C310.167 107.241 309.28 106.743 308.519 106.157C307.757 105.571 307.156 104.875 306.717 104.069C306.292 103.264 306.08 102.341 306.08 101.301C306.08 100.29 306.292 99.3379 306.717 98.4443C307.156 97.5361 307.793 96.7378 308.628 96.0493C309.478 95.3462 310.511 94.7969 311.727 94.4014C312.942 93.9912 314.327 93.7861 315.879 93.7861C318.018 93.7861 319.864 94.1157 321.417 94.7749C322.969 95.4194 324.163 96.3276 324.998 97.4995C325.848 98.6567 326.272 99.9971 326.272 101.521H318.868C318.868 100.92 318.765 100.407 318.56 99.9824C318.37 99.5576 318.055 99.2354 317.615 99.0156C317.176 98.7812 316.59 98.6641 315.857 98.6641C315.345 98.6641 314.876 98.7593 314.451 98.9497C314.041 99.1401 313.711 99.4038 313.462 99.7407C313.213 100.078 313.089 100.473 313.089 100.927C313.089 101.25 313.162 101.542 313.309 101.806C313.47 102.055 313.711 102.29 314.034 102.509C314.356 102.714 314.766 102.905 315.264 103.081C315.762 103.242 316.363 103.388 317.066 103.52C318.663 103.813 320.157 104.23 321.548 104.772C322.94 105.314 324.068 106.083 324.932 107.08C325.811 108.076 326.25 109.416 326.25 111.101C326.25 112.155 326.009 113.129 325.525 114.023C325.042 114.902 324.346 115.678 323.438 116.352C322.53 117.011 321.438 117.524 320.164 117.89C318.89 118.256 317.454 118.439 315.857 118.439C313.587 118.439 311.668 118.037 310.101 117.231C308.533 116.411 307.347 115.385 306.541 114.155C305.75 112.91 305.354 111.65 305.354 110.375H312.254C312.283 111.108 312.459 111.708 312.781 112.177C313.118 112.646 313.565 112.99 314.122 113.21C314.678 113.43 315.323 113.54 316.055 113.54C316.729 113.54 317.286 113.444 317.725 113.254C318.179 113.063 318.523 112.807 318.758 112.485C318.992 112.148 319.109 111.76 319.109 111.32Z" fill="#424241"/>
<path d="M1363 15C1363 6.71573 1356.28 0 1348 0H1134V167H1348C1356.28 167 1363 160.284 1363 152V15Z" fill="#5B2E0F"/>
<path fill-rule="evenodd" clip-rule="evenodd" d="M1203 49C1203 47.8954 1203.9 47 1205 47H1292.5C1293.6 47 1294.5 47.8954 1294.5 49V118.996C1294.5 120.101 1293.6 120.996 1292.5 120.996H1205C1203.9 120.996 1203 120.101 1203 118.996V49ZM1207 51V55.4945H1290.5V51H1207ZM1290.5 59.4945H1235.44V116.996H1290.5V59.4945ZM1231.44 116.996V59.4945H1207V116.996H1231.44Z" fill="#BA7F56"/>
<path fill-rule="evenodd" clip-rule="evenodd" d="M1209.97 64.8004C1209.97 63.6958 1210.87 62.8004 1211.97 62.8004H1225.97C1227.08 62.8004 1227.97 63.6958 1227.97 64.8004V84.1956C1227.97 85.3001 1227.08 86.1956 1225.97 86.1956H1211.97C1210.87 86.1956 1209.97 85.3001 1209.97 84.1956V64.8004ZM1213.97 66.8004V82.1956H1223.97V66.8004H1213.97ZM1239.58 65.6964C1239.58 64.5918 1240.47 63.6964 1241.58 63.6964H1284.5C1285.61 63.6964 1286.5 64.5918 1286.5 65.6964V111.905C1286.5 113.01 1285.61 113.905 1284.5 113.905H1241.58C1240.47 113.905 1239.58 113.01 1239.58 111.905V65.6964ZM1243.58 67.6964V109.905H1282.5V67.6964H1243.58ZM1209.81 95.9363C1209.81 94.8317 1210.71 93.9363 1211.81 93.9363H1220.73C1221.84 93.9363 1222.73 94.8317 1222.73 95.9363C1222.73 97.0409 1221.84 97.9363 1220.73 97.9363H1211.81C1210.71 97.9363 1209.81 97.0409 1209.81 95.9363ZM1209.81 102.936C1209.81 101.832 1210.71 100.936 1211.81 100.936H1226.35C1227.46 100.936 1228.35 101.832 1228.35 102.936C1228.35 104.041 1227.46 104.936 1226.35 104.936H1211.81C1210.71 104.936 1209.81 104.041 1209.81 102.936ZM1209.81 109.936C1209.81 108.832 1210.71 107.936 1211.81 107.936H1220.73C1221.84 107.936 1222.73 108.832 1222.73 109.936C1222.73 111.041 1221.84 111.936 1220.73 111.936H1211.81C1210.71 111.936 1209.81 111.041 1209.81 109.936Z" fill="#BA7F56"/>
</svg>
